<ttFont>
          <CharString index="0">
            375 -20 rmoveto
            149 124 110 100 70 hvcurveto
            -10 -73 rlineto
            -100 -7 47 -37 76 hhcurveto
            104 84 97 23 11 hvcurveto
            -27 44 rlineto
            -35 -39 -25 -24 -26 hhcurveto
            -19 -29 19 69 10 hvcurveto
            150 989 -118 -34 -1 -1 rlineto
            19 -56 -73 17 -64 hhcurveto
            -404 -236 -455 -2 callsubr
            97 -169 212 hvcurveto
            32 114 rmoveto
            -116 -61 112 215 271 159 372 292 58 59 -12 -33 44 hvcurveto
            -103 -683 rlineto
            -92 -56 -125 -150 -151 hhcurveto
            return
          </CharString>
          <CharString index="1">
            rmoveto
            -88 -8 49 -31 68 hhcurveto
            112 88 104 28 18 hvcurveto
            -27 44 rlineto
            -52 -50 -29 -19 -29 hhcurveto
            -19 -16 23 50 7 hvcurveto
            141 984 -41 21 -258 -42 -14 -65 137 -40 -43 -299 -77 -492 -9 -126 rlinecurve
            return
          </CharString>
          <CharString index="2">
            87 439 rmoveto
            -291 5 128 -168 253 hhcurveto
            336 228 362 361 -6 hvcurveto
            291 -5 -129 169 -253 hhcurveto
            -336 -227 -361 -363 6 hvcurveto
            414 -361 rmoveto
            -167 -79 134 229 -3 hvcurveto
            272 -5 116 352 252 hhcurveto
            171 76 -139 -225 3 hvcurveto
            -272 4 -118 -351 -250 hhcurveto
            return
          </CharString>
          <CharString index="3">
            -4 209 -150 114 -149 93 rrcurveto
            -141 85 -132 95 180 vvcurveto
            207 176 48 123 104 85 -27 -28 41 vhcurveto
            14 -197 rlineto
            86 hlineto
            46 262 rlineto
            37 -55 -127 48 -191 hhcurveto
            -255 -209 -155 -257 5 hvcurveto
            4 -218 179 -120 157 -97 rrcurveto
            129 -83 106 -96 -170 vvcurveto
            -205 -186 -75 -150 -92 -114 25 38 -56 vhcurveto
            -13 210 -94 -4 rlineto
            return
          </CharString>
          <CharString index="4">
            rmoveto
            62 55 -21 callgsubr
            56 3 -37 42 -62 -54 callgsubr
            -58 -4 42 -43 53 hhcurveto
            return
          </CharString>
          <CharString index="5">
            rmoveto
            -5 -44 44 -15 32 -60 -4 -55 rlinecurve
            -5 -89 -37 -61 -51 -36 -2 -20 rcurveline
            33 -33 73 20 128 118 13 155 rlinecurve
            7 98 -45 93 -83 24 rrcurveto
            return
          </CharString>
          <CharString index="6">
            617 -17 rmoveto
            157 139 48 30 99 hvcurveto
            54 16 34 13 39 4 93 629 rcurveline
            -435 hlineto
            -11 -93 270 -14 -67 -438 rlineto
            -67 -74 -149 -34 -113 hhcurveto
            -272 -106 294 272 -3 hvcurveto
            365 -4 159 443 402 hhcurveto
            167 73 -30 -36 51 hvcurveto
            7 -202 rlineto
            102 hlineto
            57 296 -38 11 rlineto
            21 -72 -125 35 -204 hhcurveto
            -443 -312 -371 -548 9 hvcurveto
            -320 5 152 -324 359 hhcurveto
            return
          </CharString>
          <CharString index="7">
            593 -16 rmoveto
            209 163 62 24 77 hvcurveto
            40 331 -98 1 -4 -26 -56 -184 -2 -13 rlinecurve
            -67 -52 -138 -33 -101 hhcurveto
            -267 -98 274 290 -6 hvcurveto
            348 -7 179 459 388 hhcurveto
            145 60 -26 -27 47 hvcurveto
            4 -275 rlineto
            94 hlineto
            68 363 -47 13 rlineto
            17 -62 -111 31 -179 hhcurveto
            -398 -357 -371 -548 9 hvcurveto
            -300 5 140 -343 355 hhcurveto
            return
          </CharString>
          <CharString index="8">
            776 -28 callgsubr
            474 105 955 115 8 -20 410 12 callsubr
            -49 335 -23 callgsubr
            hintmask 1001001100000000
            138 -127 rmoveto
            -21 -158 -42 -118 -89 -1 -74 -1 -67 29 -13 6 rrcurveto
            hintmask 0101001100000000
            -42 -124 rlineto
            hintmask 1001010100000000
            -103 callgsubr
            hintmask 1001001100000000
            46 134 rlineto
            hintmask 1001010100000000
            -94 callgsubr
            -23 callgsubr
            534 -1167 rmoveto
            -21 -158 -42 -118 -89 -1 -74 -1 -67 29 -13 6 rrcurveto
            hintmask 1001001010000000
            -42 -124 rlineto
            hintmask 0101001010000000
            -103 callgsubr
            hintmask 1001010010000000
            46 134 rlineto
            hintmask 1001001010000000
            -94 callgsubr
            hintmask 1001010010000000
            552 -941 -106 callsubr
            hintmask 0010100001000000
            258 1322 -103 callsubr
            endchar
          </CharString>
          <CharString index="9">
            rmoveto
            65 54 56 68 4 -9 callgsubr
            -62 hhcurveto
            -59 -54 -52 -67 -3 hvcurveto
            -58 -35 callgsubr
            -421 hmoveto
            64 55 56 68 3 -9 callgsubr
            -61 hhcurveto
            -59 -54 -52 -67 -4 hvcurveto
            -58 -3 41 -44 53 hhcurveto
            endchar
          </CharString>
          <CharString index="10">
            1083 hintmask 00000000
            hintmask 10101100
            138 -127 rmoveto
            -21 -158 -42 -118 -89 -1 -74 -1 -67 29 -13 6 rrcurveto
            hintmask 01101100
            -42 -124 rlineto
            hintmask 10110100
            -103 callgsubr
            hintmask 10101100
            46 134 rlineto
            hintmask 10110100
            -94 callgsubr
            return
          </CharString>
          <CharString index="11">
            rmoveto
            168 141 165 147 17 hvcurveto
            2 11 1 11 -1 10 rrcurveto
            -82 hlineto
            -80 -16 -78 -147 -148 hhcurveto
            -133 -59 106 91 -12 hvcurveto
            -2 10 0 12 -1 8 rrcurveto
            -85 hlineto
            -1 -6 0 -8 -6 vvcurveto
            -160 103 -164 186 vhcurveto
            endchar
          </CharString>
          <CharString index="12">
            24 hmoveto
            444 hlineto
            6 70 -164 24 161 1242 64 -200 511 -1136 rlineto
            152 hlineto
            214 1430 152 19 8 81 rlineto
            -435 hlineto
            -10 -81 151 -18 -166 -1259 -66 196 -515 1162 rlineto
            -301 hlineto
            -14 -81 145 -19 -190 -1338 -140 -23 rlineto
            return
          </CharString>
          <CharString index="13">
            155 hintmask 00000000
            hintmask 10001001
            324 -20 rmoveto
            136 12 148 297 241 516 43 130 7 -129 42 -484 rlineto
            hintmask 01001001
            36 -341 151 11 210 321 rlineto
            128 197 149 272 185 vvcurveto
            129 -34 67 -72 -44 -34 -27 -59 -36 32 -45 -3 -71 vhcurveto
            -11 -223 -159 -294 -62 -92 -130 -205 rcurveline
            -11 200 rlineto
            hintmask 01010001
            -71 844 rlineto
            -144 hlineto
            -374 -865 -70 -179 -14 200 -79 715 rlineto
            hintmask 01001001
            88 -11 -21 49 -93 hhcurveto
            -96 -74 -83 -22 -14 hvcurveto
            hintmask 01100001
            25 -50 21 17 24 25 30 -1 rlinecurve
            25 -1 13 -20 10 -49 94 -656 rcurveline
            hintmask 00000110
            return
          </CharString>
          <CharString index="14">
            421 -20 rmoveto
            190 128 115 56 49 hvcurveto
            -32 66 rlineto
            -73 -97 -77 -52 -117 hhcurveto
            -141 -86 121 240 344 157 248 215 71 86 -28 -49 58 hvcurveto
            41 147 rlineto
            29 -57 -91 19 -72 hhcurveto
            -374 -201 -403 -330 -279 129 -171 221 hvcurveto
            return
          </CharString>
          <CharString index="15">
            rmoveto
            97 55 186 117 54 104 -99 110 rcurveline
            -282 -349 rlineto
            endchar
          </CharString>
          <CharString index="16">
            rmoveto
            121 68 233 207 38 66 -113 133 rcurveline
            -322 -425 rlineto
            endchar
          </CharString>
          <CharString index="17">
            hintmask 00000000
            hintmask 10101000
            4 28 rmoveto
            55 -50 8 7 1 1 rlineto
            19 27 38 8 24 119 272 -35 147 hhcurveto
            49 34 9 11 17 hvcurveto
            57 38 19 159 7 120 rrcurveto
            -52 hlineto
            -123 -18 -61 -63 -104 hhcurveto
            -29 -289 6 2 -107 hvcurveto
            97 116 669 863 -46 43 1 4 rlineto
            hintmask 11001000
            -27 -33 -56 -9 -27 hhcurveto
            hintmask 10101000
            -118 -228 36 -152 hhcurveto
            -50 -37 -8 -12 -17 hvcurveto
            -56 -40 -22 -200 2 -85 rrcurveto
            53 hlineto
            7 98 70 83 79 4 12 8 311 -11 97 -3 -125 -147 rcurveline
            hintmask 00010100
            return
          </CharString>
          <CharString index="18">
            hintmask 00000000
            hintmask 01100100
            381 -10 rmoveto
            158 hlineto
            429 1077 103 -1077 rlineto
            161 hlineto
            624 1439 133 20 14 81 rlineto
            -428 hlineto
            hintmask 10010100
            -9 -81 157 -20 -440 -1031 -91 -262 -22 299 rlineto
            hintmask 01100100
            -99 997 177 17 17 81 rlineto
            -482 hlineto
            hintmask 10010100
            -9 -81 145 -17 15 -146 -364 -912 -74 -238 -39 299 rlineto
            hintmask 01100100
            -124 998 184 16 9 81 rlineto
            -483 hlineto
            hintmask 01010100
            -10 -81 147 -20 rlineto
            return
          </CharString>
          <CharString index="19">
            -87 callgsubr
            hintmask 00101000
            return
          </CharString>
          <CharString index="20">
            159 -23 callgsubr
            hintmask 0110010001000000
            -65 callsubr
            hintmask 1010010001000000
            -79 callgsubr
            hintmask 1010001001000000
            -4 callsubr
            hintmask 1010100001000000
            -10 -81 rlineto
            hintmask 0111000001000000
            -43 callgsubr
            hintmask 1010010001000000
            -62 callgsubr
            hintmask 0111000001000000
            -4 callgsubr
            hintmask 0000000110000000
            return
          </CharString>
          <CharString index="21">
            163 -20 110 955 105 -10 -20 30 -20 hstemhm
            320 163 369 162 hintmask 00000000
            hintmask 10011100
            338 58 rmoveto
            29 -48 61 -29 72 -1 rrcurveto
            158 122 75 76 75 hvcurveto
            -120 -16 41 -29 78 hhcurveto
            92 84 84 21 14 hvcurveto
            -27 46 rlineto
            -34 -37 -24 -12 -18 hhcurveto
            -32 1 43 59 8 hvcurveto
            hintmask 10101100
            128 951 rlineto
            -156 hlineto
            -119 -879 rlineto
            -70 -64 -134 -101 -116 hhcurveto
            -103 -67 57 158 2 hvcurveto
            3 126 27 132 18 118 18 117 18 117 9 106 rrcurveto
            hintmask 10011100
            98 8 -39 31 -72 hhcurveto
            hintmask 11001100
            -91 -79 -78 -27 -14 hvcurveto
            27 -43 rlineto
            29 31 22 14 19 hhcurveto
            27 1 -35 -49 -3 hvcurveto
            -21 -209 -38 -203 -27 -191 -109 -730 rcurveline
            148 hlineto
            endchar
          </CharString>
          <CharString index="22">
            rmoveto
            -88 callgsubr
            return
          </CharString>
          <CharString index="23">
            hintmask 00000000
            hintmask 10101000
            239 hmoveto
            588 hlineto
            7 70 -223 24 67 492 547 845 113 18 12 81 rlineto
            -412 hlineto
            -9 -81 rlineto
            hintmask 11001000
            147 -19 -375 -608 -78 -137 -42 137 -220 608 rlineto
            hintmask 10101000
            175 19 10 81 rlineto
            -468 hlineto
            -8 -81 116 -19 339 -844 -67 -492 -213 -24 rlineto
            return
          </CharString>
          <CharString index="24">
            -48 callgsubr
            hstemhm
            818 187 hintmask 00000000
            hintmask 10011000
            352 -79 rmoveto
            50 hlineto
            -228 -105 -137 -81 -98 hhcurveto
            -96 -51 30 9 -21 hvcurveto
            -37 -127 rlineto
            -13 40 78 -16 55 hhcurveto
            184 116 106 70 49 hvcurveto
            82 98 121 194 164 327 rrcurveto
            100 188 159 277 227 vvcurveto
            hintmask 10101000
            117 -39 63 -71 -44 -33 -27 -59 -39 38 -42 -7 -71 vhcurveto
            -24 -228 -93 -166 -104 -227 -14 -26 -108 -210 -48 -90 -26 281 rcurveline
            -101 768 rlineto
            hintmask 10011000
            83 -15 -19 54 -89 hhcurveto
            -98 -85 -96 -25 -14 hvcurveto
            hintmask 11001000
            24 -49 rlineto
            39 41 24 17 25 hhcurveto
            20 13 -12 -58 14 hvcurveto
            return
          </CharString>
          <CharString index="25">
            rmoveto
            142 hlineto
            316 349 -50 46 -72 -60 -189 -152 -73 -61 rlinecurve
            -246 273 -54 -47 rlineto
            endchar
          </CharString>
          <CharString index="26">
            rmoveto
            hintmask 00100100
            37 43 65 62 58 -1 rrcurveto
            hintmask 00110100
            -2 111 3 -144 156 hhcurveto
            107 98 79 95 33 hvcurveto
            -48 75 rlineto
            -46 -32 -48 -73 -80 -97 -31 146 -130 hhcurveto
            hintmask 00100100
            -101 -97 -82 -83 -43 hvcurveto
            endchar
          </CharString>
          <CharString index="27">
            166 -55 160 -23 callgsubr
            hintmask 0011000010000000
            -76 callsubr
            hintmask 0101000100000000
            -60 callsubr
            hintmask 1001000100000000
            -64 callgsubr
            hintmask 0011000010000000
            -67 callgsubr
            hintmask 0010100010000000
            27 257 rlineto
            hintmask 0011000010000000
            -38 callsubr
            hintmask 0000011000000000
            return
          </CharString>
          <CharString index="28">
            242 -256 55 48 -219 335 rlineto
            -142 hlineto
            return
          </CharString>
          <CharString index="29">
            -1 111 3 -145 156 hhcurveto
            107 97 79 96 33 hvcurveto
            -47 74 rlineto
            -45 -32 -49 -74 -79 -97 -32 146 -130 hhcurveto
            return
          </CharString>
          <CharString index="30">
            hlineto
            6 75 -249 19 190 1349 365 -20 -30 -359 88 1 75 465 rlineto
            -1130 hlineto
            -81 -466 rlineto
            91 hlineto
            94 358 rlineto
            return
          </CharString>
          <CharString index="31">
            114 hmoveto
            155 hlineto
            99 745 rlineto
            157 108 173 135 120 hhcurveto
            100 37 -41 -137 -125 -35 -160 -21 -117 hvcurveto
            return
          </CharString>
          <CharString index="32">
            hintmask 00000000
            hintmask 11001000
            25 hmoveto
            991 hlineto
            93 353 -111 25 -121 -272 -690 -20 104 121 rlineto
            hintmask 10101000
            926 1254 rlineto
            hintmask 11001000
            -21 69 rlineto
            -928 hlineto
            -56 -344 108 -19 90 265 626 6 -125 -145 -908 -1220 rlineto
            hintmask 00010100
            return
          </CharString>
          <CharString index="33">
            hhcurveto
            -409 -232 -442 -2 callsubr
            106 -182 226 return
          </CharString>
          <CharString index="34">
            rmoveto
            -176 95 -134 183 252 160 221 219 172 -79 123 -198 -239 -174 -213 -212 vhcurveto
            136 2 rmoveto
            143 87 198 168 109 47 -87 -132 -142 -77 -209 -169 -111 -54 94 135 vhcurveto
            return
          </CharString>
          <CharString index="35">
            -147 -102 callsubr
            return
          </CharString>
          <CharString index="36">
            rmoveto
            335 254 rlineto
            hintmask 00010100
            -79 callsubr
            hintmask 00100100
            -321 -334 rlineto
            endchar
          </CharString>
          <CharString index="37">
            rmoveto
            -27 -134 -138 -170 -201 -53 28 -70 rcurveline
            201 35 213 112 82 273 32 95 77 590 83 671 170 18 rcurveline
            9 81 rlineto
            -487 hlineto
            -11 -81 163 -18 -60 -435 -57 -525 -77 -389 rlinecurve
            return
          </CharString>
          <CharString index="38">
            -2 -17 34 -57 rlineto
            181 78 199 170 261 vvcurveto
            106 -44 133 -134 36 vhcurveto
            return
          </CharString>
          <CharString index="39">
            -29 callsubr
            hintmask 01100000
            -32 callsubr
            hintmask 10100000
            -69 callsubr
            return
          </CharString>
          <CharString index="40">
            225 -14 95 -79 69 660 105 596 11 callgsubr
            hintmask 01100110
            39 2 rmoveto
            227 hlineto
            56 106 -5 -4 45 hvcurveto
            hintmask 10100110
            -68 callgsubr
            hintmask 10110010
            -99 -126 -15 -1 -96 hvcurveto
            -232 hlineto
            hintmask 10101010
            -10 -81 rlineto
            hintmask 01110010
            132 -19 -81 -596 rlineto
            return
          </CharString>
          <CharString index="41">
            3 -20 110 -108 105 1068 -20 28 -20 return
          </CharString>
          <CharString index="42">
            52 hmoveto
            478 hlineto
            6 70 -188 24 76 577 rlineto
            -1 59 148 1 15 hhcurveto
            107 14 76 -230 75 -189 rrcurveto
            return
          </CharString>
          <CharString index="43">
            rmoveto
            656 hlineto
            9 70 -255 22 120 896 -59 17 -50 -41 -233 -119 -122 -35 rlinecurve
            5 -84 53 19 214 49 18 13 rlinecurve
            -95 -715 -252 -21 rlineto
            endchar
          </CharString>
          <CharString index="44">
            rmoveto
            111 hlineto
            231 1290 rlineto
            -195 hlineto
            -260 -1690 rmoveto
            -69 -9 46 -37 57 hhcurveto
            62 69 46 77 10 hvcurveto
            60 8 -26 45 -76 hhcurveto
            -60 -72 -50 -72 -9 hvcurveto
            return
          </CharString>
          <CharString index="45">
            414 856 18 -129 106 -727 rlineto
            return
          </CharString>
          <CharString index="46">
            20 93 rmoveto
            -149 -24 -13 -69 rlineto
            536 hlineto
            5 69 -211 25 202 406 rlineto
            479 hlineto
            -52 -407 -147 -24 -8 -69 rlineto
            8 callgsubr
            84 640 475 -13 10 125 -476 -6 86 603 501 -12 36 -211 rlineto
            86 hlineto
            7 310 rlineto
            -1352 hlineto
            return
          </CharString>
          <CharString index="47">
            -20 -112 -31 -155 -4 -94 rrcurveto
            -85 -5 42 -32 68 hhcurveto
            103 89 92 24 15 hvcurveto
            return
          </CharString>
          <CharString index="48">
            -176 -20 112 375 90 512 94 return
          </CharString>
          <CharString index="49">
            -19 -112 -32 -155 -4 -94 rrcurveto
            -85 -5 45 -31 69 hhcurveto
            112 92 97 26 14 hvcurveto
            -26 44 rlineto
            -43 -51 -27 -20 -30 hhcurveto
            -21 -8 26 47 2 hvcurveto
            return
          </CharString>
          <CharString index="50">
            133 hmoveto
            155 hlineto
            98 734 rlineto
            177 78 142 86 111 hhcurveto
            47 30 -4 -10 20 hvcurveto
            return
          </CharString>
          <CharString index="51">
            rmoveto
            781 hlineto
            83 257 -83 23 -84 -159 -519 -20 rlineto
            305 198 318 207 277 vvcurveto
            102 -97 128 -223 -3 vhcurveto
            -203 -3 -183 -114 -61 -80 56 -76 rcurveline
            92 88 121 58 128 hhcurveto
            127 86 -54 -100 -262 -496 -288 -181 -105 hvcurveto
            return
          </CharString>
          <CharString index="52">
            151 19 8 81 rlineto
            return
          </CharString>
          <CharString index="53">
            -879 -785 rmoveto
            252 160 221 219 172 -79 123 -198 -239 -174 -213 -212 -176 95 -134 183 hvcurveto
            23 83 rmoveto
            -111 -54 94 135 143 87 198 168 109 47 -87 -132 -142 -77 -209 -169 hvcurveto
            return
          </CharString>
          <CharString index="54">
            -72 -933 -180 -23 -8 -70 rlineto
            510 hlineto
            7 70 -162 25 61 1335 179 -12 callsubr
            -381 hlineto
            -502 -1071 -99 -255 -21 259 -139 1067 rlineto
            -414 hlineto
            -10 -81 188 -19 -365 -1336 -156 -24 rlineto
            return
          </CharString>
          <CharString index="55">
            133 102 -92 callgsubr
            return
          </CharString>
          <CharString index="56">
            rmoveto
            335 254 rlineto
            hintmask 00001010
            -79 callsubr
            hintmask 00010010
            -321 -334 rlineto
            endchar
          </CharString>
          <CharString index="57">
            -116 -118 -4 -33 rlineto
            80 -16 43 -87 -90 vvcurveto
            return
          </CharString>
          <CharString index="58">
            195 -20 89 1381 80 return
          </CharString>
          <CharString index="59">
            rmoveto
            -419 339 -335 416 416 340 335 419 418 -340 335 -416 -416 -339 -335 -418 vhcurveto
            97 hmoveto
            367 291 301 367 368 291 -300 -368 return
          </CharString>
          <CharString index="60">
            -576 -20 105 1078 -20 return
          </CharString>
          <CharString index="61">
            593 -10 146 -125 -21 1451 89 -81 81 return
          </CharString>
          <CharString index="62">
            151 -20 96 1378 96 return
          </CharString>
          <CharString index="63">
            22 112 31 150 100 vvcurveto
            222 -85 74 -140 -171 -177 -136 -154 -113 vhcurveto
            return
          </CharString>
          <CharString index="64">
            91 116 rmoveto
            65 -3 60 -81 -101 vvcurveto
            -157 -124 -149 -119 -53 vhcurveto
            -2 -18 34 -55 rlineto
            216 84 157 189 224 vvcurveto
            102 -41 129 -151 38 vhcurveto
            -90 -106 rlineto
            return
          </CharString>
          <CharString index="65">
            -18 -117 -28 -152 -4 -99 rrcurveto
            -81 -3 38 -33 68 hhcurveto
            111 91 104 28 18 hvcurveto
            -27 44 rlineto
            -49 -50 -32 -22 -31 hhcurveto
            -19 -6 28 45 3 hvcurveto
            7 105 25 138 17 105 rrcurveto
            return
          </CharString>
          <CharString index="66">
            11 -12 -32 2 -20 hhcurveto
            -182 -145 -165 -108 -52 hvcurveto
            return
          </CharString>
          <CharString index="67">
            rmoveto
            -584 395 -56 -90 447 -372 -550 -379 31 -93 694 412 rlineto
            return
          </CharString>
          <CharString index="68">
            -57 -508 127 361 114 971 98 return
          </CharString>
          <CharString index="69">
            -40 20 -211 -42 -14 -72 98 -47 rlineto
            return
          </CharString>
          <CharString index="70">
            39 hmoveto
            552 hlineto
            6 70 -243 26 87 635 487 -13 10 128 -483 -8 82 604 506 -15 22 -207 rlineto
            97 hlineto
            20 310 rlineto
            -930 hlineto
            return
          </CharString>
          <CharString index="71">
            80 -79 69 602 95 664 100 -81 81 -79 95 -16 -20 return
          </CharString>
          <CharString index="72">
            37 hmoveto
            507 hlineto
            6 70 -196 24 60 459 rlineto
            -3 36 69 -6 90 hhcurveto
            334 291 220 393 -7 hvcurveto
            265 -4 -165 125 -283 hhcurveto
            return
          </CharString>
          <CharString index="73">
            -22 -29 -13 -45 -1 -39 -18 callgsubr
            return
          </CharString>
          <CharString index="74">
            106 -85 -21 42 -21 1037 126 -20 20 return
          </CharString>
          <CharString index="75">
            -167 -132 -162 -105 -37 vhcurveto
            return
          </CharString>
          <CharString index="76">
            221 hstemhm
            return
          </CharString>
          <CharString index="77">
            130 16 130 return
          </CharString>
          <CharString index="78">
            rmoveto
            -50 callsubr
            return
          </CharString>
          <CharString index="79">
            -19 -181 -1336 return
          </CharString>
          <CharString index="80">
            -28 callgsubr
            1534 115 398 3 callsubr
            return
          </CharString>
          <CharString index="81">
            hstemhm
            165 156 return
          </CharString>
          <CharString index="82">
            110 773 rlineto
            9 43 88 12 83 hhcurveto
            232 85 -108 -200 -3 hvcurveto
            -4 -323 -144 -177 -299 -3 rrcurveto
            return
          </CharString>
          <CharString index="83">
            -304 -20 112 953 118 return
          </CharString>
          <CharString index="84">
            79 590 rlineto
            9 51 120 4 30 hhcurveto
            230 74 -92 -161 2 hvcurveto
            -243 4 -163 -107 -208 hhcurveto
            return
          </CharString>
          <CharString index="85">
            -101 -97 -82 -83 -42 hvcurveto
            endchar
          </CharString>
          <CharString index="86">
            rmoveto
            -49 77 132 -23 71 hhcurveto
            234 264 128 242 8 hvcurveto
            3 93 -46 138 -207 -1 rrcurveto
            return
          </CharString>
          <CharString index="87">
            37 43 66 62 58 -1 rrcurveto
            return
          </CharString>
          <CharString index="88">
            87 46 -40 -137 -125 -34 -160 -22 -117 hvcurveto
            return
          </CharString>
          <CharString index="89">
            -55 callsubr
            13 callsubr
            return
          </CharString>
          <CharString index="90">
            -39 20 -212 -42 -14 -72 97 -47 rlineto
            return
          </CharString>
          <CharString index="91">
            132 -28 callsubr
            return
          </CharString>
          <CharString index="92">
            211 207 213 return
          </CharString>
          <CharString index="93">
            112 116 return
          </CharString>
          <CharString index="94">
            88 385 42 -377 149 -1068 100 14 512 1078 152 353 -31 -401 rlineto
            return
          </CharString>
          <CharString index="95">
            19 9 81 rlineto
            return
          </CharString>
          <CharString index="96">
            -21 997 165 -13 13 1 -20 return
          </CharString>
          <CharString index="97">
            -52 -68 -3 hvcurveto
            -57 return
          </CharString>
          <CharString index="98">
            -3 hvcurveto
            -58 -4 42 return
          </CharString>
          <CharString index="99">
            rmoveto
            111 hlineto
            142 592 rlineto
            -164 hlineto
            return
          </CharString>
          <CharString index="100">
            -107 -23 97 1381 95 return
          </CharString>
          <CharString index="101">
            194 56 123 130 -4 218 rrcurveto
            169 -3 -116 158 -309 hhcurveto
            return
          </CharString>
          <CharString index="102">
            135 -28 callsubr
            return
          </CharString>
          <CharString index="103">
            -100 -73 -16 -96 hhcurveto
            -210 hlineto
            return
          </CharString>
          <CharString index="104">
            258 -31 callsubr
            return
          </CharString>
          <CharString index="105">
            -309 -250 return
          </CharString>
          <CharString index="106">
            1336 return
          </CharString>
          <CharString index="107">
            633 0 103 397 97 130 115 590 98 -93 93 -90 89 return
          </CharString>
          <CharString index="108">
            -16 callsubr
            -147 return
          </CharString>
          <CharString index="109">
            hstemhm
            -148 1443 return
          </CharString>
          <CharString index="110">
            117 -5 -21 return
          </CharString>
          <CharString index="111">
            116 -95 -21 41 -21 1163 -20 405 -20 hstemhm
            105 946 return
          </CharString>
          <CharString index="112">
            213 20 132 299 217 hhcurveto
            98 53 -58 -112 hvcurveto
            return
          </CharString>
          <CharString index="113">
            -61 hmoveto
            487 hlineto
            7 70 -184 24 241 948 rlineto
            return
          </CharString>
          <CharString index="114">
            92 -14 98 -84 69 677 102 582 100 -81 81 -79 94 return
          </CharString>
          <CharString index="115">
            167 132 162 105 37 vhcurveto
            return
          </CharString>
          <CharString index="116">
            49 -20 104 -63 -21 1036 127 return
          </CharString>
          <CharString index="117">
            -9 30 178 26 230 rlineto
            -143 hlineto
            -27 -230 return
          </CharString>
          <CharString index="118">
            15 0 69 475 96 790 100 -81 81 -79 96 return
          </CharString>
          <CharString index="119">
            3 callsubr
            14 callgsubr
            -407 1083 return
          </CharString>
          <CharString index="120">
            -445 hlineto
            -10 -81 135 -19 return
          </CharString>
          <CharString index="121">
            hstemhm
            -2 callgsubr
            return
          </CharString>
          <CharString index="122">
            646 0 70 -67 -21 1445 103 -81 81 return
          </CharString>
          <CharString index="123">
            -76 45 60 -32 54 hhcurveto
            97 96 67 54 33 hvcurveto
            return
          </CharString>
          <CharString index="124">
            417 837 134 -4 -108 -833 rlineto
            return
          </CharString>
          <CharString index="125">
            -11 -80 303 -19 rlineto
            -287 -834 rmoveto
            return
          </CharString>
          <CharString index="126">
            -54 -20 98 970 115 return
          </CharString>
          <CharString index="127">
            76 164 499 162 return
          </CharString>
          <CharString index="128">
            hstemhm
            139 154 return
          </CharString>
          <CharString index="129">
            -52 -26 -52 hhcurveto
            -36 -32 27 60 3 hvcurveto
            return
          </CharString>
          <CharString index="130">
            164 hintmask 00000000
            return
          </CharString>
          <CharString index="131">
            hstemhm
            38 1124 return
          </CharString>
        <CharString name=".notdef">
          649 0 229 -208 -21 hstemhm
          221 240 930 237 hintmask 00000000
          hintmask 01110000
          221 hmoveto
          1407 1416 -1407 hlineto
          241 -1047 rmoveto
          350 336 -351 357 117 120 348 -364 343 362 122 -119 -356 -352 355 -363 rlineto
          hintmask 10110000
          -115 -117 -353 365 -338 -364 rlineto
          hintmask 01110000
          -8 10 -107 119 -7 10 rrcurveto
          endchar
        </CharString>
        <CharString name=".null">
          endchar
        </CharString>
        <CharString name="A">
          -57 callgsubr
          2 callsubr
          hintmask 00000000
          hintmask 11011000
          -99 callgsubr
          hintmask 11101000
          -62 callsubr
          endchar
        </CharString>
        <CharString name="AE">
          0 callsubr
          hstemhm
          -142 1928 hintmask 00000000
          hintmask 11101010
          -61 callsubr
          hintmask 11100110
          18 callsubr
          hintmask 11110010
          17 callsubr
          endchar
        </CharString>
        <CharString name="AEacute">
          0 callsubr
          143 -21 hstemhm
          -142 1928 -634 381 -23 callgsubr
          hintmask 1110100100000000
          -61 callsubr
          hintmask 1110010100000000
          18 callsubr
          hintmask 1111000100000000
          17 callsubr
          hintmask 0000001010000000
          314 1017 -92 callsubr
        </CharString>
        <CharString name="Aacute">
          -57 callgsubr
          162 -21 2 callsubr
          -558 381 hintmask 00000000
          hintmask 11010100
          -99 callgsubr
          hintmask 11100100
          -62 callsubr
          hintmask 00001010
          -124 1067 -92 callsubr
        </CharString>
        <CharString name="Abreve">
          -57 callgsubr
          125 117 2 callsubr
          -786 89 hintmask 00000000
          hintmask 11010100
          -99 callgsubr
          hintmask 11100100
          -62 callsubr
          hintmask 00001010
          -107 1088 -96 callsubr
        </CharString>
        <CharString name="Acircumflex">
          -57 callgsubr
          176 -21 22 -21 2 callsubr
          -838 682 hintmask 00000000
          hintmask 11010010
          -99 callgsubr
          hintmask 11100010
          -62 callsubr
          hintmask 00000000
          -398 1072 -51 callgsubr
        </CharString>
        <CharString name="Adieresis">
          -57 callgsubr
          207 221 2 callsubr
          -797 -15 callsubr
          hintmask 00000000
          hintmask 11010100
          -99 callgsubr
          hintmask 11100100
          -62 callsubr
          hintmask 00001011
          102 1170 -97 callgsubr
        </CharString>
        <CharString name="Agrave">
          -57 callgsubr
          162 -21 2 callsubr
          -792 377 hintmask 00000000
          hintmask 11010100
          -99 callgsubr
          hintmask 11100100
          -62 callsubr
          hintmask 00001010
          -71 1067 -74 callgsubr
        </CharString>
        <CharString name="Amacron">
          -57 callgsubr
          235 119 2 callsubr
          -766 514 hintmask 00000000
          hintmask 11010100
          -99 callgsubr
          hintmask 11100100
          -62 callsubr
          hintmask 00001010
          -376 1198 -70 callgsubr
        </CharString>
        <CharString name="Aogonek">
          63 -394 100 294 69 380 98 856 127 0 -20 hstemhm
          726 185 -172 42 hintmask 00000000
          hintmask 11101100
          4 93 rmoveto
          -144 -24 -8 -69 rlineto
          464 hlineto
          5 69 -173 25 171 355 rlineto
          600 hlineto
          52 -356 -165 -24 -5 -69 rlineto
          193 hlineto
          hintmask 11101010
          -51 -29 -55 -29 -49 -64 -36 -32 -48 -60 -16 -57 -4 -53 36 -63 83 -7 91 -9 68 24 64 36 rrcurveto
          25 -2 84 10 11 hvcurveto
          -34 -43 -31 -8 -29 hhcurveto
          -24 -8 -49 3 -21 51 rrcurveto
          hintmask 11101100
          -17 57 68 69 88 81 rrcurveto
          12 -1 13 1 13 vhcurveto
          236 hlineto
          6 69 -167 27 rlineto
          hintmask 11101010
          -235 1434 rlineto
          hintmask 11101100
          -167 hlineto
          -359 -983 rmoveto
          hintmask 11110010
          -62 callsubr
          161 -504 rmoveto
          4 3 rlineto
          endchar
        </CharString>
        <CharString name="Aring">
          63 0 69 380 98 999 -20 398 66 hstemhm
          506 106 191 303 -105 291 hintmask 00000000
          hintmask 11110010
          4 93 rmoveto
          -144 -24 -8 -69 rlineto
          464 hlineto
          5 69 -173 25 171 355 rlineto
          600 hlineto
          52 -356 rlineto
          hintmask 11110100
          -165 -24 -5 -69 rlineto
          hintmask 11110010
          488 hlineto
          6 69 -167 27 -230 1403 rlineto
          hintmask 11111100
          106 34 90 79 13 133 rrcurveto
          154 14 -102 91 -176 hhcurveto
          -144 -175 -72 -181 -18 hvcurveto
          -14 -134 71 -94 141 -23 rrcurveto
          hintmask 11111010
          82 60 rmoveto
          -107 1 -75 83 8 107 rrcurveto
          138 11 101 49 107 hhcurveto
          106 -1 72 -72 -8 -112 -11 -146 -96 -49 -108 2 rrcurveto
          -419 -999 rmoveto
          -62 callsubr
          endchar
        </CharString>
        <CharString name="Atilde">
          -57 callgsubr
          179 130 16 130 2 callsubr
          -827 707 hintmask 00000000
          hintmask 11010010
          -99 callgsubr
          hintmask 11100010
          -62 callsubr
          hintmask 00000000
          -398 1184 rmoveto
          hintmask 00001001
          37 43 65 62 58 -1 rrcurveto
          hintmask 00001101
          -2 111 3 -144 156 hhcurveto
          107 98 79 95 33 hvcurveto
          -48 75 rlineto
          -46 -32 -48 -73 -80 -97 -31 146 -130 hhcurveto
          hintmask 00001001
          -101 -97 -82 -83 -43 hvcurveto
          endchar
        </CharString>
        <CharString name="B">
          7 callsubr
          hstemhm
          1022 170 -151 159 hintmask 00000000
          hintmask 01100110
          19 callgsubr
          hintmask 10100110
          -5 callgsubr
          hintmask 10100101
          -6 callsubr
          hintmask 10110010
          -99 -93 -13 -2 -91 hvcurveto
          -237 hlineto
          hintmask 10101010
          -10 -81 rlineto
          hintmask 01110010
          -16 callsubr
          -146 -25 rlineto
          408 779 rmoveto
          hintmask 10100101
          -23 callsubr
          hintmask 01110010
          -68 -84 -3 3 -67 hvcurveto
          hintmask 10100110
          -34 callgsubr
          endchar
        </CharString>
        <CharString name="C">
          -7 callgsubr
          hstem
          93 167 vstem
          -100 callsubr
          endchar
        </CharString>
        <CharString name="CR">
          endchar
        </CharString>
        <CharString name="Cacute">
          -7 callgsubr
          126 -21 hstemhm
          93 167 487 381 hintmask 11010000
          -100 callsubr
          hintmask 00101000
          198 1630 -92 callsubr
        </CharString>
        <CharString name="Ccaron">
          -7 callgsubr
          68 386 hstemhm
          93 167 237 668 hintmask 11010000
          -100 callsubr
          hintmask 00101000
          126 1630 -84 callgsubr
        </CharString>
        <CharString name="Ccedilla">
          50 -462 116 334 91 -74 -21 1466 96 hstemhm
          93 167 335 105 hintmask 00000000
          hintmask 10111100
          333 -329 rmoveto
          -28 -105 rlineto
          -16 22 63 -12 53 hhcurveto
          143 96 54 216 18 hvcurveto
          hintmask 11011100
          6 72 -5 63 -15 45 164 14 127 47 65 21 40 331 rcurveline
          -98 1 -4 -26 -56 -184 -2 -13 rlinecurve
          -67 -52 -138 -33 -101 hhcurveto
          -267 -98 274 290 -6 hvcurveto
          348 -7 179 459 388 hhcurveto
          145 60 -26 -27 47 hvcurveto
          4 -275 rlineto
          94 hlineto
          68 363 -47 13 rlineto
          17 -62 -111 31 -179 hhcurveto
          -398 -357 -371 -548 9 hvcurveto
          hintmask 10111100
          5 -300 139 -341 354 -2 5 -30 3 -37 -4 -57 rrcurveto
          -143 -13 -67 -63 -97 hhcurveto
          -41 -27 8 9 -17 hvcurveto
          endchar
        </CharString>
        <CharString name="Ccircumflex">
          -7 callgsubr
          140 -14 callgsubr
          93 167 207 682 hintmask 11001000
          -100 callsubr
          hintmask 00000000
          -76 1635 -71 callsubr
        </CharString>
        <CharString name="Cdotaccent">
          -7 callgsubr
          155 -31 callsubr
          93 167 458 213 hintmask 11010000
          -100 callsubr
          hintmask 00101000
          215 1717 -95 callgsubr
        </CharString>
        <CharString name="D">
          225 -16 95 -79 69 1361 11 callgsubr
          hintmask 01001100
          39 hmoveto
          227 hlineto
          56 106 -5 -4 45 hvcurveto
          hintmask 10001100
          -68 callgsubr
          hintmask 10100100
          -99 -126 -15 -1 -96 hvcurveto
          -232 hlineto
          hintmask 10010100
          -10 -81 rlineto
          hintmask 01100100
          1 callsubr
          -25 rlineto
          hintmask 10001100
          308 36 rmoveto
          180 1328 -32 callgsubr
        </CharString>
        <CharString name="DC1">
          endchar
        </CharString>
        <CharString name="DC2">
          endchar
        </CharString>
        <CharString name="DC3">
          endchar
        </CharString>
        <CharString name="DC4">
          endchar
        </CharString>
        <CharString name="DEL">
          endchar
        </CharString>
        <CharString name="DLE">
          endchar
        </CharString>
        <CharString name="Dcaron">
          -19 callgsubr
          68 386 hstemhm
          504 668 37 -73 callgsubr
          371 1508 -84 callgsubr
        </CharString>
        <CharString name="Dcroat">
          -67 callsubr
          -163 hlineto
          -13 -105 rlineto
          162 0 callgsubr
          418 hlineto
          13 105 rlineto
          -417 -36 callgsubr
        </CharString>
        <CharString name="Delta">
          -44 callgsubr
        </CharString>
        <CharString name="E">
          -61 callgsubr
          24 callsubr
          hintmask 00000000
          hintmask 11101000
          38 hmoveto
          8 callgsubr
          88 640 471 -13 10 125 -466 -6 80 603 497 -16 36 -207 rlineto
          86 hlineto
          7 310 rlineto
          -911 hlineto
          hintmask 11011000
          -10 -81 132 -19 -180 -1337 -147 -24 rlineto
          endchar
        </CharString>
        <CharString name="Eacute">
          -61 callgsubr
          142 -21 24 callsubr
          -447 381 -100 callgsubr
          hintmask 00001010
          713 1545 -92 callsubr
        </CharString>
        <CharString name="Ebreve">
          -61 callgsubr
          105 117 24 callsubr
          -675 89 -100 callgsubr
          hintmask 00001010
          730 1566 -96 callsubr
        </CharString>
        <CharString name="Ecaron">
          -61 callgsubr
          84 386 24 callsubr
          -697 668 -100 callgsubr
          hintmask 00001010
          641 1545 -84 callgsubr
        </CharString>
        <CharString name="Ecircumflex">
          -61 callgsubr
          156 -21 22 -21 24 callsubr
          -727 682 hintmask 00000000
          hintmask 11100010
          38 hmoveto
          8 callgsubr
          88 640 471 -13 10 125 -466 -6 80 603 497 -16 36 -207 rlineto
          86 hlineto
          7 310 rlineto
          -911 hlineto
          hintmask 11010010
          -10 -81 132 -19 -180 -1337 -147 -24 rlineto
          hintmask 00000000
          439 1550 -51 callgsubr
        </CharString>
        <CharString name="Edieresis">
          -61 callgsubr
          187 221 24 callsubr
          -686 -15 callsubr
          -100 callgsubr
          hintmask 00001011
          939 1648 -97 callgsubr
        </CharString>
        <CharString name="Edotaccent">
          -61 callgsubr
          -3 callgsubr
          38 1124 -476 213 -100 callgsubr
          hintmask 00001010
          730 1632 -95 callgsubr
        </CharString>
        <CharString name="Egrave">
          -61 callgsubr
          142 -21 24 callsubr
          -681 377 -100 callgsubr
          hintmask 00001010
          766 1545 -74 callgsubr
        </CharString>
        <CharString name="Emacron">
          -61 callgsubr
          215 119 24 callsubr
          -655 514 -100 callgsubr
          hintmask 00001010
          461 1676 -70 callgsubr
        </CharString>
        <CharString name="Eng">
          320 -53 callgsubr
          hstem
          30 1542 vstem
          30 hmoveto
          443 hlineto
          6 70 -164 24 156 1242 64 -200 512 -1137 -30 -150 -147 -95 -157 -48 rlinecurve
          29 -71 186 36 237 90 33 239 rlinecurve
          214 1430 152 19 8 81 rlineto
          -435 hlineto
          -10 -81 151 -18 -166 -1259 -66 196 -515 1162 rlineto
          -301 hlineto
          -14 -81 145 -19 -184 -1338 -141 -23 rlineto
          endchar
        </CharString>
        <CharString name="Eogonek">
          9 -416 103 313 103 624 115 593 95 -81 81 hstemhm
          536 257 hintmask 00000000
          hintmask 11110100
          38 hmoveto
          854 hlineto
          -71 -40 -84 -45 -63 -89 -34 callsubr
          -21 77 rlineto
          -42 -51 22 callsubr
          2 78 96 77 97 71 rrcurveto
          81 hlineto
          89 316 -84 25 -113 -228 -608 -19 88 640 471 -13 10 125 -466 -6 80 603 497 -16 36 -207 rlineto
          86 hlineto
          7 310 rlineto
          -911 hlineto
          hintmask 11101100
          -10 -81 132 -19 -180 -1337 -147 -24 rlineto
          endchar
        </CharString>
        <CharString name="Eth">
          -67 callsubr
          -164 hlineto
          -13 -105 rlineto
          163 0 callgsubr
          417 hlineto
          13 105 rlineto
          -416 -36 callgsubr
        </CharString>
        <CharString name="Euro">
          187 -16 95 489 106 240 106 430 96 hstem
          236 158 vstem
          26 568 rmoveto
          210 hlineto
          -292 16 113 -292 342 hhcurveto
          133 107 35 25 75 hvcurveto
          49 13 39 12 38 1 46 269 rcurveline
          -97 1 -63 -171 rlineto
          -56 -46 -118 -34 -140 hhcurveto
          -241 -87 199 290 -8 hvcurveto
          556 hlineto
          10 106 rlineto
          -565 hlineto
          2 84 8 81 14 75 rrcurveto
          594 hlineto
          17 106 rlineto
          -587 hlineto
          258 72 151 172 225 hhcurveto
          154 77 -38 -33 39 hvcurveto
          16 -125 rlineto
          87 hlineto
          51 218 -17 4 -31 9 -24 7 rlinecurve
          23 -71 -89 31 -150 hhcurveto
          -278 -253 -201 -325 -110 hvcurveto
          -185 hlineto
          -16 -106 rlineto
          171 hlineto
          -17 -75 -9 -80 -2 -85 rrcurveto
          -196 hlineto
          endchar
        </CharString>
        <CharString name="F">
          16 callgsubr
          hstemhm
          39 1143 hintmask 00000000
          hintmask 11101000
          -37 callsubr
          hintmask 11011000
          -10 -81 1 callsubr
          -24 rlineto
          endchar
        </CharString>
        <CharString name="G">
          -16 callgsubr
          hstem
          101 171 vstem
          -101 callsubr
          endchar
        </CharString>
        <CharString name="Gbreve">
          -16 callgsubr
          89 117 hstemhm
          101 171 280 89 hintmask 11101000
          -101 callsubr
          hintmask 00010100
          224 1652 -96 callsubr
        </CharString>
        <CharString name="Gcircumflex">
          -16 callgsubr
          140 -14 callgsubr
          101 171 228 682 hintmask 11100100
          -101 callsubr
          hintmask 00000000
          -67 1636 -51 callsubr
        </CharString>
        <CharString name="Gcommaaccent">
          160 -539 -21 543 94 546 100 728 95 hstemhm
          101 171 327 152 hintmask 01111000
          -101 callsubr
          hintmask 10000100
          -85 -130 -102 callsubr
          endchar
        </CharString>
        <CharString name="Gdotaccent">
          -16 callgsubr
          155 -31 callsubr
          101 171 479 213 hintmask 11101000
          -101 callsubr
          hintmask 00010100
          224 1718 -95 callgsubr
        </CharString>
        <CharString name="H">
          333 0 69 657 104 619 81 hstem
          41 1504 vstem
          -65 callgsubr
          endchar
        </CharString>
        <CharString name="HT">
          endchar
        </CharString>
        <CharString name="Hbar">
          333 0 69 586 104 267 104 319 81 hstem
          41 1520 vstem
          41 hmoveto
          466 hlineto
          7 70 -156 24 75 561 rlineto
          699 hlineto
          -75 -560 -160 -25 -7 -70 rlineto
          473 hlineto
          8 69 -154 26 125 931 rlineto
          207 hlineto
          12 104 rlineto
          -205 hlineto
          40 300 140 -12 callsubr
          -450 hlineto
          -7 -81 148 -19 -40 -300 rlineto
          -699 hlineto
          41 300 -18 callsubr
          -41 -300 rlineto
          -224 hlineto
          -12 -104 rlineto
          222 hlineto
          -125 -932 -149 -25 rlineto
          399 690 rmoveto
          36 267 rlineto
          699 hlineto
          -36 -267 rlineto
          endchar
        </CharString>
        <CharString name="Hcircumflex">
          333 0 69 657 104 619 81 156 -14 callgsubr
          41 1504 -990 682 hintmask 11100100
          -65 callgsubr
          hintmask 00000000
          557 1550 -51 callsubr
        </CharString>
        <CharString name="I">
          -484 -53 callgsubr
          hstem
          54 656 vstem
          -98 callgsubr
          endchar
        </CharString>
        <CharString name="IJ">
          210 -53 callgsubr
          hstemhm
          54 656 -163 895 hintmask 11100000
          -98 callgsubr
          hintmask 01010000
          852 13 -70 callsubr
          endchar
        </CharString>
        <CharString name="Iacute">
          -484 -53 callgsubr
          -11 callgsubr
          54 656 -247 381 -88 callsubr
          446 1545 -92 callsubr
        </CharString>
        <CharString name="Ibreve">
          -484 -53 callgsubr
          105 117 hstemhm
          54 656 -475 89 -88 callsubr
          463 1566 -96 callsubr
        </CharString>
        <CharString name="Icircumflex">
          -484 -53 callgsubr
          156 -14 callgsubr
          54 656 -527 682 hintmask 11001000
          -98 callgsubr
          hintmask 00000000
          172 1550 -71 callsubr
        </CharString>
        <CharString name="Idieresis">
          -484 -53 callgsubr
          187 -31 callsubr
          54 656 -486 -15 callsubr
          -87 callgsubr
          hintmask 00101100
          672 1648 -97 callgsubr
        </CharString>
        <CharString name="Idotaccent">
          -484 -53 callgsubr
          -3 callgsubr
          54 656 -276 213 -88 callsubr
          463 1632 -95 callgsubr
        </CharString>
        <CharString name="Igrave">
          -484 -53 callgsubr
          -11 callgsubr
          54 656 -481 377 -88 callsubr
          499 1545 -74 callgsubr
        </CharString>
        <CharString name="Imacron">
          -484 -53 callgsubr
          215 119 hstemhm
          54 656 -455 514 -88 callsubr
          194 1676 -70 callgsubr
        </CharString>
        <CharString name="Iogonek">
          -484 -416 103 313 69 1380 81 hstemhm
          -16 155 121 99 0 347 hintmask 00000000
          hintmask 11111000
          54 hmoveto
          185 hlineto
          -71 -40 -85 -45 -63 -89 -34 callsubr
          -21 77 rlineto
          -42 -51 22 callsubr
          1 78 97 77 97 71 rrcurveto
          186 hlineto
          7 70 -156 24 180 -1 callsubr
          rlineto
          hintmask 11110100
          -55 callsubr
          hintmask 11111000
          13 callsubr
          -180 10 callgsubr
          endchar
        </CharString>
        <CharString name="Itilde">
          -484 -53 callgsubr
          159 3 callgsubr
          54 656 -516 707 hintmask 11001000
          -98 callgsubr
          hintmask 00000000
          172 1662 -81 callsubr
        </CharString>
        <CharString name="J">
          -507 1449 81 hstem
          -170 895 vstem
          196 82 -70 callsubr
          endchar
        </CharString>
        <CharString name="Jcircumflex">
          -507 1449 81 156 -14 callgsubr
          -170 895 -541 682 hintmask 10010000
          196 82 -70 callsubr
          hintmask 00000000
          38 1537 rmoveto
          335 254 rlineto
          hintmask 00101000
          -79 callsubr
          hintmask 01001000
          -321 -334 rlineto
          endchar
        </CharString>
        <CharString name="K">
          151 -53 callgsubr
          hstem
          37 1378 vstem
          -69 callgsubr
          endchar
        </CharString>
        <CharString name="Kcommaaccent">
          151 -537 -21 558 69 1380 81 hstemhm
          37 1378 -787 152 hintmask 01110000
          -69 callgsubr
          hintmask 10001000
          517 -214 -102 callsubr
          endchar
        </CharString>
        <CharString name="L">
          -28 0 21 callgsubr
          hstem
          38 1078 vstem
          -86 callgsubr
          endchar
        </CharString>
        <CharString name="LF">
          endchar
        </CharString>
        <CharString name="Lacute">
          -28 0 21 callgsubr
          144 -21 hstemhm
          38 1078 -664 381 hintmask 11010000
          -86 callgsubr
          hintmask 00101000
          451 1546 -92 callsubr
        </CharString>
        <CharString name="Lcaron">
          -28 0 98 889 635 -173 81 hstemhm
          38 1078 -147 143 hintmask 10110000
          -86 callgsubr
          hintmask 01001000
          904 917 -82 callgsubr
        </CharString>
        <CharString name="Lcommaaccent">
          -28 -537 -21 558 21 callgsubr
          hstemhm
          38 1078 -580 152 hintmask 01110000
          -86 callgsubr
          hintmask 10001000
          424 -215 -102 callsubr
          endchar
        </CharString>
        <CharString name="Ldot">
          -28 0 21 callgsubr
          hstemhm
          38 1078 vstemhm
          -86 callgsubr
          861 791 -85 callsubr
          endchar
        </CharString>
        <CharString name="Lslash">
          -29 2 21 callgsubr
          hstem
          38 1078 vstem
          38 2 rmoveto
          982 hlineto
          96 431 -94 18 -130 -346 -538 -9 75 556 478 203 -28 102 -434 -187 90 662 178 -12 callsubr
          -473 hlineto
          -10 -81 135 -19 -99 -736 -221 -95 29 -95 176 74 -65 -484 -149 -24 rlineto
          endchar
        </CharString>
        <CharString name="M">
          15 callsubr
          hstemhm
          -61 1907 hintmask 00000000
          hintmask 10011000
          6 callsubr
          hintmask 01101000
          -13 callsubr
          hintmask 10011000
          -53 callsubr
          endchar
        </CharString>
        <CharString name="N">
          320 -53 callgsubr
          hstem
          24 1548 vstem
          -95 callsubr
          endchar
        </CharString>
        <CharString name="Nacute">
          320 -53 callgsubr
          -11 callgsubr
          24 1548 -704 381 hintmask 11010000
          -95 callsubr
          hintmask 00101000
          881 1545 -92 callsubr
        </CharString>
        <CharString name="Ncaron">
          320 -53 callgsubr
          84 386 hstemhm
          24 1548 -954 668 hintmask 11010000
          -95 callsubr
          hintmask 00101000
          809 1545 -84 callgsubr
        </CharString>
        <CharString name="Ncommaaccent">
          320 -539 -21 560 69 1380 81 hstemhm
          24 1548 -921 152 hintmask 01110000
          -95 callsubr
          hintmask 10001000
          553 -216 -102 callsubr
          endchar
        </CharString>
        <CharString name="Ntilde">
          320 -53 callgsubr
          159 3 callgsubr
          24 1548 -973 707 hintmask 11001000
          -95 callsubr
          hintmask 00000000
          607 1662 -81 callsubr
        </CharString>
        <CharString name="O">
          -45 callsubr
          hstem
          106 167 866 166 vstem
          -105 callgsubr
          endchar
        </CharString>
        <CharString name="OE">
          936 -20 96 -76 103 624 115 595 93 -81 101 hstemhm
          106 162 hintmask 00000000
          hintmask 10110100
          616 -20 rmoveto
          234 190 139 221 115 hvcurveto
          hintmask 01110100
          -44 -340 rlineto
          885 hlineto
          89 316 -84 25 -113 -228 -605 -19 84 640 472 -13 10 125 -473 -6 86 603 498 -12 36 -211 rlineto
          86 hlineto
          7 310 rlineto
          -780 hlineto
          -54 -418 rlineto
          hintmask 01101100
          253 -47 -134 185 -257 hhcurveto
          -402 -319 -375 -534 10 hvcurveto
          hintmask 10110100
          -401 7 198 -260 305 hhcurveto
          22 96 rmoveto
          -255 2 -109 222 -6 382 rrcurveto
          hintmask 01101100
          427 -5 229 340 298 hhcurveto
          233 116 -214 -363 6 hvcurveto
          hintmask 10110100
          8 -456 -226 -341 -289 1 rrcurveto
          endchar
        </CharString>
        <CharString name="Oacute">
          -45 callsubr
          122 -21 hstemhm
          106 167 507 381 -22 166 hintmask 11010100
          -105 callgsubr
          hintmask 00101000
          196 1538 -92 callsubr
        </CharString>
        <CharString name="Obreve">
          -45 callsubr
          85 117 hstemhm
          106 167 279 89 498 166 hintmask 11010100
          -105 callgsubr
          hintmask 00101000
          213 1559 -96 callsubr
        </CharString>
        <CharString name="Ocircumflex">
          -45 callsubr
          136 -14 callgsubr
          106 167 227 682 -43 166 hintmask 11001010
          -105 callgsubr
          hintmask 00000000
          -78 1543 -71 callsubr
        </CharString>
        <CharString name="Odieresis">
          -45 callsubr
          167 -31 callsubr
          106 167 268 -15 callsubr
          -33 166 hintmask 11010010
          -105 callgsubr
          hintmask 00101100
          422 1641 -97 callgsubr
        </CharString>
        <CharString name="Ograve">
          -45 callsubr
          122 -21 hstemhm
          106 167 273 377 216 166 hintmask 11010100
          -105 callgsubr
          hintmask 00101000
          249 1538 -74 callgsubr
        </CharString>
        <CharString name="Ohungarumlaut">
          -45 callsubr
          34 412 hstemhm
          106 167 286 833 -253 166 hintmask 11010100
          -105 callgsubr
          hintmask 00101000
          388 1509 -63 callgsubr
        </CharString>
        <CharString name="Omacron">
          -45 callsubr
          195 119 hstemhm
          106 167 299 514 53 166 hintmask 11010100
          -105 callgsubr
          hintmask 00101000
          -56 1669 -70 callgsubr
        </CharString>
        <CharString name="Omega">
          -83 callgsubr
        </CharString>
        <CharString name="Oslash">
          152 -18 96 1378 96 hstem
          107 167 866 166 vstem
          57 -83 rmoveto
          68 -42 162 238 rlineto
          -84 82 108 -47 130 hhcurveto
          398 309 398 511 -8 hvcurveto
          -4 198 -49 178 -98 122 157 232 rcurveline
          -69 40 -146 -212 rlineto
          65 -75 -97 38 -117 hhcurveto
          -393 -318 -395 -514 10 hvcurveto
          4 -192 44 -159 79 -114 rrcurveto
          97 129 rmoveto
          -37 100 -18 128 -2 149 rrcurveto
          427 -7 225 345 293 hhcurveto
          103 76 -41 -71 55 hvcurveto
          -646 -1125 rmoveto
          692 1047 50 -107 21 -145 4 -164 rlinecurve
          9 -446 -231 -327 -289 1 -117 1 -82 51 -57 89 rrcurveto
          endchar
        </CharString>
        <CharString name="Otilde">
          -45 callsubr
          139 3 callgsubr
          106 167 238 707 -79 166 hintmask 11001010
          -105 callgsubr
          hintmask 00000000
          -78 1655 -81 callsubr
        </CharString>
        <CharString name="P">
          11 callsubr
          hstemhm
          1064 163 hintmask 00000000
          hintmask 11001100
          -35 callsubr
          hintmask 11100100
          -105 -82 -17 -106 hhcurveto
          -233 hlineto
          hintmask 11010100
          -10 -81 rlineto
          hintmask 11100100
          4 callgsubr
          hintmask 11001100
          -25 callsubr
          hintmask 11100100
          -59 -71 7 10 -61 hvcurveto
          endchar
        </CharString>
        <CharString name="Q">
          152 -358 141 199 95 -90 90 1378 96 hstemhm
          107 167 866 166 hintmask 00000000
          hintmask 11011100
          584 -18 rmoveto
          -231 -26 188 -109 181 hhcurveto
          -14 callsubr
          41 40 49 hvcurveto
          -2 111 rlineto
          -29 -58 -94 -22 -58 hhcurveto
          hintmask 10111100
          -132 -167 30 174 -5 hvcurveto
          358 49 267 378 -7 476 rrcurveto
          363 -6 -162 298 -330 hhcurveto
          -393 -318 -395 -514 10 hvcurveto
          hintmask 11011100
          8 -391 178 -257 291 -12 rrcurveto
          hintmask 10111100
          45 95 rmoveto
          -255 2 -94 242 -6 362 rrcurveto
          427 -7 225 345 293 hhcurveto
          263 85 -263 -343 7 hvcurveto
          9 -446 -231 -327 -289 1 rrcurveto
          endchar
        </CharString>
        <CharString name="R">
          123 -1 -36 callsubr
          hstemhm
          1053 159 hintmask 00000000
          hintmask 01100101
          -65 callsubr
          hintmask 10100101
          -79 callgsubr
          hintmask 10100011
          -4 callsubr
          hintmask 10101001
          -10 -81 rlineto
          hintmask 01110001
          -43 callgsubr
          hintmask 10100101
          -62 callgsubr
          hintmask 01110001
          -4 callgsubr
          endchar
        </CharString>
        <CharString name="RS">
          endchar
        </CharString>
        <CharString name="Racute">
          123 -1 -36 callsubr
          162 -21 hstemhm
          768 381 -96 -87 callsubr
          376 848 -92 callsubr
        </CharString>
        <CharString name="Rcaron">
          123 -1 -36 callsubr
          104 386 hstemhm
          518 668 -133 -87 callsubr
          304 848 -84 callgsubr
        </CharString>
        <CharString name="Rcommaaccent">
          123 -539 -21 559 -36 callsubr
          hstemhm
          640 152 261 159 -23 callgsubr
          hintmask 0011001001000000
          -65 callsubr
          hintmask 0101001001000000
          -79 callgsubr
          hintmask 0101000101000000
          -4 callsubr
          hintmask 0101010001000000
          -10 -81 rlineto
          hintmask 0011100001000000
          -43 callgsubr
          hintmask 0101001001000000
          -62 callgsubr
          hintmask 0011100001000000
          -4 callgsubr
          hintmask 1000000010000000
          137 -913 -102 callsubr
          endchar
        </CharString>
        <CharString name="S">
          -7 callsubr
          hstem
          221 157 418 158 vstem
          50 65 rmoveto
          -37 48 172 -51 185 hhcurveto
          278 226 165 282 -5 hvcurveto
          -104 callsubr
          endchar
        </CharString>
        <CharString name="Sacute">
          -7 callsubr
          122 -21 hstemhm
          221 157 274 381 -237 158 hintmask 11010100
          50 65 rmoveto
          -37 48 172 -51 185 hhcurveto
          278 226 165 282 -5 hvcurveto
          -104 callsubr
          hintmask 00101000
          605 1271 -92 callsubr
        </CharString>
        <CharString name="Scaron">
          -7 callsubr
          64 386 hstemhm
          221 157 24 668 -274 158 hintmask 11010100
          50 65 rmoveto
          -37 48 172 -51 185 hhcurveto
          278 226 165 282 -5 hvcurveto
          -104 callsubr
          hintmask 00101000
          533 1271 -84 callgsubr
        </CharString>
        <CharString name="Scedilla">
          -107 -464 116 326 96 1381 95 hstem
          221 157 41 108 269 158 vstem
          50 65 rmoveto
          44 -35 152 -45 170 -7 5 -29 2 -36 -4 -55 -72 callgsubr
          6 69 -4 60 -14 45 251 21 195 160 -4 263 -104 callsubr
          endchar
        </CharString>
        <CharString name="Scircumflex">
          -7 callsubr
          136 -14 callgsubr
          221 157 -6 682 -258 158 hintmask 11001010
          50 65 rmoveto
          -37 48 172 -51 185 hhcurveto
          278 226 165 282 -5 hvcurveto
          -104 callsubr
          hintmask 00000000
          331 1276 -71 callsubr
        </CharString>
        <CharString name="T">
          34 0 5 callgsubr
          hstemhm
          107 1211 hintmask 00000000
          hintmask 11010000
          221 hmoveto
          652 -77 callsubr
          hintmask 10110000
          -38 callgsubr
          endchar
        </CharString>
        <CharString name="Tbar">
          34 0 84 647 105 597 97 -87 87 hstemhm
          107 1211 hintmask 00000000
          hintmask 11101000
          221 hmoveto
          652 hlineto
          6 75 -249 19 89 637 rlineto
          303 hlineto
          14 105 rlineto
          -302 hlineto
          86 607 365 -20 -30 -359 88 1 75 465 rlineto
          -1130 hlineto
          -81 -466 rlineto
          91 hlineto
          94 358 rlineto
          hintmask 11011000
          367 21 -86 -607 rlineto
          -279 hlineto
          -14 -105 rlineto
          278 hlineto
          -89 -637 -241 -19 rlineto
          endchar
        </CharString>
        <CharString name="Tcaron">
          34 0 5 callgsubr
          84 386 hstemhm
          107 1211 -863 668 hintmask 00000000
          hintmask 11001000
          221 hmoveto
          652 -77 callsubr
          hintmask 10101000
          -38 callgsubr
          hintmask 00010100
          449 1539 -84 callgsubr
        </CharString>
        <CharString name="Thorn">
          -13 0 69 245 91 712 96 236 81 hstem
          1021 162 vstem
          38 hmoveto
          466 hlineto
          7 70 -156 24 30 225 rlineto
          -2 41 67 -3 100 hhcurveto
          324 266 199 316 245 -139 139 -320 -67 -84 -6 -9 -69 hvcurveto
          31 232 -18 callsubr
          -180 10 callgsubr
          353 346 rmoveto
          93 687 rlineto
          8 52 74 7 55 hhcurveto
          266 82 -102 -210 1 hvcurveto
          -216 1 -150 -184 -281 hhcurveto
          -72 -63 3 7 -58 hvcurveto
          endchar
        </CharString>
        <CharString name="U">
          -49 callsubr
          hstem
          -2 callgsubr
          vstem
          -107 callgsubr
          endchar
        </CharString>
        <CharString name="US">
          endchar
        </CharString>
        <CharString name="Uacute">
          -49 callsubr
          142 -21 14 callsubr
          436 381 hintmask 11010000
          -107 callgsubr
          hintmask 00101000
          643 1188 -92 callsubr
        </CharString>
        <CharString name="Ubreve">
          -49 callsubr
          105 117 14 callsubr
          208 89 hintmask 11010000
          -107 callgsubr
          hintmask 00101000
          660 1209 -96 callsubr
        </CharString>
        <CharString name="Ucircumflex">
          -49 callsubr
          156 -21 22 -21 14 callsubr
          156 682 hintmask 11001000
          -107 callgsubr
          hintmask 00000000
          369 1193 -71 callsubr
        </CharString>
        <CharString name="Udieresis">
          -49 callsubr
          187 221 14 callsubr
          197 -15 callsubr
          hintmask 11010000
          -107 callgsubr
          hintmask 00101100
          869 1291 -97 callgsubr
        </CharString>
        <CharString name="Ugrave">
          -49 callsubr
          142 -21 14 callsubr
          202 377 hintmask 11010000
          -107 callgsubr
          hintmask 00101000
          696 1188 -74 callgsubr
        </CharString>
        <CharString name="Uhungarumlaut">
          -49 callsubr
          54 412 14 callsubr
          215 833 hintmask 11010000
          -107 callgsubr
          hintmask 00101000
          835 1159 -63 callgsubr
        </CharString>
        <CharString name="Umacron">
          -49 callsubr
          215 119 14 callsubr
          228 514 hintmask 11010000
          -107 callgsubr
          hintmask 00101000
          391 1319 -70 callgsubr
        </CharString>
        <CharString name="Uogonek">
          195 -416 103 293 89 1381 80 hstemhm
          177 422 -421 163 103 188 hintmask 00000000
          hintmask 11101100
          178 426 rmoveto
          -276 5 159 -170 286 12 12 1 12 hhcurveto
          -62 -36 -69 -43 -53 -76 -34 callsubr
          -22 77 rlineto
          hintmask 11110000
          -42 -50 -52 -26 -52 hhcurveto
          -36 -31 27 60 2 hvcurveto
          1 58 72 83 80 74 266 41 156 185 53 412 120 804 rcurveline
          129 18 9 81 rlineto
          -404 hlineto
          -9 -81 135 -20 -119 -802 rlineto
          -378 -45 -141 -180 -251 hhcurveto
          hintmask 11101100
          -205 -101 133 216 -4 hvcurveto
          -1 57 3 59 8 73 123 822 rcurveline
          154 21 9 80 rlineto
          hintmask 11110000
          -455 hlineto
          -10 -80 139 -19 rlineto
          hintmask 11101100
          -125 -838 -6 -59 -3 -56 1 -52 rlinecurve
          endchar
        </CharString>
        <CharString name="Uring">
          -49 callsubr
          -49 65 378 66 14 callsubr
          700 106 hintmask 11001000
          -107 callgsubr
          hintmask 00110100
          637 1055 -55 callgsubr
        </CharString>
        <CharString name="Utilde">
          -49 callsubr
          159 3 callgsubr
          178 163 167 707 hintmask 11001000
          -107 callgsubr
          hintmask 00000000
          369 1305 -81 callsubr
        </CharString>
        <CharString name="V">
          11 0 -21 1451 100 -81 81 hstemhm
          88 1288 2 callgsubr
          443 -21 rmoveto
          140 10 673 1442 112 19 8 80 rlineto
          -410 hlineto
          -8 -80 rlineto
          hintmask 11010000
          160 -20 -452 -981 -117 -316 -32 316 -132 981 rlineto
          hintmask 10110000
          183 -12 callsubr
          -481 hlineto
          -8 -81 130 -19 rlineto
          endchar
        </CharString>
        <CharString name="W">
          -46 callsubr
          hstemhm
          33 1970 hintmask 00000000
          hintmask 01101000
          381 -10 rmoveto
          158 hlineto
          429 1077 103 -1077 rlineto
          161 hlineto
          624 1439 133 20 14 81 rlineto
          -428 hlineto
          hintmask 10011000
          -9 -81 157 -20 -440 -1031 -91 -262 -22 299 rlineto
          hintmask 01101000
          -99 997 177 17 17 81 rlineto
          -482 hlineto
          hintmask 10011000
          -9 -81 145 -17 15 -146 -364 -912 -74 -238 -39 299 rlineto
          hintmask 01101000
          -124 998 184 16 9 81 rlineto
          -483 hlineto
          hintmask 01011000
          -10 -81 147 -20 rlineto
          endchar
        </CharString>
        <CharString name="Wacute">
          -46 callsubr
          -11 callgsubr
          33 1970 -1011 381 -89 callsubr
          hintmask 00001010
          856 185 -92 callsubr
        </CharString>
        <CharString name="Wcircumflex">
          -46 callsubr
          156 -14 callgsubr
          33 1970 -1291 682 hintmask 00000000
          hintmask 01100010
          381 -10 rmoveto
          158 hlineto
          429 1077 103 -1077 rlineto
          161 hlineto
          624 1439 133 20 14 81 rlineto
          -428 hlineto
          hintmask 10010010
          -9 -81 157 -20 -440 -1031 -91 -262 -22 299 rlineto
          hintmask 01100010
          -99 997 177 17 17 81 rlineto
          -482 hlineto
          hintmask 10010010
          -9 -81 145 -17 15 -146 -364 -912 -74 -238 -39 299 rlineto
          hintmask 01100010
          -124 998 184 16 9 81 rlineto
          -483 hlineto
          hintmask 01010010
          -10 -81 147 -20 rlineto
          hintmask 00000000
          582 190 -51 callgsubr
        </CharString>
        <CharString name="Wdieresis">
          -46 callsubr
          187 -31 callsubr
          33 1970 -1250 -15 callsubr
          -89 callsubr
          hintmask 00001011
          1082 288 -97 callgsubr
        </CharString>
        <CharString name="Wgrave">
          -46 callsubr
          -11 callgsubr
          33 1970 -1245 377 -89 callsubr
          hintmask 00001010
          909 185 -74 callgsubr
        </CharString>
        <CharString name="X">
          86 0 70 1379 81 hstem
          -65 1457 vstem
          -65 hmoveto
          461 hlineto
          7 69 -168 25 408 579 242 -580 -176 -23 -6 -70 rlineto
          524 hlineto
          7 70 -163 24 -319 685 488 652 144 18 8 81 rlineto
          -460 hlineto
          -9 -81 162 -19 -385 -553 -220 554 169 18 9 81 rlineto
          -503 hlineto
          -8 -81 149 -22 297 -654 -515 -680 -134 -23 rlineto
          endchar
        </CharString>
        <CharString name="Y">
          -24 callgsubr
          hstemhm
          70 1280 2 callgsubr
          239 hmoveto
          588 hlineto
          7 70 -223 24 67 492 547 845 113 18 12 81 rlineto
          -412 hlineto
          -9 -81 rlineto
          hintmask 11010000
          147 -19 -375 -608 -78 -137 -42 137 -220 608 rlineto
          hintmask 10110000
          175 19 10 81 rlineto
          -468 hlineto
          -8 -81 116 -19 339 -844 -67 -492 -213 -24 rlineto
          endchar
        </CharString>
        <CharString name="Yacute">
          -24 callgsubr
          -11 callgsubr
          70 1280 -670 381 -84 callsubr
          hintmask 00010100
          479 1544 -92 callsubr
        </CharString>
        <CharString name="Ycircumflex">
          -24 callgsubr
          156 -14 callgsubr
          70 1280 -950 682 hintmask 00000000
          hintmask 10100100
          239 hmoveto
          588 hlineto
          7 70 -223 24 67 492 547 845 113 18 12 81 rlineto
          -412 hlineto
          -9 -81 rlineto
          hintmask 11000100
          147 -19 -375 -608 -78 -137 -42 137 -220 608 rlineto
          hintmask 10100100
          175 19 10 81 rlineto
          -468 hlineto
          -8 -81 116 -19 339 -844 -67 -492 -213 -24 rlineto
          hintmask 00000000
          205 1549 -51 callsubr
        </CharString>
        <CharString name="Ydieresis">
          -24 callgsubr
          187 -31 callsubr
          70 1280 -909 -15 callsubr
          -84 callsubr
          hintmask 00010110
          705 1647 -97 callgsubr
        </CharString>
        <CharString name="Ygrave">
          -24 callgsubr
          -11 callgsubr
          70 1280 -904 377 -84 callsubr
          hintmask 00010100
          532 1544 -74 callgsubr
        </CharString>
        <CharString name="Z">
          -10 callgsubr
          hstemhm
          3 1214 hintmask 00000000
          hintmask 11010000
          25 hmoveto
          991 hlineto
          93 353 -111 25 -121 -272 -690 -20 104 121 rlineto
          hintmask 10110000
          926 1254 rlineto
          hintmask 11010000
          -21 69 rlineto
          -928 hlineto
          -56 -344 108 -19 90 265 626 6 -125 -145 -908 -1220 rlineto
          endchar
        </CharString>
        <CharString name="Zacute">
          -10 callgsubr
          -11 callgsubr
          3 1214 -525 381 -75 callsubr
          733 1541 -92 callsubr
        </CharString>
        <CharString name="Zcaron">
          -10 callgsubr
          84 386 hstemhm
          3 1214 -775 668 -75 callsubr
          661 1541 -84 callgsubr
        </CharString>
        <CharString name="Zdotaccent">
          -10 callgsubr
          -3 callgsubr
          3 1214 -554 213 -75 callsubr
          750 1628 -95 callgsubr
        </CharString>
        <CharString name="a">
          -37 callgsubr
          hstem
          66 164 vstem
          -107 callsubr
          endchar
        </CharString>
        <CharString name="aacute">
          -37 callgsubr
          92 -1 callgsubr
          66 164 381 435 hintmask 11010000
          -107 callsubr
          hintmask 00101000
          247 1161 -91 callsubr
        </CharString>
        <CharString name="abreve">
          -37 callgsubr
          141 118 hstemhm
          66 164 197 89 hintmask 11010000
          -107 callsubr
          hintmask 00101000
          309 1210 -96 callgsubr
        </CharString>
        <CharString name="acircumflex">
          -37 callgsubr
          63 424 hstemhm
          66 164 123 685 hintmask 11010000
          -107 callsubr
          hintmask 00101000
          -8 1134 -91 callgsubr
        </CharString>
        <CharString name="acute">
          -642 1255 474 hstem
          57 435 vstem
          100 1255 -91 callsubr
        </CharString>
        <CharString name="acute.cap">
          -674 1672 -21 hstem
          71 381 vstem
          115 1614 -92 callsubr
        </CharString>
        <CharString name="adieresis">
          -37 callgsubr
          hstemhm
          66 164 vstemhm
          -107 callsubr
          522 1312 -98 callsubr
        </CharString>
        <CharString name="ae">
          503 -20 112 375 90 507 98 -93 93 hstemhm
          73 160 533 167 524 23 callsubr
          hintmask 11101110
          -71 callgsubr
          hintmask 11011110
          5 callsubr
          hintmask 11101110
          -49 callgsubr
          endchar
        </CharString>
        <CharString name="aeacute">
          503 -20 112 375 90 507 98 -93 93 93 -1 callgsubr
          73 160 533 167 -136 435 225 164 -23 callgsubr
          hintmask 1110011010000000
          -71 callgsubr
          hintmask 1101011010000000
          5 callsubr
          hintmask 1110011010000000
          -49 callgsubr
          hintmask 0000100100000000
          448 1161 -91 callsubr
        </CharString>
        <CharString name="afii61352">
          1295 0 119 452 83 772 107 -88 79 -74 83 hstemhm
          1575 159 545 159 hintmask 00000000
          hintmask 11001110
          1579 1059 rmoveto
          -297 -30 146 -191 259 hhcurveto
          195 251 139 339 34 hvcurveto
          297 30 -145 187 -259 hhcurveto
          -196 -252 -135 -339 -33 hvcurveto
          -1551 -1059 rmoveto
          491 hlineto
          5 69 -198 23 119 1250 120 -262 482 -1080 rlineto
          179 hlineto
          143 1426 179 19 rlineto
          hintmask 11010110
          6 79 rlineto
          -478 hlineto
          hintmask 11001110
          -6 -79 rlineto
          hintmask 11100110
          173 -19 -119 -1260 -123 319 rlineto
          hintmask 11010110
          -466 1039 rlineto
          -355 hlineto
          hintmask 11001110
          -6 -79 rlineto
          hintmask 11100110
          159 -19 -138 -1334 -162 -23 rlineto
          1704 998 rmoveto
          hintmask 11001110
          24 275 133 106 150 2 167 1 88 -164 -23 -247 -24 -271 -127 -113 -156 -2 rrcurveto
          hintmask 11100110
          -167 -1 -88 166 23 248 rrcurveto
          -220 -1067 rmoveto
          773 hlineto
          11 119 rlineto
          -773 hlineto
          endchar
        </CharString>
        <CharString name="agrave">
          -37 callgsubr
          92 -1 callgsubr
          66 164 104 421 hintmask 11010000
          -107 callsubr
          hintmask 00101000
          304 1161 -76 callgsubr
        </CharString>
        <CharString name="amacron">
          -37 callgsubr
          269 119 hstemhm
          66 164 216 514 hintmask 11010000
          -107 callsubr
          hintmask 00101000
          39 1338 -70 callgsubr
        </CharString>
        <CharString name="ampersand">
          348 -20 89 -86 89 -71 -21 682 122 -91 117 656 83 hstemhm
          59 163 98 144 460 156 25 145 221 63 -23 callgsubr
          hintmask 0101011110000000
          59 366 rmoveto
          -271 250 -112 254 144 132 30 58 108 vhcurveto
          hintmask 0011011110000000
          -63 72 89 -28 85 hhcurveto
          36 52 0 19 78 hvcurveto
          hintmask 1001011111100000
          9 70 -51 -3 -64 10 -50 16 rlinecurve
          -50 14 -41 25 -38 29 rrcurveto
          110 103 66 143 180 vvcurveto
          32 -3 27 -5 22 vhcurveto
          -3 24 24 -2 26 hhcurveto
          159 55 111 182 4 hvcurveto
          -63 hlineto
          -125 -19 -54 -46 -114 hhcurveto
          hintmask 0100111111000000
          -98 -84 26 -86 hhcurveto
          -75 -49 -26 -16 -16 hvcurveto
          -108 vlineto
          13 25 56 20 54 hhcurveto
          26 23 -1 -2 22 hvcurveto
          12 -34 11 -46 -59 vvcurveto
          -141 -26 -114 -70 -82 vhcurveto
          -163 146 -149 201 -120 214 rrcurveto
          hintmask 0101011110000000
          236 131 267 118 245 vvcurveto
          136 -77 144 -241 -249 -193 -155 -241 -111 43 -156 50 -111 vhcurveto
          -187 -98 -167 -110 -201 vvcurveto
          484 475 rmoveto
          -35 77 -44 126 129 vvcurveto
          170 108 123 170 146 36 -115 -98 -204 -184 -107 -197 -101 vhcurveto
          -321 -472 rmoveto
          145 99 100 131 86 vhcurveto
          116 -199 102 -172 217 -204 rrcurveto
          -35 -77 -101 -18 -131 hhcurveto
          -211 -145 103 194 hvcurveto
          endchar
        </CharString>
        <CharString name="aogonek">
          -63 -416 103 293 114 -90 -21 1081 99 hstemhm
          66 164 333 155 hintmask 00000000
          hintmask 11011000
          375 -20 rmoveto
          149 124 110 100 70 hvcurveto
          -10 -73 rlineto
          hintmask 10111100
          -6 -84 32 -39 56 -11 -67 -38 -71 -43 -53 -77 -22 -29 -13 -43 -1 -40 rrcurveto
          -59 -3 42 -31 callgsubr
          -37 -31 27 60 3 hvcurveto
          1 89 126 85 109 80 38 28 25 32 6 12 -27 44 rcurveline
          -35 -39 -25 -24 -26 hhcurveto
          -19 -29 19 69 10 hvcurveto
          150 989 -118 -34 -1 -1 rlineto
          19 -56 -73 17 -64 hhcurveto
          -404 -236 -455 -309 hvcurveto
          hintmask 11011000
          -250 97 -169 212 vhcurveto
          32 114 rmoveto
          -116 -61 112 215 271 159 372 292 58 59 -12 -33 44 hvcurveto
          -103 -683 rlineto
          -92 -56 -125 -150 -151 hhcurveto
          endchar
        </CharString>
        <CharString name="approxequal">
          -175 303 133 42 133 138 133 42 133 hstemhm
          49 914 -861 914 hintmask 11001000
          106 350 -66 callgsubr
          hintmask 00110100
          110 386 -66 callgsubr
          endchar
        </CharString>
        <CharString name="aring">
          -37 callgsubr
          93 64 393 65 hstemhm
          66 164 227 105 394 104 hintmask 11001000
          -107 callsubr
          hintmask 00110110
          321 1162 -78 callgsubr
        </CharString>
        <CharString name="asciicircum">
          163 1531 -20 hstem
          182 955 vstem
          182 510 rmoveto
          134 hlineto
          452 840 236 -840 rlineto
          133 hlineto
          -270 1021 rlineto
          -159 hlineto
          endchar
        </CharString>
        <CharString name="asciitilde">
          -64 738 133 42 133 hstem
          156 914 vstem
          213 785 -66 callgsubr
          endchar
        </CharString>
        <CharString name="asterisk">
          165 1146 -20 21 -20 546 -21 hstemhm
          284 988 hintmask 00000000
          hintmask 01110000
          347 829 rmoveto
          292 195 108 80 -29 -123 -64 -333 154 -1 -3 334 -7 123 90 -81 246 -199 92 132 rlineto
          hintmask 10110000
          -287 142 -110 48 123 50 320 139 -62 134 -293 -197 -109 -80 28 127 63 333 -153 1 3 -334 8 -127 -92 80 -252 201 -91 -133 rlineto
          hintmask 01110000
          292 -143 113 -50 -124 -48 -319 -136 rlineto
          endchar
        </CharString>
        <CharString name="at">
          768 -428 111 324 131 853 101 348 105 hstem
          120 123 300 143 486 146 426 124 vstem
          120 334 rmoveto
          -517 324 -245 431 171 153 46 70 92 vhcurveto
          -26 70 rlineto
          -33 -68 -150 -42 -145 hhcurveto
          -365 -294 201 508 547 336 501 552 325 288 -159 -428 -374 -211 -341 -180 -27 -8 29 28 41 -1 100 13 103 hvcurveto
          25 203 48 267 41 154 -134 -25 rcurveline
          39 -58 -113 15 -56 hhcurveto
          -370 -164 -367 -291 -6 hvcurveto
          -297 -6 149 -130 135 hhcurveto
          155 143 258 215 91 hvcurveto
          -24 -104 -14 -109 -47 vvcurveto
          -107 4 -92 93 263 336 329 559 400 -265 236 -404 -590 -489 -487 -724 vhcurveto
          566 111 rmoveto
          244 91 301 294 1 vhcurveto
          57 103 -27 -54 38 hvcurveto
          -349 -78 -206 -423 -136 hhcurveto
          -101 -62 112 195 hvcurveto
          endchar
        </CharString>
        <CharString name="atilde">
          -37 callgsubr
          211 -30 callsubr
          -101 -20 hstemhm
          66 164 140 706 hintmask 11000100
          -107 callsubr
          hintmask 00000000
          1 1322 rmoveto
          hintmask 00101010
          -20 callsubr
          hintmask 00110010
          -78 callsubr
          hintmask 00101010
          -22 callsubr
        </CharString>
        <CharString name="b">
          -54 -20 98 -62 -21 1053 115 387 -20 hstemhm
          894 23 callsubr
          hintmask 01111000
          99 -5 rmoveto
          hintmask 10111000
          80 36 rlineto
          -25 56 105 -26 84 -81 callgsubr
          endchar
        </CharString>
        <CharString name="backslash">
          -347 -362 1959 hstem
          133 715 vstem
          709 -362 rmoveto
          139 hlineto
          -577 1959 rlineto
          -138 hlineto
          endchar
        </CharString>
        <CharString name="bar">
          7 callgsubr
          -186 rmoveto
          138 1966 -138 hlineto
          endchar
        </CharString>
        <CharString name="braceleft">
          -204 -164 109 1661 107 -16 -21 hstemhm
          305 395 2 callgsubr
          305 -48 rmoveto
          -90 -1 36 -26 101 hhcurveto
          110 73 17 21 90 hvcurveto
          0 8 59 2 12 vhcurveto
          -275 hlineto
          94 631 7 43 -20 38 -39 31 rlinecurve
          -33 28 -55 30 -64 30 18 5 107 46 34 17 63 33 35 39 8 54 rrcurveto
          hintmask 11010000
          96 636 rlineto
          276 hlineto
          hintmask 10110000
          15 10 55 0 vhcurveto
          hintmask 11010000
          0 -174 37 -89 -125 -38 -42 -158 -25 vhcurveto
          -81 -546 -4 -27 -24 -27 -49 -21 rlinecurve
          -51 -25 -78 -23 -68 -17 -15 -101 rcurveline
          62 -17 63 -26 47 -28 35 -21 25 -25 -2 -30 rrcurveto
          hintmask 10110000
          0 -89 -604 -1 -23 vhcurveto
          endchar
        </CharString>
        <CharString name="braceright">
          -194 -167 107 -91 21 1731 109 hstemhm
          370 395 hintmask 00000000
          hintmask 01110000
          765 1594 rmoveto
          90 1 -36 26 -101 hhcurveto
          -110 -73 -17 -21 -90 hvcurveto
          0 -8 -59 -2 -12 vhcurveto
          275 hlineto
          -94 -631 -7 -43 20 -38 39 -31 rlinecurve
          33 -28 55 -30 64 -30 -18 -5 -107 -46 -34 -17 -63 -33 -35 -39 -8 -54 rrcurveto
          hintmask 10110000
          -96 -636 rlineto
          -276 hlineto
          hintmask 01110000
          -15 -10 -55 0 vhcurveto
          hintmask 10110000
          0 174 -37 89 125 38 42 158 25 vhcurveto
          81 546 4 27 24 27 49 21 rlinecurve
          51 25 78 23 68 17 15 101 rcurveline
          -62 17 -63 26 -47 28 -35 21 -25 25 2 30 rrcurveto
          hintmask 01110000
          0 89 604 1 23 vhcurveto
          endchar
        </CharString>
        <CharString name="bracketleft">
          -347 -174 108 1672 107 hstem
          202 365 vstem
          205 28 rmoveto
          -2 -33 -1 -29 -27 vvcurveto
          -87 37 -26 99 98 109 16 21 85 vhcurveto
          2 22 3 25 3 22 rrcurveto
          -68 -156 2 -69 hhcurveto
          222 1672 rlineto
          288 hlineto
          11 70 rlineto
          -19 -163 37 -94 hhcurveto
          -127 -38 -47 -153 -20 hvcurveto
          -46 -355 -137 -844 -17 -286 rrcurveto
          endchar
        </CharString>
        <CharString name="bracketright">
          -347 -157 107 1672 108 hstem
          338 365 vstem
          700 1528 rmoveto
          2 33 1 29 27 vvcurveto
          87 -37 26 -99 -98 -109 -16 -21 -85 vhcurveto
          -2 -22 -3 -25 -3 -22 rrcurveto
          68 156 -2 69 hhcurveto
          -222 -1672 rlineto
          -288 hlineto
          -11 -70 rlineto
          19 163 -37 94 hhcurveto
          127 38 47 153 20 hvcurveto
          46 355 137 844 17 286 rrcurveto
          endchar
        </CharString>
        <CharString name="breve">
          -484 1304 118 hstem
          59 89 vstem
          348 1304 -96 callgsubr
        </CharString>
        <CharString name="breve.cap">
          -486 1635 117 hstem
          59 89 vstem
          348 1635 -96 callsubr
        </CharString>
        <CharString name="brokenbar">
          7 callgsubr
          886 rmoveto
          138 894 -138 hlineto
          -1966 vmoveto
          138 894 -138 hlineto
          endchar
        </CharString>
        <CharString name="bullet">
          -343 548 350 hstem
          273 346 vstem
          416 548 rmoveto
          108 95 114 97 80 -60 59 -82 -107 -97 -110 -97 -79 62 -64 81 hvcurveto
          endchar
        </CharString>
        <CharString name="c">
          -24 callsubr
          hstem
          71 167 vstem
          -93 callsubr
          endchar
        </CharString>
        <CharString name="cacute">
          -24 callsubr
          92 -1 callgsubr
          71 167 313 435 hintmask 11010000
          -93 callsubr
          hintmask 00101000
          173 1275 -91 callsubr
        </CharString>
        <CharString name="caron">
          -407 1255 395 hstem
          85 684 vstem
          311 1255 -82 callsubr
        </CharString>
        <CharString name="caron.cap">
          -409 1614 386 hstem
          82 668 vstem
          304 1614 -84 callgsubr
        </CharString>
        <CharString name="caronvertical">
          -886 1045 635 hstem
          265 143 vstem
          245 1045 -82 callgsubr
        </CharString>
        <CharString name="ccaron">
          -24 callsubr
          92 395 hstemhm
          71 167 114 684 hintmask 11010000
          -93 callsubr
          hintmask 00101000
          157 1275 -82 callsubr
        </CharString>
        <CharString name="ccedilla">
          -304 -464 116 328 112 -81 -21 1055 118 hstemhm
          71 167 189 105 hintmask 00000000
          hintmask 11011100
          165 -331 rmoveto
          -28 -105 rlineto
          -16 22 63 -12 53 hhcurveto
          143 96 54 216 18 hvcurveto
          hintmask 10111100
          6 74 -5 65 -16 45 137 29 94 86 40 46 -32 66 rcurveline
          hintmask 11011100
          -73 -97 -77 -52 -117 hhcurveto
          -141 -86 121 240 344 157 248 215 71 86 -28 -49 58 hvcurveto
          41 147 rlineto
          29 -57 -91 19 -72 hhcurveto
          -374 -201 -403 -330 -279 129 -171 221 hvcurveto
          2 hlineto
          6 -29 2 -37 -4 -56 rrcurveto
          -143 -13 -67 -63 -97 hhcurveto
          -41 -27 8 9 -17 hvcurveto
          endchar
        </CharString>
        <CharString name="ccircumflex">
          -24 callsubr
          63 424 hstemhm
          71 167 55 685 hintmask 11010000
          -93 callsubr
          hintmask 00101000
          -82 1248 -91 callgsubr
        </CharString>
        <CharString name="cdotaccent">
          -24 callsubr
          -3 callsubr
          71 167 335 212 hintmask 11010000
          -93 callsubr
          hintmask 00101000
          243 1441 -103 callsubr
          endchar
        </CharString>
        <CharString name="cedilla">
          -722 -464 116 hstem
          301 108 vstem
          287 21 rmoveto
          12 -38 8 -41 -6 -84 -72 callgsubr
          8 93 -10 77 -27 45 -44 4 rcurveline
          endchar
        </CharString>
        <CharString name="cent">
          -145 5 -21 1061 116 0 -20 hstemhm
          124 167 2 callgsubr
          420 -16 rmoveto
          -31 -155 109 -44 40 200 155 21 104 95 44 50 rlinecurve
          -32 66 rlineto
          -73 -97 -77 -52 -117 hhcurveto
          -141 -86 121 240 hvcurveto
          hintmask 11010000
          344 157 248 215 71 86 -28 -49 58 vhcurveto
          41 147 -46 23 -68 17 -62 6 rlinecurve
          48 197 rlineto
          -121 hlineto
          -49 -201 rlineto
          -324 -52 -173 -369 -306 vvcurveto
          hintmask 10110000
          -256 108 -165 188 -25 vhcurveto
          endchar
        </CharString>
        <CharString name="circumflex">
          -406 1226 424 hstem
          54 685 vstem
          100 1228 -91 callgsubr
        </CharString>
        <CharString name="circumflex.cap">
          -407 1686 -14 callgsubr
          55 682 hintmask 00000000
          hintmask 01100000
          105 1619 rmoveto
          335 254 rlineto
          hintmask 10100000
          -79 callsubr
          hintmask 01100000
          -321 -334 rlineto
          endchar
        </CharString>
        <CharString name="colon">
          -675 812 -21 hstemhm
          186 221 hintmask 00000000
          hintmask 11000000
          186 897 -85 callsubr
          hintmask 00000000
          -93 -809 -85 callsubr
          endchar
        </CharString>
        <CharString name="comma">
          -638 -480 -21 hstem
          216 162 vstem
          -43 callsubr
          endchar
        </CharString>
        <CharString name="commaaccent">
          -834 -539 -21 hstem
          129 152 vstem
          62 -72 callsubr
          endchar
        </CharString>
        <CharString name="copyright">
          567 51 86 228 82 730 69 227 85 hstem
          178 97 267 124 476 61 389 97 vstem
          178 805 -48 callsubr
          -367 -291 -301 18 callgsubr
          267 -4 rmoveto
          -239 1 138 -197 239 hhcurveto
          119 117 45 47 57 hvcurveto
          -24 55 rlineto
          -31 -52 -86 -34 -96 hhcurveto
          -138 -152 122 279 1 hvcurveto
          211 1 120 118 150 hhcurveto
          71 62 -13 -25 29 hvcurveto
          43 -136 rlineto
          61 205 hlineto
          22 -41 -103 16 -90 hhcurveto
          -268 -161 -205 -240 2 hvcurveto
          endchar
        </CharString>
        <CharString name="currency">
          339 252 107 662 107 hstem
          338 119 641 120 vstem
          239 231 rmoveto
          92 -90 192 192 rlineto
          -51 72 88 -30 95 hhcurveto
          98 91 31 55 74 hvcurveto
          191 -192 91 91 -192 191 rlineto
          55 73 32 91 98 vvcurveto
          95 -31 88 -51 72 vhcurveto
          189 189 -90 91 -189 -188 rlineto
          57 -74 -93 34 -101 hhcurveto
          -97 -90 -31 -52 -72 hvcurveto
          -192 193 -91 -91 191 -192 rlineto
          -56 -73 -33 -92 -100 vvcurveto
          -101 34 -93 57 -74 vhcurveto
          28 268 rmoveto
          182 143 149 178 177 143 -149 -182 -182 -143 -149 -177 -178 -143 149 182 vhcurveto
          endchar
        </CharString>
        <CharString name="d">
          -31 -20 114 971 98 385 -20 hstem
          20 callsubr
          vstem
          -90 callgsubr
          endchar
        </CharString>
        <CharString name="dagger">
          -385 1143 120 hstem
          139 715 vstem
          292 151 rmoveto
          94 hlineto
          165 857 9 135 rlineto
          277 hlineto
          17 120 rlineto
          -294 hlineto
          57 206 29 177 rlineto
          -151 hlineto
          -24 -177 -12 -206 rlineto
          -303 hlineto
          -17 -120 rlineto
          286 hlineto
          -28 -135 rlineto
          endchar
        </CharString>
        <CharString name="daggerdbl">
          -385 658 120 365 120 hstem
          401 174 vstem
          296 -51 rmoveto
          95 hlineto
          104 561 4 31 9 86 -1 31 rlinecurve
          232 1 17 120 rlineto
          -248 hlineto
          58 209 -1 37 7 80 4 38 rlinecurve
          249 hlineto
          18 120 rlineto
          -258 hlineto
          51 206 28 177 rlineto
          -152 hlineto
          -23 -177 -5 -206 rlineto
          -273 hlineto
          -19 -120 rlineto
          256 hlineto
          -43 -156 -7 -208 rlineto
          -238 hlineto
          -19 -120 230 -1 -29 -148 rlineto
          endchar
        </CharString>
        <CharString name="dcaron">
          215 -20 114 928 635 -592 98 385 -20 hstemhm
          20 callsubr
          391 143 hintmask 10111100
          -90 callgsubr
          hintmask 01000010
          839 928 -82 callgsubr
        </CharString>
        <CharString name="dcroat">
          -31 -20 114 971 98 124 105 156 -20 hstem
          20 callsubr
          vstem
          408 -20 rmoveto
          145 119 90 88 68 hvcurveto
          -1 -19 0 -36 -1 vvcurveto
          -88 -4 40 -34 68 hhcurveto
          104 83 91 25 17 hvcurveto
          -27 44 rlineto
          -36 -40 -29 -19 -27 hhcurveto
          -17 -12 24 49 6 hvcurveto
          164 1129 rlineto
          145 hlineto
          13 105 rlineto
          -142 hlineto
          34 235 -44 23 -239 -35 -17 -67 128 -33 -19 -123 rlineto
          -283 hlineto
          -13 -105 rlineto
          280 hlineto
          -23 -151 rlineto
          15 -52 -62 12 -54 -74 callsubr
          hvcurveto
          25 114 rmoveto
          -123 -70 123 206 258 145 384 308 62 65 -14 -39 47 hvcurveto
          -109 -716 rlineto
          -85 -57 -126 -117 -142 hhcurveto
          endchar
        </CharString>
        <CharString name="degree">
          -302 955 97 450 98 hstem
          204 113 434 113 vstem
          523 955 rmoveto
          191 147 138 185 3 hvcurveto
          177 3 -140 145 -185 hhcurveto
          -191 -144 -139 -183 -3 hvcurveto
          -177 -3 139 -146 183 hhcurveto
          5 97 rmoveto
          -119 -94 101 125 2 hvcurveto
          128 2 93 96 126 hhcurveto
          120 96 -97 -127 -3 hvcurveto
          -129 -2 -93 -97 -128 hhcurveto
          endchar
        </CharString>
        <CharString name="dieresis">
          -392 1406 -31 callsubr
          84 213 209 213 hintmask 00000000
          hintmask 11100000
          596 1406 -98 callsubr
        </CharString>
        <CharString name="dieresis.cap">
          -395 1717 221 hstem
          84 -15 callsubr
          vstem
          593 1717 -97 callgsubr
        </CharString>
        <CharString name="divide">
          169 273 228 211 125 209 228 hstemhm
          650 236 hintmask 00000000
          hintmask 11110000
          747 1046 rmoveto
          61 69 48 75 9 hvcurveto
          61 7 -28 44 -74 hhcurveto
          -61 -72 -49 -73 -8 hvcurveto
          -68 -8 48 -38 57 hhcurveto
          -475 -334 rmoveto
          869 22 callgsubr
          -869 hlineto
          271 -458 rmoveto
          -69 -8 47 -37 57 hhcurveto
          63 66 48 75 10 hvcurveto
          60 7 -27 45 -75 hhcurveto
          -61 -70 -50 -72 -9 hvcurveto
          endchar
        </CharString>
        <CharString name="dollar">
          4 -230 292 -82 82 -61 -21 1483 266 -183 -20 hstemhm
          250 145 495 149 hintmask 00000000
          hintmask 00101110
          107 65 rmoveto
          40 -32 130 -41 152 -12 rrcurveto
          hintmask 10010110
          -34 -210 rlineto
          144 hlineto
          34 210 258 22 209 161 -1 266 rlinecurve
          211 -181 99 -160 94 vhcurveto
          -144 83 -166 87 7 174 rrcurveto
          220 10 186 66 112 hhcurveto
          102 98 -29 -33 45 hvcurveto
          23 -181 rlineto
          94 hlineto
          hintmask 00101110
          42 245 -45 31 -95 38 -140 12 rlinecurve
          hintmask 01010110
          30 183 rlineto
          -145 hlineto
          -28 -181 -240 -21 -195 -159 1 -247 rlinecurve
          1 -225 198 -101 160 -96 141 -83 149 -82 -9 -172 rrcurveto
          -204 -10 -180 -96 -160 hhcurveto
          -95 -117 27 50 -65 hvcurveto
          -12 204 rlineto
          -101 hlineto
          endchar
        </CharString>
        <CharString name="dotaccent">
          -813 1421 221 hstem
          92 212 vstem
          183 1421 -103 callsubr
          endchar
        </CharString>
        <CharString name="dotaccent.cap">
          -812 1701 221 hstem
          88 213 vstem
          178 1701 -95 callgsubr
        </CharString>
        <CharString name="dotlessi">
          -47 callsubr
          hstem
          148 335 vstem
          156 99 -106 callsubr
          endchar
        </CharString>
        <CharString name="dotlessj">
          9 callgsubr
          hstem
          -242 701 vstem
          174 58 -80 callgsubr
          endchar
        </CharString>
        <CharString name="e">
          -59 callsubr
          hstem
          83 167 526 164 vstem
          -106 callgsubr
          endchar
        </CharString>
        <CharString name="eacute">
          -59 callsubr
          92 474 24 callgsubr
          284 435 -193 164 hintmask 11101010
          -106 callgsubr
          hintmask 00010100
          323 698 -91 callsubr
        </CharString>
        <CharString name="ebreve">
          -59 callsubr
          141 118 24 callgsubr
          100 89 337 164 hintmask 11101010
          -106 callgsubr
          hintmask 00010100
          385 747 -96 callgsubr
        </CharString>
        <CharString name="ecaron">
          -59 callsubr
          92 395 24 callgsubr
          85 684 -243 164 hintmask 11101010
          -106 callgsubr
          hintmask 00010100
          307 698 -82 callsubr
        </CharString>
        <CharString name="ecircumflex">
          -59 callsubr
          63 424 24 callgsubr
          26 685 -185 164 hintmask 11101010
          -106 callgsubr
          hintmask 00010100
          68 671 -91 callgsubr
        </CharString>
        <CharString name="edieresis">
          -59 callsubr
          24 callgsubr
          526 164 vstemhm
          -106 callgsubr
          598 849 -98 callsubr
        </CharString>
        <CharString name="edotaccent">
          -59 callsubr
          -3 callsubr
          83 167 306 212 8 164 hintmask 11101010
          -106 callgsubr
          hintmask 00010100
          393 864 -103 callsubr
          endchar
        </CharString>
        <CharString name="egrave">
          -59 callsubr
          92 474 24 callgsubr
          7 421 98 164 hintmask 11101010
          -106 callgsubr
          hintmask 00010100
          380 698 -76 callgsubr
        </CharString>
        <CharString name="eight">
          88 -20 86 1404 80 hstemhm
          139 170 12 156 441 168 -85 157 hintmask 00000000
          hintmask 11111000
          139 333 rmoveto
          -247 216 -106 214 260 257 156 262 170 -156 124 -145 103 vhcurveto
          hintmask 11010100
          196 101 177 138 191 vvcurveto
          202 -156 123 -224 -264 -193 -149 -258 -160 108 -100 107 -85 vhcurveto
          hintmask 11111000
          -191 -97 -206 -147 -221 vvcurveto
          hintmask 11010100
          571 515 rmoveto
          -126 92 -107 87 144 vvcurveto
          179 119 120 165 137 103 -82 -174 -175 -155 -130 -136 -61 vhcurveto
          hintmask 11111000
          -401 -488 rmoveto
          3 182 153 138 141 67 rrcurveto
          172 -117 140 -111 -150 vvcurveto
          -194 -150 -109 -171 -189 -99 122 172 vhcurveto
          endchar
        </CharString>
        <CharString name="ellipsis">
          377 -18 228 hstem
          113 221 305 221 305 221 cntrmask 01110000
          1165 88 -85 callsubr
          -526 hmoveto
          -88 callgsubr
          -526 hmoveto
          -88 callgsubr
          endchar
        </CharString>
        <CharString name="emacron">
          -59 callsubr
          269 119 24 callgsubr
          119 514 -107 164 hintmask 11101010
          -106 callgsubr
          hintmask 00010100
          115 875 -70 callgsubr
        </CharString>
        <CharString name="emdash">
          842 710 126 hstem
          238 1620 vstem
          238 710 rmoveto
          1597 hlineto
          23 126 rlineto
          -1597 hlineto
          endchar
        </CharString>
        <CharString name="endash">
          347 710 126 hstem
          238 1126 vstem
          238 710 rmoveto
          1102 hlineto
          24 126 rlineto
          -1102 hlineto
          endchar
        </CharString>
        <CharString name="eng">
          43 -518 85 454 -21 1037 125 0 -20 hstemhm
          907 159 hintmask 00000000
          hintmask 11101000
          114 hmoveto
          155 hlineto
          99 745 rlineto
          157 107 173 135 120 hhcurveto
          100 40 -41 -137 -1 hvcurveto
          -3 -248 -92 -514 -8 -45 rrcurveto
          -243 -45 -72 -242 -207 hhcurveto
          -19 -41 5 12 -24 hvcurveto
          -28 -65 rlineto
          -24 22 55 -13 63 hhcurveto
          223 150 169 349 68 hvcurveto
          53 265 55 352 9 250 rrcurveto
          203 7 -91 92 -144 hhcurveto
          -161 -176 -128 -148 -114 hvcurveto
          hintmask 11011000
          27 257 -38 callsubr
          endchar
        </CharString>
        <CharString name="eogonek">
          -176 -412 104 288 112 -75 -21 471 90 512 94 24 callgsubr
          110 155 261 23 callsubr
          hintmask 11011011
          396 -170 rmoveto
          -21 -29 -13 -44 -2 -40 rrcurveto
          -59 -2 42 6 callgsubr
          -25 -52 hhcurveto
          -37 -31 26 61 2 hvcurveto
          2 77 136 134 105 87 16 11 15 11 13 12 rrcurveto
          hintmask 10111011
          -102 -48 -46 -28 -20 -13 -22 -13 -23 -13 rlinecurve
          65 17 57 30 47 34 45 35 rcurveline
          -1 -1 30 26 23 27 16 22 rlinecurve
          -38 68 rlineto
          hintmask 11011111
          -115 -115 -118 -47 -108 hhcurveto
          -207 -49 222 153 14 hvcurveto
          199 5 491 127 314 vvcurveto
          141 -92 109 -190 -328 -237 -347 -379 -10 vhcurveto
          -226 -6 108 -231 288 hhcurveto
          41 38 6 10 37 hvcurveto
          hintmask 11011011
          -65 -40 -73 -47 -55 -79 rrcurveto
          -142 727 rmoveto
          213 21 125 299 221 hhcurveto
          95 60 -57 -113 -212 -306 -123 -216 -7 hvcurveto
          endchar
        </CharString>
        <CharString name="equal">
          -138 12 callgsubr
          152 865 rmoveto
          815 22 callgsubr
          -815 hlineto
          -84 -635 rmoveto
          815 22 callgsubr
          -815 hlineto
          endchar
        </CharString>
        <CharString name="estimated">
          166 -16 94 553 110 520 95 hstem
          110 233 716 216 vstem
          343 268 rmoveto
          363 921 vlineto
          11 51 0 64 86 vvcurveto
          -11 329 -238 200 -289 -5 rrcurveto
          -416 -7 -211 -286 -392 vvcurveto
          -430 231 -257 392 138 199 37 61 85 vhcurveto
          -31 91 rlineto
          -38 -68 -160 -57 -145 hhcurveto
          -176 -146 56 134 -86 hvcurveto
          473 vmoveto
          322 vlineto
          136 85 139 62 160 hhcurveto
          169 103 -60 -86 60 hvcurveto
          -373 vlineto
          endchar
        </CharString>
        <CharString name="eth">
          -67 -20 87 953 90 414 -20 214 -21 hstem
          86 168 629 170 vstem
          86 421 rmoveto
          -214 110 -227 271 377 209 397 439 277 -68 237 -223 190 vhcurveto
          -5 4 rlineto
          52 58 102 115 0 vvcurveto
          -83 74 rlineto
          0 -96 -118 -62 -68 vhcurveto
          -94 60 -119 61 -76 19 -36 -97 rcurveline
          74 -17 93 -54 81 -59 -153 -170 rcurveline
          86 -71 151 174 134 -121 50 -137 42 -197 rlinecurve
          88 -49 -117 46 -106 hhcurveto
          -279 -266 -261 -428 hvcurveto
          168 -9 rmoveto
          299 127 309 247 184 65 -175 -62 6 vhcurveto
          4 -41 -7 -104 -11 -72 rrcurveto
          -258 -40 -150 -241 -190 hhcurveto
          -166 -69 161 184 hvcurveto
          endchar
        </CharString>
        <CharString name="exclam">
          -515 3 -21 hstem
          156 456 vstem
          270 488 -63 callsubr
          endchar
        </CharString>
        <CharString name="exclamdbl">
          102 3 -21 hstemhm
          156 456 160 456 hintmask 11000000
          270 488 -63 callsubr
          hintmask 10100000
          729 400 -63 callsubr
          endchar
        </CharString>
        <CharString name="exclamdown">
          -515 1341 21 hstem
          107 456 vstem
          449 856 rmoveto
          -111 hlineto
          -231 -1290 rlineto
          195 hlineto
          260 1690 rmoveto
          69 9 -46 37 -57 hhcurveto
          -62 -69 -46 -77 -10 hvcurveto
          -60 -8 26 -45 76 hhcurveto
          60 72 50 72 9 hvcurveto
          endchar
        </CharString>
        <CharString name="f">
          -525 -27 callsubr
          hstemhm
          -210 -97 callsubr
          endchar
        </CharString>
        <CharString name="f_f">
          151 -27 callsubr
          14 callgsubr
          -407 -97 callsubr
          hintmask 00000000
          534 -1167 rmoveto
          -21 -158 -42 -118 -89 -1 -74 -1 -67 29 -13 6 rrcurveto
          hintmask 10101010
          -42 -124 rlineto
          hintmask 01101010
          -103 callgsubr
          hintmask 10110010
          46 134 rlineto
          hintmask 10101010
          -94 callgsubr
          endchar
        </CharString>
        <CharString name="f_f_i">
          -99 callsubr
        </CharString>
        <CharString name="f_f_l">
          749 -27 callsubr
          14 callgsubr
          -407 -97 callsubr
          hintmask 00000000
          534 -1167 rmoveto
          -21 -158 -42 -118 -89 -1 -74 -1 -67 29 -13 6 rrcurveto
          hintmask 10101010
          -42 -124 rlineto
          hintmask 01101010
          -103 callgsubr
          hintmask 10110010
          46 134 rlineto
          hintmask 10101010
          -94 callgsubr
          hintmask 10110010
          529 -938 -92 callgsubr
          endchar
        </CharString>
        <CharString name="f_i">
          100 -28 callgsubr
          474 105 955 115 8 -20 278 221 -89 3 callsubr
          14 callgsubr
          -49 -6 callgsubr
          -23 callgsubr
          hintmask 1001000110000000
          138 -127 rmoveto
          -21 -158 -42 -118 -89 -1 -74 -1 -67 29 -13 6 rrcurveto
          hintmask 0101000110000000
          -42 -124 rlineto
          hintmask 1001001010000000
          -103 callgsubr
          hintmask 1001000110000000
          46 134 rlineto
          hintmask 1001001010000000
          -94 callgsubr
          hintmask 0010100001000000
          552 -941 -106 callsubr
          hintmask 0000010000100000
          258 1322 -103 callsubr
          endchar
        </CharString>
        <CharString name="f_l">
          73 -27 callsubr
          hstemhm
          -210 -97 callsubr
          hintmask 00000000
          529 -938 -92 callgsubr
          endchar
        </CharString>
        <CharString name="ffi_dflt">
          -99 callsubr
        </CharString>
        <CharString name="fi_trk">
          100 -28 callgsubr
          474 105 955 115 8 -20 278 221 -89 3 callsubr
          14 callgsubr
          -49 -6 callgsubr
          -23 callgsubr
          hintmask 1001000110000000
          138 -127 rmoveto
          -21 -158 -42 -118 -89 -1 -74 -1 -67 29 -13 6 rrcurveto
          hintmask 0101000110000000
          -42 -124 rlineto
          hintmask 1001001010000000
          -103 callgsubr
          hintmask 1001000110000000
          46 134 rlineto
          hintmask 1001001010000000
          -94 callgsubr
          hintmask 0010100001000000
          552 -941 -106 callsubr
          hintmask 0000010000100000
          258 1322 -103 callsubr
          endchar
        </CharString>
        <CharString name="five">
          -61 -346 82 750 94 431 135 -135 151 hstemhm
          786 183 hintmask 00000000
          hintmask 11101000
          69 -255 rmoveto
          -11 -74 rlineto
          -14 40 57 -3 33 hhcurveto
          358 423 213 337 258 -154 118 -244 -92 -90 -24 -25 -65 hvcurveto
          119 480 rlineto
          572 hlineto
          hintmask 11011000
          48 151 rlineto
          -134 hlineto
          hintmask 11101000
          -20 -16 rlineto
          -573 hlineto
          -163 -697 41 -32 rlineto
          32 84 96 37 101 hhcurveto
          179 112 -103 -203 -297 -320 -147 -308 -30 -26 2 7 -33 hvcurveto
          endchar
        </CharString>
        <CharString name="florin">
          -143 1033 108 424 125 4 -21 hstemhm
          202 816 2 callgsubr
          264 -356 rmoveto
          142 hlineto
          165 1389 rlineto
          324 hlineto
          9 108 rlineto
          -324 hlineto
          15 130 rlineto
          hintmask 11010000
          244 21 99 50 125 hhcurveto
          91 62 -19 -9 16 hvcurveto
          hintmask 10110000
          9 136 rlineto
          hintmask 11010000
          7 -13 -36 10 -89 hhcurveto
          -172 -236 -178 -304 -27 hvcurveto
          -8 -67 -230 -46 -5 -62 rlineto
          227 hlineto
          endchar
        </CharString>
        <CharString name="four">
          87 0 108 -108 133 hstemhm
          45 1099 hintmask 00000000
          hintmask 10100000
          74 hmoveto
          653 hlineto
          -57 -375 rlineto
          152 hlineto
          55 375 rlineto
          250 hlineto
          hintmask 01100000
          17 139 -249 -11 77 521 -155 -47 rlineto
          hintmask 10100000
          -72 -483 -543 -22 103 149 600 938 -64 72 rlineto
          -101 hlineto
          -253 -452 -216 -377 -226 -351 rrcurveto
          endchar
        </CharString>
        <CharString name="foursuperior">
          8 823 87 -87 131 749 -21 hstemhm
          150 991 hintmask 00000000
          hintmask 01110000
          651 475 -42 callgsubr
          hintmask 10110000
          -47 callgsubr
          endchar
        </CharString>
        <CharString name="fraction">
          -175 21 -21 1530 -20 hstem
          105 813 vstem
          105 hmoveto
          -26 callgsubr
          endchar
        </CharString>
        <CharString name="g">
          -39 callsubr
          hstem
          75 164 vstem
          141 -325 -101 callgsubr
          endchar
        </CharString>
        <CharString name="gbreve">
          -39 callsubr
          141 118 hstemhm
          75 164 180 89 hintmask 11101000
          141 -325 -101 callgsubr
          hintmask 00010100
          276 1210 -96 callgsubr
        </CharString>
        <CharString name="gcircumflex">
          -39 callsubr
          63 424 hstemhm
          75 164 106 685 hintmask 11101000
          141 -325 -101 callgsubr
          hintmask 00010100
          -41 1134 -91 callgsubr
        </CharString>
        <CharString name="gcommaaccent">
          -39 callsubr
          134 509 hstemhm
          75 164 331 151 hintmask 00000000
          hintmask 00010100
          702 1297 rmoveto
          98 95 5 43 -53 12 -37 69 6 57 rlinecurve
          10 88 44 56 56 35 3 20 rcurveline
          -33 34 -79 -18 -136 -116 -16 -151 rlinecurve
          -10 -102 52 -103 90 -19 rrcurveto
          hintmask 11101000
          -561 -1622 -101 callgsubr
          endchar
        </CharString>
        <CharString name="gdotaccent">
          -39 callsubr
          -3 callsubr
          75 164 386 212 hintmask 11101000
          141 -325 -101 callgsubr
          hintmask 00010100
          284 1327 -103 callsubr
          endchar
        </CharString>
        <CharString name="germandbls">
          -31 -17 106 -89 20 1468 97 hstemhm
          671 144 75 167 -133 161 hintmask 00000000
          hintmask 01110100
          82 hmoveto
          155 hlineto
          113 879 rlineto
          464 60 143 145 176 hhcurveto
          134 61 -89 -106 -124 -64 -89 -95 -87 hvcurveto
          -53 -56 -41 -39 -87 vvcurveto
          -82 81 -113 54 -73 vhcurveto
          hintmask 10111000
          38 -64 46 -94 -90 vvcurveto
          -159 -106 -46 -110 -1 vhcurveto
          -88 -104 50 32 -31 hvcurveto
          hintmask 01110100
          -21 -151 rlineto
          hintmask 10111000
          -17 40 91 -20 87 hhcurveto
          209 200 146 189 130 -66 99 -50 79 hvcurveto
          -78 108 -48 64 52 vvcurveto
          hintmask 10110100
          138 270 37 272 vvcurveto
          191 -133 97 -178 -217 -277 -59 -599 -78 vhcurveto
          endchar
        </CharString>
        <CharString name="grave">
          -660 1255 474 hstem
          58 421 vstem
          435 1255 -76 callgsubr
        </CharString>
        <CharString name="grave.cap">
          -679 1672 -21 hstem
          77 377 vstem
          408 1614 -74 callgsubr
        </CharString>
        <CharString name="greater">
          167 179 1148 hstem
          222 1023 vstem
          1245 804 rmoveto
          -888 523 -18 -157 742 -418 -840 -417 -19 -156 1010 522 rlineto
          endchar
        </CharString>
        <CharString name="greaterequal">
          163 -2 120 hstem
          146 1075 vstem
          204 246 rmoveto
          1009 452 8 62 -885 444 -19 -146 699 -330 -793 -336 rlineto
          -77 -394 rmoveto
          948 hlineto
          16 120 rlineto
          -948 hlineto
          endchar
        </CharString>
        <CharString name="guillemotleft">
          677 152 934 hstemhm
          225 743 -67 743 hintmask 11000000
          225 547 -39 callgsubr
          hintmask 10100000
          658 -127 -39 callgsubr
          endchar
        </CharString>
        <CharString name="guillemotright">
          677 152 934 hstemhm
          138 743 -67 743 hintmask 11000000
          881 691 -40 callsubr
          hintmask 10100000
          694 127 -40 callsubr
          endchar
        </CharString>
        <CharString name="guilsinglleft">
          -11 152 934 hstem
          244 743 vstem
          244 547 -39 callgsubr
          endchar
        </CharString>
        <CharString name="guilsinglright">
          -11 152 934 hstem
          134 743 vstem
          877 691 -40 callsubr
          endchar
        </CharString>
        <CharString name="h">
          9 callsubr
          385 -20 hstemhm
          792 166 -55 160 hintmask 00000000
          hintmask 01110100
          -33 callgsubr
          -19 callsubr
          hintmask 10111000
          -58 callsubr
          8 103 27 143 17 102 rrcurveto
          hintmask 01110100
          -44 callsubr
          102 754 1 callgsubr
          rlineto
          endchar
        </CharString>
        <CharString name="hbar">
          9 callsubr
          124 105 156 -20 hstemhm
          792 166 -55 160 hintmask 00000000
          hintmask 01111010
          -33 callgsubr
          -19 callsubr
          hintmask 10111100
          -58 callsubr
          8 103 27 143 17 102 rrcurveto
          hintmask 01111010
          -44 callsubr
          56 414 rlineto
          262 hlineto
          14 105 rlineto
          -262 hlineto
          32 235 1 callgsubr
          -16 -123 rlineto
          -162 hlineto
          -14 -105 rlineto
          162 hlineto
          endchar
        </CharString>
        <CharString name="hcircumflex">
          9 callsubr
          385 -20 141 127 -106 -21 hstemhm
          792 91 20 160 hintmask 00000000
          hintmask 01110110
          -33 callgsubr
          hintmask 01110111
          -19 callsubr
          hintmask 10110110
          -58 callsubr
          hintmask 01110111
          8 103 27 143 17 102 rrcurveto
          -44 callsubr
          75 558 18 -16 335 254 242 -256 55 48 rlineto
          hintmask 01111010
          -219 335 rlineto
          -142 hlineto
          -279 -290 17 121 1 callgsubr
          rlineto
          endchar
        </CharString>
        <CharString name="hungarumlaut">
          -284 1257 450 hstem
          56 788 vstem
          533 1257 -60 callgsubr
        </CharString>
        <CharString name="hungarumlaut.cap">
          -279 1584 412 hstem
          66 833 vstem
          523 1585 -63 callgsubr
        </CharString>
        <CharString name="hyphen">
          -22 callgsubr
        </CharString>
        <CharString name="i">
          -47 callsubr
          278 -31 callsubr
          148 -6 callgsubr
          hintmask 11010000
          156 99 -106 callsubr
          hintmask 00101000
          258 1322 -103 callsubr
          endchar
        </CharString>
        <CharString name="i.cy">
          -47 callsubr
          278 -31 callsubr
          148 -6 callgsubr
          hintmask 11010000
          156 99 -106 callsubr
          hintmask 00101000
          258 1322 -103 callsubr
          endchar
        </CharString>
        <CharString name="i.dot">
          -47 callsubr
          278 -31 callsubr
          148 -6 callgsubr
          hintmask 11010000
          156 99 -106 callsubr
          hintmask 00101000
          258 1322 -103 callsubr
          endchar
        </CharString>
        <CharString name="i.uc">
          -484 -53 callgsubr
          -3 callgsubr
          54 656 -276 213 -88 callsubr
          463 1632 -95 callgsubr
        </CharString>
        <CharString name="iacute">
          -47 callsubr
          112 -1 callgsubr
          148 335 -182 435 hintmask 11010000
          156 99 -106 callsubr
          hintmask 00101000
          188 1156 -91 callsubr
        </CharString>
        <CharString name="ibreve">
          -47 callsubr
          161 118 hstemhm
          117 89 -58 335 hintmask 11001000
          156 99 -106 callsubr
          hintmask 00110000
          250 1205 -96 callgsubr
        </CharString>
        <CharString name="icircumflex">
          -47 callsubr
          83 424 hstemhm
          43 685 -580 335 hintmask 11001000
          156 99 -106 callsubr
          hintmask 00110000
          -67 1129 -91 callgsubr
        </CharString>
        <CharString name="idieresis">
          -47 callsubr
          hstemhm
          148 335 vstemhm
          156 99 -106 callsubr
          463 1307 -98 callsubr
        </CharString>
        <CharString name="igrave">
          -47 callsubr
          112 -1 callgsubr
          24 421 -297 335 hintmask 11001000
          156 99 -106 callsubr
          hintmask 00110000
          245 1156 -76 callgsubr
        </CharString>
        <CharString name="ij">
          46 -518 86 412 105 1078 -20 278 -31 callsubr
          148 -6 callgsubr
          -152 701 -137 212 hintmask 01101000
          156 99 -106 callsubr
          hintmask 00010100
          258 1322 -103 callsubr
          hintmask 10100010
          385 -1363 -80 callgsubr
          hintmask 00010001
          130 405 -103 callsubr
          endchar
        </CharString>
        <CharString name="imacron">
          -47 callsubr
          289 119 hstemhm
          136 514 -502 335 hintmask 11001000
          156 99 -106 callsubr
          hintmask 00110000
          -20 1333 -70 callgsubr
        </CharString>
        <CharString name="infinity">
          683 240 90 -90 94 558 102 -98 98 hstemhm
          174 141 1258 141 hintmask 00000000
          hintmask 01011100
          558 240 rmoveto
          159 2 133 136 81 137 rrcurveto
          hintmask 10101100
          -135 98 116 -140 175 hhcurveto
          245 149 172 225 180 -103 181 -259 -4 hvcurveto
          -160 -3 -148 -135 -84 -137 rrcurveto
          hintmask 10011100
          136 -98 -113 139 -176 hhcurveto
          -228 -171 -172 -225 hvcurveto
          hintmask 01011100
          -180 125 -181 259 4 vhcurveto
          17 94 rmoveto
          -170 -90 152 140 hvcurveto
          hintmask 10011100
          139 80 131 153 155 100 -188 -122 78 vhcurveto
          hintmask 01011100
          -130 -85 -104 -122 -117 hhcurveto
          hintmask 10101100
          436 312 rmoveto
          109 76 120 137 128 hhcurveto
          171 67 -149 -135 -130 -49 -148 -164 -152 -117 191 125 -80 hvcurveto
          endchar
        </CharString>
        <CharString name="integral">
          -143 -518 97 2024 97 hstem
          321 137 129 137 vstem
          143 -298 rmoveto
          -102 -73 rlineto
          -128 55 146 -19 68 hhcurveto
          256 158 236 278 hvcurveto
          407 -266 424 407 vvcurveto
          237 58 132 195 110 72 -81 -42 8 vhcurveto
          103 73 rlineto
          127 -55 -148 20 -67 hhcurveto
          -256 -157 -236 -278 hvcurveto
          -406 266 -424 -408 vvcurveto
          -249 -69 -120 -184 -101 -72 74 49 -18 vhcurveto
          endchar
        </CharString>
        <CharString name="iogonek">
          -576 -416 103 317 -21 1180 -20 278 -31 callsubr
          7 155 180 39 0 173 hintmask 00000000
          hintmask 11110100
          433 1421 rmoveto
          hintmask 11110010
          62 55 -21 callgsubr
          56 3 -37 42 -62 hhcurveto
          hintmask 11110100
          -52 -61 -52 -68 -9 callsubr
          -43 53 hhcurveto
          hintmask 11111100
          -391 -1596 rmoveto
          -21 -29 -13 -43 -1 -40 rrcurveto
          -59 -3 42 -31 callgsubr
          -37 -32 27 60 4 hvcurveto
          1 84 113 81 103 76 54 33 39 46 11 18 -27 44 rcurveline
          -52 -50 -29 -19 -29 hhcurveto
          -19 -16 23 50 7 hvcurveto
          141 984 -41 21 -258 -42 -14 -65 137 -40 -43 -299 -77 -492 -9 -126 rlinecurve
          -7 -74 33 -33 51 -9 -67 -38 -70 -43 -54 -77 rrcurveto
          endchar
        </CharString>
        <CharString name="itilde">
          -47 callsubr
          231 -30 callsubr
          -101 -20 hstemhm
          60 706 -618 335 hintmask 11000010
          156 99 -106 callsubr
          hintmask 00000000
          -58 1317 rmoveto
          hintmask 00101100
          -20 callsubr
          hintmask 00110100
          -78 callsubr
          hintmask 00101100
          -22 callsubr
        </CharString>
        <CharString name="j">
          9 callgsubr
          278 -31 callsubr
          -242 701 -137 212 hintmask 11010000
          174 58 -80 callgsubr
          hintmask 00101000
          130 405 -103 callsubr
          endchar
        </CharString>
        <CharString name="jcircumflex">
          9 callgsubr
          83 424 hstemhm
          -242 701 -490 685 hintmask 11010000
          174 58 -80 callgsubr
          hintmask 00101000
          -268 212 -91 callgsubr
        </CharString>
        <CharString name="k">
          -142 -20 4 callsubr
          hintmask 00000000
          hintmask 00111100
          -20 callgsubr
          hintmask 01011100
          16 callsubr
          hintmask 10011100
          -56 callgsubr
          endchar
        </CharString>
        <CharString name="kcommaaccent">
          -142 -539 -21 540 4 callsubr
          -617 152 hintmask 00000000
          hintmask 00011110
          -20 callgsubr
          hintmask 00101110
          16 callsubr
          hintmask 01001110
          -56 callgsubr
          hintmask 10000001
          1 -757 -102 callsubr
          endchar
        </CharString>
        <CharString name="kgreenlandic">
          -140 -19 101 -80 -21 40 -21 1150 -20 hstemhm
          140 947 hintmask 00000000
          hintmask 00111000
          140 hmoveto
          153 hlineto
          148 1127 -42 23 -224 -35 -17 -68 112 -32 rlineto
          412 -927 rmoveto
          hintmask 01011000
          -78 43 47 -29 54 hhcurveto
          82 81 49 40 28 hvcurveto
          hintmask 10011000
          -25 39 rlineto
          -18 -33 -23 -9 -20 hhcurveto
          -34 -43 44 55 -34 hvcurveto
          -262 405 544 544 rlineto
          -186 hlineto
          -508 -546 rlineto
          1 hlineto
          -2 -2 rlineto
          endchar
        </CharString>
        <CharString name="l">
          -603 -20 -17 callgsubr
          hintmask 00000000
          hintmask 11100000
          -52 callsubr
          endchar
        </CharString>
        <CharString name="lacute">
          -602 -20 105 -84 -21 1542 -20 170 -21 hstemhm
          138 153 78 381 hintmask 00000000
          hintmask 01101000
          136 102 rmoveto
          -87 -6 38 -35 69 hhcurveto
          96 76 79 21 14 hvcurveto
          hintmask 10101000
          -26 44 rlineto
          -27 -34 -24 -12 -22 hhcurveto
          -18 -11 25 48 4 hvcurveto
          188 1341 -41 23 -226 -34 -17 -67 117 -34 -172 -1217 rlineto
          hintmask 00010100
          272 1444 -92 callsubr
        </CharString>
        <CharString name="lcaron">
          -454 -18 105 935 635 -107 -20 hstemhm
          133 156 410 143 2 callgsubr
          133 104 -92 callgsubr
          hintmask 01001000
          546 918 -82 callgsubr
        </CharString>
        <CharString name="lcommaaccent">
          -603 -539 -21 540 -17 callgsubr
          -140 152 hintmask 00000000
          hintmask 01110000
          -52 callsubr
          hintmask 10001000
          -51 -249 -102 callsubr
          endchar
        </CharString>
        <CharString name="ldot">
          -419 -20 -17 callgsubr
          hintmask 00000000
          hintmask 11100000
          -52 callsubr
          hintmask 00000000
          452 648 -85 callsubr
          endchar
        </CharString>
        <CharString name="less">
          167 176 1148 hstem
          197 1023 vstem
          197 699 rmoveto
          888 -523 18 157 -742 418 840 417 19 156 -1010 -522 rlineto
          endchar
        </CharString>
        <CharString name="lessequal">
          163 -2 120 hstem
          137 1068 vstem
          198 698 rmoveto
          894 -452 16 145 -705 337 785 329 17 147 -1000 -444 rlineto
          -68 -762 rmoveto
          948 hlineto
          15 120 rlineto
          -948 hlineto
          endchar
        </CharString>
        <CharString name="logicalnot">
          169 731 106 hstem
          214 974 vstem
          214 731 rmoveto
          821 hlineto
          -50 -409 rlineto
          141 hlineto
          62 515 rlineto
          -962 hlineto
          endchar
        </CharString>
        <CharString name="lozenge">
          163 0 120 -99 -21 hstemhm
          162 1039 hintmask 00000000
          hintmask 01100000
          606 hmoveto
          151 hlineto
          444 695 rlineto
          46 vlineto
          -444 695 rlineto
          -151 hlineto
          -444 -695 rlineto
          -46 vlineto
          hintmask 10100000
          517 -575 rmoveto
          -368 599 371 597 369 -599 rlineto
          endchar
        </CharString>
        <CharString name="lslash">
          -603 -20 -17 callgsubr
          hintmask 00000000
          hintmask 11100000
          133 102 rmoveto
          -87 -2 34 -35 69 hhcurveto
          112 90 104 28 15 hvcurveto
          -26 43 rlineto
          -53 -51 -32 -17 -28 hhcurveto
          -18 -14 25 48 7 hvcurveto
          101 686 226 89 rlineto
          118 vlineto
          -208 -86 97 662 -40 23 -229 -35 -16 -67 119 -33 -92 -615 -165 -68 rlineto
          -109 vlineto
          148 58 -91 -611 rlineto
          -4 -20 -2 -34 -14 vvcurveto
          endchar
        </CharString>
        <CharString name="m">
          679 -20 105 -64 -21 1037 126 -20 20 hstemhm
          893 159 382 161 -61 160 hintmask 00000000
          hintmask 01101010
          -59 callgsubr
          hintmask 10101100
          -42 callsubr
          hintmask 01101010
          -40 callgsubr
          hintmask 01011010
          26 255 rlineto
          hintmask 01101010
          -40 20 -210 -42 -14 -72 97 -47 rlineto
          endchar
        </CharString>
        <CharString name="macron">
          -587 1432 119 hstem
          47 514 vstem
          47 1432 -70 callgsubr
        </CharString>
        <CharString name="macron.cap">
          -587 1745 119 hstem
          50 514 vstem
          50 1745 -70 callgsubr
        </CharString>
        <CharString name="minus">
          -22 callgsubr
        </CharString>
        <CharString name="minute">
          -578 1190 592 hstem
          308 253 vstem
          308 1190 -8 callsubr
          endchar
        </CharString>
        <CharString name="mu">
          -86 callsubr
        </CharString>
        <CharString name="multiply">
          169 326 879 hstem
          241 940 vstem
          324 326 rmoveto
          380 358 292 -357 106 99 -309 338 388 342 -82 99 -377 -360 -292 356 -105 -98 307 -338 -391 -340 rlineto
          endchar
        </CharString>
        <CharString name="n">
          52 -21 -33 callsubr
          hstemhm
          795 166 -55 160 hintmask 00000000
          hintmask 00110010
          -76 callsubr
          hintmask 01010100
          -60 callsubr
          hintmask 10010100
          -64 callgsubr
          hintmask 00110010
          -67 callgsubr
          hintmask 00101010
          27 257 rlineto
          hintmask 00110010
          -38 callsubr
          endchar
        </CharString>
        <CharString name="nacute">
          52 -21 -33 callsubr
          92 -1 callgsubr
          603 435 -243 -80 callsubr
          399 253 -91 callsubr
        </CharString>
        <CharString name="nbspace">
          -716 endchar
        </CharString>
        <CharString name="ncaron">
          52 -21 -33 callsubr
          92 395 hstemhm
          404 684 -293 -80 callsubr
          383 253 -82 callsubr
        </CharString>
        <CharString name="ncommaaccent">
          52 -539 -21 539 -33 callsubr
          hstemhm
          489 152 154 166 -55 160 -23 callgsubr
          hintmask 0001100010000000
          -76 callsubr
          hintmask 0010100100000000
          -60 callsubr
          hintmask 0100100100000000
          -64 callgsubr
          hintmask 0001100010000000
          -67 callgsubr
          hintmask 0001010010000000
          27 257 rlineto
          hintmask 0001100010000000
          -38 callsubr
          hintmask 1000001000000000
          175 -1149 -102 callsubr
          endchar
        </CharString>
        <CharString name="nine">
          70 165 98 810 87 hstem
          136 168 638 165 vstem
          229 -363 rmoveto
          24 -69 rlineto
          490 137 364 474 503 vvcurveto
          265 -138 213 -272 -339 -222 -336 -278 -193 102 -188 265 178 133 73 59 66 vhcurveto
          -101 -289 -237 -257 -313 -114 rrcurveto
          311 626 rmoveto
          -140 -96 120 206 199 110 285 246 193 89 -162 -215 -87 -12 -95 -18 -69 hvcurveto
          -56 -47 -125 -126 -200 hhcurveto
          endchar
        </CharString>
        <CharString name="notequal">
          -175 21 -21 12 callgsubr
          159 hmoveto
          127 hlineto
          164 355 rlineto
          447 22 callgsubr
          -404 hlineto
          178 385 rlineto
          282 22 callgsubr
          -238 hlineto
          154 334 rlineto
          -127 hlineto
          -155 -334 rlineto
          -449 hlineto
          -14 -125 rlineto
          406 hlineto
          -178 -385 rlineto
          -284 hlineto
          -14 -125 rlineto
          241 hlineto
          endchar
        </CharString>
        <CharString name="ntilde">
          52 -21 -33 callsubr
          211 -30 callsubr
          -101 -20 hstemhm
          362 706 -273 166 -55 160 -23 callgsubr
          hintmask 0011000000100000
          -76 callsubr
          hintmask 0101000001000000
          -60 callsubr
          hintmask 1001000001000000
          -64 callgsubr
          hintmask 0011000000100000
          -67 callgsubr
          hintmask 0010100000100000
          27 257 rlineto
          hintmask 0011000000100000
          -38 callsubr
          -23 callgsubr
          153 414 rmoveto
          hintmask 0000010110000000
          -20 callsubr
          hintmask 0000011010000000
          -78 callsubr
          hintmask 0000010110000000
          -22 callsubr
        </CharString>
        <CharString name="numbersign">
          204 21 -21 365 103 454 103 hstem
          111 1195 vstem
          266 hmoveto
          130 hlineto
          62 365 rlineto
          378 hlineto
          -52 -365 rlineto
          128 hlineto
          57 365 rlineto
          239 hlineto
          6 103 rlineto
          -229 hlineto
          73 454 rlineto
          242 hlineto
          6 103 rlineto
          -232 hlineto
          54 332 rlineto
          -132 hlineto
          -56 -332 rlineto
          -377 hlineto
          51 332 rlineto
          -132 hlineto
          -53 -332 rlineto
          -232 hlineto
          -6 -103 rlineto
          222 hlineto
          -72 -454 rlineto
          -224 hlineto
          -6 -103 rlineto
          214 hlineto
          149 103 rmoveto
          73 454 rlineto
          376 hlineto
          -71 -454 rlineto
          endchar
        </CharString>
        <CharString name="o">
          -27 callgsubr
          hstem
          87 165 613 166 vstem
          -105 callsubr
          endchar
        </CharString>
        <CharString name="oacute">
          -27 callgsubr
          92 -1 callgsubr
          87 165 308 435 -130 166 hintmask 11010100
          -105 callsubr
          hintmask 00101000
          102 1177 -91 callsubr
        </CharString>
        <CharString name="obreve">
          -27 callgsubr
          141 118 hstemhm
          87 165 124 89 400 166 hintmask 11010100
          -105 callsubr
          hintmask 00101000
          164 1226 -96 callgsubr
        </CharString>
        <CharString name="ocircumflex">
          -27 callgsubr
          63 424 hstemhm
          87 165 50 685 -122 166 hintmask 11010100
          -105 callsubr
          hintmask 00101000
          -153 1150 -91 callgsubr
        </CharString>
        <CharString name="odieresis">
          -27 callgsubr
          hstemhm
          87 165 613 166 vstemhm
          -105 callsubr
          377 1328 -98 callsubr
        </CharString>
        <CharString name="oe">
          573 -20 98 -98 112 375 90 508 98 -94 94 hstemhm
          87 165 1275 23 callsubr
          hintmask 10110110
          87 439 rmoveto
          -291 5 128 -168 253 hhcurveto
          167 138 89 135 96 hvcurveto
          -129 54 111 -95 185 hhcurveto
          194 147 127 79 57 hvcurveto
          -38 68 rlineto
          hintmask 01110110
          -115 -115 -118 -47 -108 hhcurveto
          -207 -49 222 153 14 hvcurveto
          199 5 491 127 314 vvcurveto
          141 -92 109 -190 -172 -146 -95 -145 -102 vhcurveto
          154 -52 -113 86 -180 hhcurveto
          hintmask 10110110
          -336 -227 -361 -363 6 hvcurveto
          918 118 rmoveto
          hintmask 10101110
          213 21 125 299 221 hhcurveto
          95 60 -57 -113 hvcurveto
          hintmask 10110110
          -212 -306 -123 -216 -7 vhcurveto
          -504 -479 rmoveto
          -167 -79 134 229 -3 hvcurveto
          272 -5 116 352 252 hhcurveto
          171 68 -139 -225 3 hvcurveto
          -31 -1 -31 -2 -32 vhcurveto
          -9 -42 -6 -42 -3 -43 rrcurveto
          -210 -42 -108 -192 -185 hhcurveto
          endchar
        </CharString>
        <CharString name="ogonek">
          -714 -394 92 hstem
          60 147 vstem
          94 -172 rmoveto
          -17 -27 -16 -42 -1 -36 rrcurveto
          -54 -3 39 -63 98 hhcurveto
          106 76 44 42 47 hvcurveto
          -20 69 rlineto
          -39 -45 -49 -24 -49 hhcurveto
          -36 -20 30 55 3 hvcurveto
          76 82 81 71 65 vhcurveto
          -16 43 -46 -28 -66 -42 -82 -55 -56 -95 rlinecurve
          endchar
        </CharString>
        <CharString name="ograve">
          -27 callgsubr
          92 -1 callgsubr
          87 165 31 421 161 166 hintmask 11010100
          -105 callsubr
          hintmask 00101000
          159 1177 -76 callgsubr
        </CharString>
        <CharString name="ohungarumlaut">
          -27 callgsubr
          94 450 hstemhm
          87 165 131 788 -306 166 hintmask 11010100
          -105 callsubr
          hintmask 00101000
          359 1179 -60 callgsubr
        </CharString>
        <CharString name="omacron">
          -27 callgsubr
          269 119 hstemhm
          87 165 143 514 -44 166 hintmask 11010100
          -105 callsubr
          hintmask 00101000
          -106 1354 -70 callgsubr
        </CharString>
        <CharString name="one">
          -247 0 70 1092 -20 hstem
          130 621 vstem
          130 hmoveto
          613 hlineto
          8 70 -233 22 152 1051 -70 19 -106 -73 -160 -98 -140 -31 rlinecurve
          12 -78 107 22 97 39 72 23 rlinecurve
          -126 -875 -218 -21 rlineto
          endchar
        </CharString>
        <CharString name="onehalf">
          1359 -60 111 -30 -21 654 71 102 123 580 13 callgsubr
          477 161 hintmask 1001000010000000
          1470 -60 -56 callsubr
          hintmask 0100100100000000
          -613 -18 rmoveto
          -26 callgsubr
          hintmask 0010011000000000
          -1228 -876 -64 callsubr
        </CharString>
        <CharString name="onequarter">
          1359 21 -21 172 87 -87 131 351 71 327 -21 499 13 callgsubr
          -279 991 -23 callgsubr
          hintmask 0010100001000000
          1855 -176 -42 callgsubr
          hintmask 0100100001000000
          -47 callgsubr
          hintmask 1000010010000000
          -1083 -172 rmoveto
          -26 callgsubr
          hintmask 0001001100000000
          -1228 -876 -64 callsubr
        </CharString>
        <CharString name="onesuperior">
          -181 654 71 938 -21 hstem
          242 665 vstem
          242 654 -64 callsubr
        </CharString>
        <CharString name="ordfeminine">
          -376 743 77 -77 95 657 82 -29 -20 hstemhm
          110 157 336 140 hintmask 00000000
          hintmask 01011100
          339 743 rmoveto
          128 87 91 73 55 hvcurveto
          1 -12 rlineto
          hintmask 10011100
          -93 -25 41 -59 60 hhcurveto
          71 87 60 15 8 hvcurveto
          -19 33 rlineto
          -23 -33 -20 -8 -15 hhcurveto
          -21 -4 33 49 6 hvcurveto
          129 677 -86 -31 rlineto
          hintmask 01101100
          15 -44 -71 14 -60 hhcurveto
          -301 -1 -203 -282 -254 vvcurveto
          hintmask 01011100
          -183 71 -114 158 vhcurveto
          63 95 rmoveto
          -114 -21 88 132 hvcurveto
          hintmask 01101100
          210 105 227 223 35 48 -21 -33 26 vhcurveto
          -86 -456 rlineto
          hintmask 01011100
          -61 -49 -89 -86 -78 hhcurveto
          endchar
        </CharString>
        <CharString name="ordmasculine">
          -366 733 85 692 79 hstem
          120 154 435 156 vstem
          425 733 rmoveto
          218 -4 222 180 325 vvcurveto
          206 -93 146 -213 3 vhcurveto
          -203 2 -236 -182 -324 vvcurveto
          -213 111 -136 194 -3 vhcurveto
          9 85 rmoveto
          -100 -60 110 171 196 79 214 188 1 hvcurveto
          119 49 -123 -167 -208 -72 -196 -203 2 hvcurveto
          endchar
        </CharString>
        <CharString name="oslash">
          -79 -18 98 987 98 hstem
          87 165 613 166 vstem
          41 -87 rmoveto
          72 -40 125 180 rlineto
          -47 60 78 -24 97 hhcurveto
          336 228 362 361 -6 hvcurveto
          -3 156 -39 121 -74 78 139 199 rcurveline
          -72 40 -130 -187 rlineto
          35 -56 -70 18 -82 hhcurveto
          -336 -227 -361 -363 6 hvcurveto
          2 -140 31 -111 59 -78 rrcurveto
          101 135 rmoveto
          -18 54 -9 66 -1 76 rrcurveto
          272 -5 116 352 252 hhcurveto
          66 51 -21 -38 39 hvcurveto
          -448 -844 rmoveto
          498 771 28 -60 14 -78 2 -94 rlinecurve
          -272 4 -118 -351 -250 hhcurveto
          -78 -59 29 55 -41 hvcurveto
          endchar
        </CharString>
        <CharString name="otilde">
          -27 callgsubr
          211 -30 callsubr
          -101 -20 hstemhm
          87 165 67 706 -160 166 hintmask 11000101
          -105 callsubr
          hintmask 00000000
          -144 1338 rmoveto
          hintmask 00101010
          -20 callsubr
          hintmask 00110010
          -78 callsubr
          hintmask 00101010
          -22 callsubr
        </CharString>
        <CharString name="p">
          19 callsubr
          -20 20 hstemhm
          894 23 callsubr
          hintmask 11010000
          -29 callgsubr
          hintmask 10110000
          21 153 rlineto
          hintmask 11010000
          -50 callgsubr
          endchar
        </CharString>
        <CharString name="paragraph">
          163 0 70 1375 126 -122 103 hstemhm
          180 1188 hintmask 00000000
          hintmask 11010000
          256 hmoveto
          329 hlineto
          198 1445 rlineto
          121 64 -8 -9 47 hvcurveto
          -196 -1428 rlineto
          337 hlineto
          8 69 -175 25 rlineto
          hintmask 10110000
          50 417 84 504 49 415 187 19 rcurveline
          9 103 rlineto
          -261 hlineto
          hintmask 11010000
          -105 -89 19 -182 hhcurveto
          -399 -157 -184 -270 5 hvcurveto
          4 -218 135 -120 218 -5 -93 -680 rcurveline
          -182 -24 rlineto
          endchar
        </CharString>
        <CharString name="parenleft">
          -347 1714 -21 hstem
          203 166 vstem
          203 505 rmoveto
          -513 266 -261 74 -50 vhcurveto
          14 hlineto
          86 51 rlineto
          -82 67 -192 263 448 vvcurveto
          74 8 96 11 83 vhcurveto
          90 536 329 337 90 57 -70 48 rcurveline
          -98 -53 -433 -387 -78 -577 rrcurveto
          -10 -77 -5 -73 -69 vvcurveto
          endchar
        </CharString>
        <CharString name="parenright">
          -347 -286 21 hstem
          506 166 vstem
          672 923 rmoveto
          513 -266 261 -74 50 vhcurveto
          -14 hlineto
          -86 -51 rlineto
          82 -67 192 -263 -448 vvcurveto
          -74 -8 -96 -11 -83 vhcurveto
          -90 -536 -329 -337 -90 -57 70 -48 rcurveline
          98 53 433 387 78 577 rrcurveto
          10 77 5 73 69 vvcurveto
          endchar
        </CharString>
        <CharString name="partialdiff">
          163 -24 102 841 103 529 -20 53 98 hstem
          185 148 740 142 vstem
          185 419 rmoveto
          -217 -9 159 -226 242 hhcurveto
          520 118 572 423 284 -117 427 -433 -125 -155 -40 -91 -111 hvcurveto
          65 -55 rlineto
          61 95 83 27 89 hhcurveto
          382 92 -333 -340 -7 hvcurveto
          57 -64 -105 54 -123 hhcurveto
          -270 -311 -241 -362 -15 hvcurveto
          148 43 rmoveto
          291 10 220 166 158 hhcurveto
          170 110 -87 -87 61 hvcurveto
          -3 -30 -4 -30 -4 -29 rrcurveto
          -256 -36 -80 -322 -312 hhcurveto
          -194 -101 203 181 5 hvcurveto
          endchar
        </CharString>
        <CharString name="percent">
          710 -25 callgsubr
          -23 callgsubr
          hintmask 1110111111000000
          410 hmoveto
          17 callgsubr
          hintmask 1101111111000000
          -54 callsubr
          hintmask 1110111111000000
          535 -454 -73 callsubr
          endchar
        </CharString>
        <CharString name="period">
          -675 3 -21 hstemhm
          113 221 hintmask 00000000
          hintmask 11000000
          113 88 -85 callsubr
          endchar
        </CharString>
        <CharString name="periodcentered">
          -515 649 -21 hstemhm
          233 221 hintmask 00000000
          hintmask 11000000
          233 734 -85 callsubr
          endchar
        </CharString>
        <CharString name="perthousand">
          1507 -25 callgsubr
          98 136 411 143 hintmask 0110000000110000
          1824 374 -73 callsubr
          -23 callgsubr
          -1550 -376 rmoveto
          17 callgsubr
          hintmask 1110111111000000
          -54 callsubr
          hintmask 1101111111000000
          535 -454 -73 callsubr
          endchar
        </CharString>
        <CharString name="pi">
          420 -24 129 889 125 hstem
          909 148 vstem
          178 74 rmoveto
          95 -100 175 28 118 92 57 338 rlinecurve
          96 562 rlineto
          318 hlineto
          -89 -528 -26 -164 -13 -153 rrcurveto
          -106 -4 55 -67 108 hhcurveto
          198 133 175 138 35 hvcurveto
          -109 hlineto
          -34 -122 -97 -63 -72 1 -33 1 -35 30 3 67 11 82 18 78 86 631 rrcurveto
          22 hlineto
          167 129 46 174 29 hvcurveto
          -103 hlineto
          -79 -39 -45 -16 -105 hhcurveto
          -666 hlineto
          -136 -129 -47 -116 -71 hvcurveto
          -22 -35 -5 -44 1 -19 102 -14 rcurveline
          21 64 88 87 112 -1 rrcurveto
          76 hlineto
          -113 -516 -42 -189 -13 -151 -252 -64 rlinecurve
          endchar
        </CharString>
        <CharString name="plus">
          165 709 127 hstem
          254 912 vstem
          580 295 rmoveto
          144 hlineto
          30 241 2 43 10 93 1 43 rlinecurve
          129 -6 rlineto
          255 hlineto
          15 127 rlineto
          -255 hlineto
          -132 10 callsubr
          -16 -178 -155 9 rlineto
          -226 hlineto
          -14 -127 rlineto
          225 hlineto
          157 6 -27 -179 rlineto
          endchar
        </CharString>
        <CharString name="plusminus">
          169 30 120 559 127 hstem
          180 983 vstem
          578 295 rmoveto
          144 hlineto
          28 241 3 43 10 93 2 43 rlinecurve
          128 -6 rlineto
          256 hlineto
          14 127 rlineto
          -255 hlineto
          -131 10 callsubr
          -3 -42 -10 -94 -3 -42 rlinecurve
          -156 9 rlineto
          -225 hlineto
          -15 -127 rlineto
          225 hlineto
          158 6 -28 -179 rlineto
          -426 -506 rmoveto
          869 hlineto
          13 120 rlineto
          -869 hlineto
          endchar
        </CharString>
        <CharString name="product">
          360 -172 68 1529 97 -79 79 hstemhm
          326 157 683 157 hintmask 00000000
          hintmask 11011000
          152 -104 rmoveto
          -68 509 68 vlineto
          -178 25 rlineto
          1504 683 -1504 vlineto
          -179 -25 rlineto
          -68 510 68 vlineto
          -174 25 rlineto
          1504 vlineto
          hintmask 10111000
          170 18 rlineto
          hintmask 11011000
          79 -1337 vlineto
          hintmask 10111000
          -79 vlineto
          hintmask 11011000
          170 -18 rlineto
          -1504 vlineto
          endchar
        </CharString>
        <CharString name="q">
          -56 -518 104 -83 -21 498 114 970 99 -24 -20 hstemhm
          73 23 callsubr
          hintmask 01110100
          405 -20 rmoveto
          137 111 81 83 68 hvcurveto
          -41 -282 -35 -244 -1 -15 rrcurveto
          -86 -5 37 -35 66 hhcurveto
          112 96 105 26 16 hvcurveto
          hintmask 10101100
          -26 45 rlineto
          -52 -50 -35 -20 -28 hhcurveto
          -15 -13 36 38 5 hvcurveto
          212 1479 -90 -10 -6 -7 rlineto
          hintmask 01110100
          22 -57 -81 19 -68 -74 callsubr
          hvcurveto
          25 114 rmoveto
          -116 -77 114 215 271 153 370 299 56 57 -12 -30 43 hvcurveto
          -14 -104 -59 -418 -51 -356 35 43 24 44 9 33 -19 67 rcurveline
          -83 -40 -137 -154 -163 hhcurveto
          endchar
        </CharString>
        <CharString name="question">
          -181 3 -21 1685 -21 38 129 hstemhm
          306 147 -129 238 305 138 hintmask 00000000
          hintmask 11110100
          386 464 rmoveto
          15 -1 102 40 rlineto
          -17 43 -33 81 68 275 552 -51 454 vvcurveto
          211 -95 229 -354 -79 -95 -23 -30 -29 vhcurveto
          -22 -114 rlineto
          26 51 70 12 62 hhcurveto
          191 162 -133 -246 -29 -3 -28 -9 -31 hvcurveto
          -31 -73 -111 -64 -110 -60 rrcurveto
          -165 -91 -132 -76 -131 vvcurveto
          -100 35 -113 45 -45 vhcurveto
          hintmask 11101100
          -62 -391 rmoveto
          -58 -1 39 -33 51 hhcurveto
          66 81 55 90 2 hvcurveto
          50 1 -28 33 -66 hhcurveto
          -61 -83 -60 -77 -1 hvcurveto
          endchar
        </CharString>
        <CharString name="questiondown">
          -173 -399 129 1474 228 hstemhm
          84 138 253 238 -41 147 hintmask 00000000
          hintmask 11110000
          567 1204 rmoveto
          62 83 60 77 1 hvcurveto
          58 1 -40 33 -50 hhcurveto
          -66 -82 -55 -90 -1 hvcurveto
          -50 -1 28 -33 65 hhcurveto
          hintmask 11101000
          -483 -1163 rmoveto
          -211 95 -229 354 75 90 23 30 28 vhcurveto
          22 114 rlineto
          -26 -48 -66 -12 -58 hhcurveto
          -192 -162 133 246 29 3 28 9 31 hvcurveto
          31 73 111 64 110 60 rrcurveto
          165 91 168 66 141 vvcurveto
          100 -34 113 -46 45 vhcurveto
          -14 1 -103 -40 rlineto
          18 -43 32 -81 -68 -266 -588 42 -454 vvcurveto
          endchar
        </CharString>
        <CharString name="quotedbl">
          -198 966 721 hstemhm
          266 268 211 268 hintmask 11000000
          266 966 -8 callgsubr
          hintmask 10100000
          393 -721 -8 callgsubr
          endchar
        </CharString>
        <CharString name="quotedblbase">
          -40 -467 21 -4 21 hstemhm
          286 175 304 175 hintmask 00000000
          hintmask 10100000
          283 281 -68 callsubr
          hintmask 00000000
          479 hmoveto
          -50 callsubr
          hintmask 10010000
          -32 callsubr
          hintmask 01010000
          -69 callsubr
          endchar
        </CharString>
        <CharString name="quotedblleft">
          -40 1668 -21 38 -21 hstemhm
          217 175 304 175 hintmask 00000000
          hintmask 01010000
          874 937 rmoveto
          -12 callgsubr
          hintmask 10010000
          8 callsubr
          hintmask 01010000
          -41 callgsubr
          hintmask 00000000
          -479 hmoveto
          -12 callgsubr
          hintmask 01100000
          8 callsubr
          hintmask 10100000
          -41 callgsubr
          endchar
        </CharString>
        <CharString name="quotedblright">
          -40 23 callgsubr
          304 175 hintmask 00000000
          hintmask 10010000
          946 1720 -29 callsubr
          hintmask 01010000
          -32 callsubr
          hintmask 10010000
          -69 callsubr
          hintmask 00000000
          -479 hmoveto
          -50 callsubr
          hintmask 10100000
          -32 callsubr
          hintmask 01100000
          -69 callsubr
          endchar
        </CharString>
        <CharString name="quoteleft">
          -519 1668 -21 38 -21 hstemhm
          217 175 hintmask 00000000
          hintmask 01100000
          395 937 rmoveto
          -12 callgsubr
          hintmask 10100000
          8 callsubr
          hintmask 01100000
          -41 callgsubr
          endchar
        </CharString>
        <CharString name="quotereversed">
          -519 936 784 hstem
          238 154 vstem
          446 936 rmoveto
          56 57 4 18 rlineto
          -62 26 -52 88 110 vvcurveto
          117 76 187 155 30 vhcurveto
          8 33 -69 118 rlineto
          -200 -57 -124 -191 -189 vvcurveto
          -160 95 -129 113 -58 vhcurveto
          endchar
        </CharString>
        <CharString name="quoteright">
          -519 23 callgsubr
          hintmask 00000000
          hintmask 10100000
          467 1720 -68 callsubr
          endchar
        </CharString>
        <CharString name="quotesinglbase">
          -519 -467 21 -4 21 hstemhm
          286 175 hintmask 00000000
          hintmask 10100000
          283 281 -68 callsubr
          endchar
        </CharString>
        <CharString name="quotesingle">
          -677 966 721 hstem
          256 268 vstem
          256 966 -8 callgsubr
          endchar
        </CharString>
        <CharString name="r">
          -377 21 -11 callsubr
          hstemhm
          133 715 hintmask 00000000
          hintmask 11001000
          -57 callsubr
          hintmask 10101000
          34 166 rlineto
          hintmask 11001000
          -41 callsubr
          hintmask 10011000
          29 254 rlineto
          hintmask 11001000
          -17 callsubr
          endchar
        </CharString>
        <CharString name="racute">
          -377 21 -11 callsubr
          112 -1 callgsubr
          133 715 -461 435 -58 callgsubr
          164 253 -91 callsubr
        </CharString>
        <CharString name="radical">
          386 -353 2270 hstem
          82 1579 vstem
          129 490 rmoveto
          31 16 81 52 35 18 296 -929 rcurveline
          152 hlineto
          937 2270 rlineto
          -163 hlineto
          -831 -2082 -247 874 rlineto
          -149 hlineto
          -189 -131 rlineto
          endchar
        </CharString>
        <CharString name="rcaron">
          -377 21 -11 callsubr
          112 395 hstemhm
          133 715 -660 684 -58 callgsubr
          148 253 -82 callsubr
        </CharString>
        <CharString name="rcommaaccent">
          -377 -539 -21 581 -11 callsubr
          hstemhm
          133 715 -684 152 hintmask 00000000
          hintmask 01100100
          -57 callsubr
          hintmask 01010100
          34 166 rlineto
          hintmask 01100100
          -41 callsubr
          hintmask 01001100
          29 254 rlineto
          hintmask 01100100
          -17 callsubr
          hintmask 10000010
          -169 -1149 -102 callsubr
          endchar
        </CharString>
        <CharString name="registered">
          567 52 86 237 63 -63 77 299 66 355 73 229 85 hstemhm
          178 97 390 114 365 126 322 97 -23 callgsubr
          hintmask 1101111111000000
          178 806 -48 callsubr
          -368 -291 -300 18 callgsubr
          297 -431 rmoveto
          326 61 hlineto
          hintmask 1011111111000000
          -119 16 rlineto
          299 126 vlineto
          hintmask 1101111111000000
          -78 179 37 -298 79 hhcurveto
          138 63 hlineto
          -23 -24 3 8 -19 hvcurveto
          -78 50 -26 188 -140 78 rrcurveto
          195 29 47 109 111 vvcurveto
          138 -3 -108 93 -205 hhcurveto
          -147 -2 -22 -5 -70 2 rrcurveto
          -143 -67 hlineto
          93 -19 rlineto
          hintmask 1011111111000000
          -702 vlineto
          hintmask 1101111111000000
          -93 -16 rlineto
          207 387 rmoveto
          339 vlineto
          10 49 50 0 55 hhcurveto
          134 77 -60 -115 -94 -70 -85 -121 -1 hvcurveto
          -54 -84 0 6 -36 hvcurveto
          endchar
        </CharString>
        <CharString name="ring">
          -479 1256 64 393 65 hstem
          100 105 394 104 vstem
          371 1256 -78 callgsubr
        </CharString>
        <CharString name="ring.cap">
          -479 1481 65 378 66 hstem
          564 106 vstem
          338 1481 -55 callgsubr
        </CharString>
        <CharString name="s">
          -15 callgsubr
          hstem
          139 154 264 152 vstem
          25 43 -102 callgsubr
          endchar
        </CharString>
        <CharString name="sacute">
          -15 callgsubr
          92 474 21 callsubr
          136 435 -307 152 hintmask 11010100
          25 43 -102 callgsubr
          hintmask 00101000
          418 1091 -91 callsubr
        </CharString>
        <CharString name="scaron">
          -15 callgsubr
          92 395 21 callsubr
          -63 684 -357 152 hintmask 11010100
          25 43 -102 callgsubr
          hintmask 00101000
          402 1091 -82 callsubr
        </CharString>
        <CharString name="scedilla">
          -367 -464 116 328 109 -78 -21 1069 104 21 callsubr
          38 105 121 152 hintmask 00000000
          hintmask 11011110
          25 43 rmoveto
          -32 35 133 -31 121 hhcurveto
          13 hlineto
          6 -29 2 -37 -4 -56 -72 callgsubr
          hintmask 10111110
          6 74 -5 65 -16 45 rrcurveto
          161 31 127 104 167 vvcurveto
          168 -143 101 -95 72 vhcurveto
          -86 63 -102 82 10 120 rrcurveto
          108 10 90 53 122 hhcurveto
          126 81 -54 -18 12 hvcurveto
          33 135 rlineto
          16 -33 -104 25 -107 hhcurveto
          -203 -181 -116 -198 -165 145 -115 72 -56 hvcurveto
          83 -64 118 -67 -120 vvcurveto
          hintmask 11011110
          -136 -117 -37 -117 -135 -91 44 31 -43 vhcurveto
          endchar
        </CharString>
        <CharString name="scircumflex">
          -15 callgsubr
          63 424 21 callsubr
          -122 685 -299 152 hintmask 11010100
          25 43 -102 callgsubr
          hintmask 00101000
          163 1064 -91 callgsubr
        </CharString>
        <CharString name="second">
          -191 1190 592 hstemhm
          308 253 135 253 hintmask 11000000
          308 1190 -8 callsubr
          hintmask 10100000
          299 -592 -8 callsubr
          endchar
        </CharString>
        <CharString name="section">
          -7 -186 92 1681 86 hstem
          925 140 vstem
          55 -100 rmoveto
          -35 51 197 -51 165 hhcurveto
          195 308 97 283 33 hvcurveto
          10 87 -28 64 -49 52 66 80 46 105 13 97 53 406 -754 -48 36 310 23 190 199 49 109 1 94 1 122 -19 40 -47 35 -226 rcurveline
          77 hlineto
          37 301 rlineto
          34 -54 -145 42 -184 hhcurveto
          -155 -313 -86 -279 -34 hvcurveto
          -12 -93 31 -68 54 -54 -72 -78 -55 -112 -12 -93 -46 -398 759 58 -37 -300 rrcurveto
          -210 -26 -202 -54 -138 hhcurveto
          -104 -108 15 77 -71 hvcurveto
          -20 232 rlineto
          -94 hlineto
          223 638 rmoveto
          8 58 30 62 34 50 209 -138 357 -44 -31 -240 -7 -54 -24 -58 -28 -47 -209 138 -366 38 27 235 rrcurveto
          endchar
        </CharString>
        <CharString name="semicolon">
          -675 -480 -21 hstemhm
          216 162 vstemhm
          -43 callsubr
          92 738 -85 callsubr
          endchar
        </CharString>
        <CharString name="seven">
          -81 1029 117 -37 37 hstemhm
          107 960 hintmask 00000000
          hintmask 10100000
          259 -262 rmoveto
          166 -53 rlineto
          hintmask 01100000
          642 1424 rlineto
          hintmask 10100000
          -28 37 rlineto
          -862 hlineto
          -70 -329 103 -4 90 211 604 10 rlineto
          endchar
        </CharString>
        <CharString name="six">
          91 -20 88 808 99 hstem
          156 166 638 167 vstem
          156 469 rmoveto
          -273 139 -216 272 338 222 329 292 190 -106 184 -260 -183 -126 -76 -56 -67 vhcurveto
          99 291 235 253 316 115 -24 69 rcurveline
          -492 -137 -363 -481 -484 vvcurveto
          166 -15 rmoveto
          85 11 79 18 78 vhcurveto
          53 46 117 127 210 hhcurveto
          140 96 -114 -199 -208 -109 -287 -248 -193 -88 156 230 hvcurveto
          endchar
        </CharString>
        <CharString name="slash">
          -347 -362 1959 hstem
          -117 1001 vstem
          21 -362 rmoveto
          863 1959 rlineto
          -139 hlineto
          -862 -1959 rlineto
          endchar
        </CharString>
        <CharString name="space">
          -716 endchar
        </CharString>
        <CharString name="sterling">
          167 -24 89 -60 -21 765 105 582 113 hstemhm
          1111 160 hintmask 00000000
          hintmask 01111000
          23 60 rmoveto
          -63 -9 38 -13 34 hhcurveto
          71 91 53 57 46 hvcurveto
          hintmask 10111000
          -42 135 175 -76 205 hhcurveto
          380 81 197 149 1 hvcurveto
          115 -56 99 -79 65 vhcurveto
          -109 -103 rlineto
          38 -33 46 -77 -75 vvcurveto
          -158 -94 -90 -221 -173 -141 78 28 -116 vhcurveto
          88 128 44 119 34 229 3 21 5 38 8 43 rrcurveto
          341 hlineto
          14 105 rlineto
          -336 hlineto
          10 59 10 56 4 30 rrcurveto
          331 48 130 106 124 hhcurveto
          129 96 -72 -32 22 hvcurveto
          90 135 rlineto
          68 -64 -81 14 -113 hhcurveto
          -281 1 -211 -264 -43 -289 -24 -143 rcurveline
          -186 hlineto
          -15 -105 rlineto
          184 hlineto
          -42 -260 -14 -94 -36 -142 -43 -54 rlinecurve
          hintmask 01111000
          -115 -114 -80 -59 -9 hvcurveto
          endchar
        </CharString>
        <CharString name="summation">
          390 -171 95 1507 91 -65 65 hstemhm
          230 1142 hintmask 00000000
          hintmask 11010000
          230 -129 rmoveto
          21 -42 1073 -1 48 311 -87 19 -91 -226 -782 -16 557 778 -554 744 780 -14 54 -186 rlineto
          97 hlineto
          -27 284 rlineto
          -1064 hlineto
          hintmask 10110000
          -25 -65 567 -778 rlineto
          endchar
        </CharString>
        <CharString name="t">
          -495 -20 112 951 112 hstem
          150 162 vstem
          150 147 rmoveto
          -117 67 -50 109 112 146 85 51 42 vhcurveto
          -14 64 rlineto
          -89 callgsubr
          endchar
        </CharString>
        <CharString name="tbar">
          -495 -20 112 542 105 304 112 hstem
          150 162 vstem
          150 147 rmoveto
          -117 67 -50 109 112 146 85 51 42 vhcurveto
          -14 64 rlineto
          -30 -40 -102 -58 -61 hhcurveto
          -79 -18 24 72 33 5 54 9 69 hvcurveto
          40 290 rlineto
          297 hlineto
          12 105 rlineto
          -295 hlineto
          42 304 rlineto
          259 hlineto
          16 112 rlineto
          -261 hlineto
          33 261 rlineto
          -76 hlineto
          -29 -84 -48 -132 -35 -49 -127 -38 rcurveline
          -16 -70 rlineto
          124 hlineto
          -40 -304 rlineto
          -129 hlineto
          -12 -105 rlineto
          127 hlineto
          -47 -366 rlineto
          -11 -84 0 -23 -14 vvcurveto
          endchar
        </CharString>
        <CharString name="tcaron">
          -487 -20 112 951 112 100 635 hstemhm
          150 162 403 143 hintmask 11010000
          150 147 rmoveto
          -117 67 -50 109 112 146 85 51 42 vhcurveto
          -14 64 rlineto
          -89 callgsubr
          hintmask 00101000
          545 1108 -82 callgsubr
        </CharString>
        <CharString name="thorn">
          19 callsubr
          387 -20 hstem
          894 164 vstem
          99 -5 rmoveto
          -69 -515 rlineto
          153 hlineto
          58 411 14 114 rlineto
          -14 52 63 -11 54 -81 callgsubr
          endchar
        </CharString>
        <CharString name="three">
          -73 -327 93 653 63 569 111 hstemhm
          757 183 -164 178 hintmask 00000000
          hintmask 11110000
          67 -223 rmoveto
          -11 -92 rlineto
          -8 64 53 -4 50 hhcurveto
          350 367 195 308 162 -103 144 -251 hvcurveto
          hintmask 11101000
          186 66 182 152 181 vvcurveto
          196 -157 85 -170 -214 -173 -99 -65 -67 vhcurveto
          34 -81 rlineto
          65 89 110 69 151 hhcurveto
          129 90 -62 -138 -200 -232 -127 -243 -58 hvcurveto
          -12 -95 21 7 128 31 23 10 rlinecurve
          hintmask 11110000
          216 -2 80 -108 -154 vvcurveto
          -248 -269 -141 -278 -39 -53 5 6 -51 vhcurveto
          endchar
        </CharString>
        <CharString name="threequarters">
          1362 172 87 -87 131 249 103 397 -21 49 72 404 106 hstemhm
          883 165 -155 168 293 991 -23 callgsubr
          hintmask 0101000010000000
          1855 -176 -42 callgsubr
          hintmask 1001000010000000
          -47 callgsubr
          -23 callgsubr
          -1641 452 -21 callsubr
          hintmask 0010111000000000
          -52 callgsubr
          hintmask 0010110100000000
          -13 callgsubr
          hintmask 0010111000000000
          600 -712 rmoveto
          -26 callgsubr
          endchar
        </CharString>
        <CharString name="threesuperior">
          -130 552 103 425 72 404 106 hstemhm
          806 165 -155 168 hintmask 00000000
          hintmask 11110000
          185 624 -21 callsubr
          hintmask 11101000
          -52 callgsubr
          hintmask 11110000
          -13 callgsubr
          endchar
        </CharString>
        <CharString name="tilde">
          -385 1374 -30 callsubr
          -101 -20 hstemhm
          50 706 2 callgsubr
          88 1416 rmoveto
          hintmask 11010000
          -20 callsubr
          hintmask 10110000
          -78 callsubr
          hintmask 11010000
          -22 callsubr
        </CharString>
        <CharString name="tilde.cap">
          -388 1689 3 callgsubr
          54 707 hintmask 00000000
          hintmask 10100000
          93 1731 rmoveto
          hintmask 11100000
          37 43 65 62 58 -1 rrcurveto
          hintmask 10100000
          -2 111 3 -144 156 hhcurveto
          107 98 79 95 33 hvcurveto
          -48 75 rlineto
          -46 -32 -48 -73 -80 -97 -31 146 -130 hhcurveto
          hintmask 11100000
          -101 -97 -82 -83 -43 hvcurveto
          endchar
        </CharString>
        <CharString name="trademark">
          919 754 68 -6 7 625 82 -72 72 hstemhm
          794 52 946 128 hintmask 00000000
          hintmask 10101100
          861 754 rmoveto
          311 hlineto
          9 62 -107 13 80 457 rlineto
          hintmask 10011100
          28 172 46 -165 153 -547 rlineto
          86 hlineto
          315 624 41 85 -19 -238 -23 -388 -113 -13 -9 -62 rlineto
          348 hlineto
          hintmask 01011100
          9 62 -109 13 27 625 109 8 rlineto
          hintmask 10101100
          9 68 rlineto
          -292 hlineto
          -300 -603 -39 144 -122 459 rlineto
          -295 hlineto
          hintmask 10011100
          -9 -68 102 -8 -113 -625 -114 -13 rlineto
          -650 -62 rmoveto
          427 hlineto
          9 62 -147 15 rlineto
          hintmask 10101100
          86 624 199 -11 1 -151 52 4 32 233 rlineto
          -676 hlineto
          -52 -235 54 1 59 147 194 10 -86 -623 -143 -14 rlineto
          endchar
        </CharString>
        <CharString name="two">
          72 0 116 936 110 hstem
          883 172 vstem
          107 hmoveto
          933 hlineto
          79 276 -81 29 -93 -174 -638 -30 rlineto
          354 180 394 268 286 vvcurveto
          170 -112 157 -260 -212 -173 -113 -85 -81 vhcurveto
          43 -72 rlineto
          63 76 137 97 159 hhcurveto
          162 89 -88 -155 -269 -400 -281 -390 -192 hvcurveto
          endchar
        </CharString>
        <CharString name="twosuperior">
          -38 655 111 776 123 hstem
          875 161 vstem
          235 655 -56 callsubr
          endchar
        </CharString>
        <CharString name="u">
          -77 callgsubr
          endchar
        </CharString>
        <CharString name="uacute">
          -66 callsubr
          112 474 -26 callsubr
          248 435 -232 -104 callgsubr
          447 1001 -91 callsubr
        </CharString>
        <CharString name="ubreve">
          -66 callsubr
          161 118 -26 callsubr
          64 89 298 -104 callgsubr
          509 1050 -96 callgsubr
        </CharString>
        <CharString name="ucircumflex">
          -66 callsubr
          83 424 -26 callsubr
          -10 685 -224 -104 callgsubr
          192 974 -91 callgsubr
        </CharString>
        <CharString name="udieresis">
          -77 callgsubr
          hintmask 00000000
          722 1152 -98 callsubr
        </CharString>
        <CharString name="ugrave">
          -66 callsubr
          112 474 -26 callsubr
          -29 421 59 -104 callgsubr
          504 1001 -76 callgsubr
        </CharString>
        <CharString name="uhungarumlaut">
          -66 callsubr
          114 450 -26 callsubr
          71 788 -408 -104 callgsubr
          704 1003 -60 callgsubr
        </CharString>
        <CharString name="umacron">
          -66 callsubr
          289 119 -26 callsubr
          83 514 -146 -104 callgsubr
          239 1178 -70 callgsubr
        </CharString>
        <CharString name="underscore">
          134 -338 120 hstem
          -111 1394 vstem
          -95 -218 rmoveto
          -16 -120 rlineto
          1378 hlineto
          16 120 rlineto
          endchar
        </CharString>
        <CharString name="uni0001">
          endchar
        </CharString>
        <CharString name="uni0002">
          endchar
        </CharString>
        <CharString name="uni0003">
          endchar
        </CharString>
        <CharString name="uni0004">
          endchar
        </CharString>
        <CharString name="uni0005">
          endchar
        </CharString>
        <CharString name="uni0006">
          endchar
        </CharString>
        <CharString name="uni0007">
          endchar
        </CharString>
        <CharString name="uni0008">
          endchar
        </CharString>
        <CharString name="uni0015">
          endchar
        </CharString>
        <CharString name="uni0016">
          endchar
        </CharString>
        <CharString name="uni0017">
          endchar
        </CharString>
        <CharString name="uni0018">
          endchar
        </CharString>
        <CharString name="uni0019">
          endchar
        </CharString>
        <CharString name="uni00AD">
          505 endchar
        </CharString>
        <CharString name="uni0162">
          34 -462 116 346 5 callgsubr
          hstemhm
          496 108 hintmask 00000000
          hintmask 11101000
          221 hmoveto
          267 hlineto
          8 -32 5 -40 -5 -68 -72 callgsubr
          7 79 -7 67 -18 46 rrcurveto
          290 -77 callsubr
          hintmask 11011000
          -38 callgsubr
          endchar
        </CharString>
        <CharString name="uni0163">
          -495 -464 116 353 -21 23 -21 1057 112 hstemhm
          150 162 -39 108 hintmask 00000000
          hintmask 10111000
          150 147 rmoveto
          -95 44 -51 74 -15 vhcurveto
          hintmask 11010100
          6 -31 3 -38 -4 -59 -72 callgsubr
          6 71 -4 62 -15 45 105 16 119 71 37 45 -14 64 rcurveline
          hintmask 10111000
          -89 callgsubr
          endchar
        </CharString>
        <CharString name="uni0218">
          -107 -539 -21 537 97 1381 95 hstemhm
          221 157 13 152 253 158 hintmask 10001000
          324 -72 callsubr
          hintmask 01110100
          -372 117 rmoveto
          -37 48 172 -51 185 hhcurveto
          278 226 165 282 -5 hvcurveto
          -104 callsubr
          endchar
        </CharString>
        <CharString name="uni0219">
          -367 -539 -21 540 109 970 104 21 callsubr
          10 152 102 152 hintmask 10001000
          236 -72 callsubr
          hintmask 01110100
          -309 95 -102 callgsubr
          endchar
        </CharString>
        <CharString name="uni021A">
          34 -539 -21 560 84 1349 97 hstemhm
          107 1211 -826 152 hintmask 10001000
          425 -72 callsubr
          hintmask 00000000
          -302 52 rmoveto
          652 -77 callsubr
          hintmask 01110000
          -38 callgsubr
          endchar
        </CharString>
        <CharString name="uni021B">
          -495 -539 -21 540 112 951 112 hstemhm
          150 162 -5 152 hintmask 10001000
          240 -72 callsubr
          hintmask 01110000
          -188 199 rmoveto
          -117 67 -50 109 112 146 85 51 42 vhcurveto
          -14 64 rlineto
          -89 callgsubr
          endchar
        </CharString>
        <CharString name="uni02c9">
          -564 1756 99 hstem
          50 537 vstem
          50 1756 rmoveto
          536 hlineto
          1 99 rlineto
          -536 hlineto
          endchar
        </CharString>
        <CharString name="uni0394">
          -44 callgsubr
        </CharString>
        <CharString name="uni03A9">
          -83 callgsubr
        </CharString>
        <CharString name="uni03BC">
          -86 callsubr
        </CharString>
        <CharString name="uni1E02">
          7 callsubr
          156 -31 callsubr
          624 213 185 170 -151 159 -23 callgsubr
          hintmask 0110010010000000
          19 callgsubr
          hintmask 1010010010000000
          -5 callgsubr
          hintmask 1010010001000000
          -6 callsubr
          hintmask 1011000010000000
          -99 -93 -13 -2 -91 hvcurveto
          -237 hlineto
          hintmask 1010100010000000
          -10 -81 rlineto
          hintmask 0111000010000000
          -16 callsubr
          -146 -25 rlineto
          408 779 rmoveto
          hintmask 1010010001000000
          -23 callsubr
          hintmask 0111000010000000
          -68 -84 -3 3 -67 hvcurveto
          hintmask 1010010010000000
          -34 callgsubr
          hintmask 0000001100000000
          359 1598 -95 callgsubr
        </CharString>
        <CharString name="uni1E03">
          -54 -20 98 -62 -21 1053 115 258 221 -92 -20 hstemhm
          734 212 -52 23 callsubr
          hintmask 01101010
          99 -5 rmoveto
          hintmask 10101010
          80 36 rlineto
          -25 56 105 -26 84 -81 callgsubr
          hintmask 00010100
          553 1291 -103 callsubr
          endchar
        </CharString>
        <CharString name="uni1E0A">
          -19 callgsubr
          155 -31 callsubr
          725 213 271 -73 callgsubr
          460 1595 -95 callgsubr
        </CharString>
        <CharString name="uni1E0B">
          -31 -20 114 971 98 258 221 -94 -20 hstemhm
          76 164 139 212 148 162 hintmask 11011010
          -90 callgsubr
          hintmask 00100100
          37 1327 -103 callsubr
          endchar
        </CharString>
        <CharString name="uni1E1E">
          16 callgsubr
          -3 callgsubr
          39 1143 -513 213 hintmask 00000000
          hintmask 11100100
          -37 callsubr
          hintmask 11010100
          -10 -81 1 callsubr
          -24 rlineto
          hintmask 00001010
          713 1631 -95 callgsubr
        </CharString>
        <CharString name="uni1E1F">
          -525 -27 callsubr
          75 221 14 callgsubr
          -528 212 hintmask 00000000
          hintmask 10101010
          138 -127 rmoveto
          -21 -158 -42 -118 -89 -1 -74 -1 -67 29 -13 6 rrcurveto
          hintmask 01101010
          -42 -124 rlineto
          hintmask 10110010
          -103 callgsubr
          hintmask 10101010
          46 134 rlineto
          hintmask 10110010
          -94 callgsubr
          hintmask 00000101
          156 679 -103 callsubr
          endchar
        </CharString>
        <CharString name="uni1E40">
          15 callsubr
          -3 callgsubr
          -61 1907 -881 213 hintmask 00000000
          hintmask 10010100
          6 callsubr
          hintmask 01100100
          -13 callsubr
          hintmask 10010100
          -53 callsubr
          hintmask 00001010
          1108 1631 -95 callgsubr
        </CharString>
        <CharString name="uni1E41">
          679 -20 105 -64 -21 1037 126 -20 20 -3 callsubr
          893 159 -122 212 292 161 -61 160 -23 callgsubr
          hintmask 0110010010000000
          -59 callgsubr
          hintmask 1010010100000000
          -42 callsubr
          hintmask 0110010010000000
          -40 callgsubr
          hintmask 0101010010000000
          26 255 rlineto
          hintmask 0110010010000000
          -40 20 -210 -42 -14 -72 97 -47 rlineto
          hintmask 0000101000000000
          775 419 -103 callsubr
          endchar
        </CharString>
        <CharString name="uni1E56">
          11 callsubr
          154 -31 callsubr
          752 213 99 163 hintmask 00000000
          hintmask 11001001
          -35 callsubr
          hintmask 11100001
          -105 -82 -17 -106 hhcurveto
          -233 hlineto
          hintmask 11010001
          -10 -81 rlineto
          hintmask 11100001
          4 callgsubr
          hintmask 11001001
          -25 callsubr
          hintmask 11100001
          -59 -71 7 10 -61 hvcurveto
          hintmask 00000110
          416 1044 -95 callgsubr
        </CharString>
        <CharString name="uni1E57">
          19 callsubr
          -20 20 -3 callsubr
          625 212 57 23 callsubr
          hintmask 11000100
          -29 callgsubr
          hintmask 10100100
          21 153 rlineto
          hintmask 11000100
          -50 callgsubr
          hintmask 00011000
          436 1297 -103 callsubr
          endchar
        </CharString>
        <CharString name="uni1E60">
          -7 callsubr
          151 -31 callsubr
          221 157 245 213 -40 158 hintmask 11010100
          50 65 rmoveto
          -37 48 172 -51 185 hhcurveto
          278 226 165 282 -5 hvcurveto
          -104 callsubr
          hintmask 00101000
          622 1358 -95 callgsubr
        </CharString>
        <CharString name="uni1E61">
          -15 callgsubr
          258 221 21 callsubr
          158 212 -106 152 hintmask 11010100
          25 43 -102 callgsubr
          hintmask 00101000
          488 1257 -103 callsubr
          endchar
        </CharString>
        <CharString name="uni1E6A">
          34 0 5 callgsubr
          -3 callgsubr
          107 1211 -642 213 hintmask 00000000
          hintmask 11001000
          221 hmoveto
          652 -77 callsubr
          hintmask 10101000
          -38 callgsubr
          hintmask 00010100
          538 1626 -95 callgsubr
        </CharString>
        <CharString name="uni1E6B">
          -495 -20 112 951 112 371 -31 callsubr
          150 162 34 212 hintmask 11010000
          150 147 rmoveto
          -117 67 -50 109 112 146 85 51 42 vhcurveto
          -14 64 rlineto
          -89 callgsubr
          hintmask 00101000
          287 1379 -103 callsubr
          endchar
        </CharString>
        <CharString name="uni2113">
          13 -29 90 1488 131 hstem
          293 105 546 128 vstem
          86 118 rmoveto
          62 -47 61 47 61 50 59 51 rlinecurve
          -160 49 96 -88 126 hhcurveto
          220 139 206 221 46 hvcurveto
          -130 20 rlineto
          -213 -32 -128 -144 -115 hhcurveto
          -72 -75 82 157 -35 hvcurveto
          367 340 287 409 404 vvcurveto
          133 -66 94 -114 -341 -258 -634 -547 -69 5 -63 10 -56 vhcurveto
          -69 -65 -74 -65 -79 -63 rrcurveto
          316 285 rmoveto
          -3 30 -1 33 35 vvcurveto
          441 241 607 221 53 31 -52 -60 -315 -194 -364 -348 -355 vhcurveto
          endchar
        </CharString>
        <CharString name="uni2215">
          -347 -363 1962 hstem
          -20 894 vstem
          -20 -363 rmoveto
          119 hlineto
          775 1962 rlineto
          -119 hlineto
          endchar
        </CharString>
        <CharString name="uni2219">
          -515 649 -21 hstemhm
          233 221 hintmask 00000000
          hintmask 11000000
          233 734 -85 callsubr
          endchar
        </CharString>
        <CharString name="uogonek">
          3 -416 103 293 110 -83 -21 1169 -20 28 -20 -26 callsubr
          281 155 15 160 hintmask 00000000
          hintmask 11001101
          165 254 rmoveto
          -210 96 -64 150 160 126 96 93 82 vhcurveto
          -1 -23 -1 -20 -1 -7 rrcurveto
          hintmask 10101101
          -15 -71 22 -48 52 -14 rrcurveto
          hintmask 11001111
          -69 -39 -72 -43 -56 -79 -22 -29 -12 -43 -2 -40 rrcurveto
          -59 -2 41 -31 callgsubr
          -36 -32 27 60 3 hvcurveto
          1 80 101 76 98 72 71 31 53 60 12 20 -26 45 rcurveline
          hintmask 11010101
          -52 -51 -33 -19 -27 hhcurveto
          -20 -11 21 51 7 hvcurveto
          130 996 rlineto
          -155 hlineto
          -115 -876 rlineto
          -93 -74 -131 -96 -110 hhcurveto
          -94 -62 33 156 106 17 94 15 120 hvcurveto
          hintmask 11001101
          69 543 -40 21 -210 -43 -14 -71 97 -47 -54 -396 rlineto
          -16 -118 -20 -142 -92 vvcurveto
          endchar
        </CharString>
        <CharString name="uring">
          -66 callsubr
          113 64 393 65 -26 callsubr
          94 105 252 160 -18 104 -23 callgsubr
          hintmask 1001001010000000
          165 254 rmoveto
          -210 96 -64 150 160 126 96 93 82 vhcurveto
          -1 -23 -1 -20 -1 -7 rrcurveto
          -85 -18 36 -52 75 hhcurveto
          112 96 104 27 16 hvcurveto
          hintmask 0110001010000000
          -26 45 rlineto
          -52 -51 -33 -19 -27 hhcurveto
          -20 -11 21 51 7 hvcurveto
          130 996 rlineto
          -155 hlineto
          -115 -876 rlineto
          hintmask 1001001010000000
          -93 -74 -131 -96 -110 hhcurveto
          -94 -62 33 156 106 17 94 15 120 hvcurveto
          69 543 -40 21 -210 -43 -14 -71 97 -47 -54 -396 rlineto
          -16 -118 -20 -142 -92 vvcurveto
          hintmask 0000110101000000
          521 1002 -78 callgsubr
        </CharString>
        <CharString name="utilde">
          -66 callsubr
          231 -30 callsubr
          -101 -20 -26 callsubr
          7 706 -262 160 -23 callgsubr
          hintmask 1001000101000000
          165 254 rmoveto
          -210 96 -64 150 160 126 96 93 82 vhcurveto
          -1 -23 -1 -20 -1 -7 rrcurveto
          -85 -18 36 -52 75 hhcurveto
          112 96 104 27 16 hvcurveto
          hintmask 0110000101000000
          -26 45 rlineto
          -52 -51 -33 -19 -27 hhcurveto
          -20 -11 21 51 7 hvcurveto
          130 996 rlineto
          -155 hlineto
          -115 -876 rlineto
          hintmask 1001000101000000
          -93 -74 -131 -96 -110 hhcurveto
          -94 -62 33 156 106 17 94 15 120 hvcurveto
          69 543 -40 21 -210 -43 -14 -71 97 -47 -54 -396 rlineto
          -16 -118 -20 -142 -92 vvcurveto
          -23 callgsubr
          201 1162 rmoveto
          hintmask 0000101010000000
          -20 callsubr
          hintmask 0000110010000000
          -78 callsubr
          hintmask 0000101010000000
          -22 callsubr
        </CharString>
        <CharString name="v">
          -155 1 -21 1069 114 0 -20 hstemhm
          802 185 2 callgsubr
          329 -20 rmoveto
          123 11 240 322 rlineto
          130 191 165 277 194 vvcurveto
          112 -38 76 -72 -44 -31 -27 -59 -38 38 -45 -9 -70 vhcurveto
          -34 -233 -100 -180 -123 -184 -146 -195 rcurveline
          -22 220 -76 674 rlineto
          80 -9 -20 57 -94 hhcurveto
          -94 -74 -84 -21 -13 hvcurveto
          hintmask 11010000
          24 -50 19 16 26 26 30 -1 rlinecurve
          25 -1 14 -28 8 -41 99 -627 rcurveline
          endchar
        </CharString>
        <CharString name="w">
          -85 callgsubr
          endchar
        </CharString>
        <CharString name="wacute">
          -46 callgsubr
          112 -1 callgsubr
          886 435 139 -94 callsubr
          661 932 -91 callsubr
        </CharString>
        <CharString name="wcircumflex">
          -46 callgsubr
          83 424 hstemhm
          628 685 147 -94 callsubr
          406 905 -91 callgsubr
        </CharString>
        <CharString name="wdieresis">
          -85 callgsubr
          hintmask 00000000
          936 1083 -98 callsubr
        </CharString>
        <CharString name="wgrave">
          -46 callgsubr
          112 -1 callgsubr
          609 421 430 -94 callsubr
          718 932 -76 callgsubr
        </CharString>
        <CharString name="x">
          -212 -20 105 -64 -21 1058 105 -8 -20 hstemhm
          -5 1016 hintmask 00000000
          hintmask 01011000
          -5 hmoveto
          168 hlineto
          316 462 132 -377 rlineto
          hintmask 10011000
          -64 21 25 -41 87 hhcurveto
          107 101 108 26 12 hvcurveto
          -30 45 rlineto
          -46 -46 -39 -28 -32 hhcurveto
          -30 -16 24 39 -15 hvcurveto
          -185 416 440 591 rlineto
          -170 hlineto
          -316 -461 -105 365 rlineto
          hintmask 01101000
          65 -21 -31 39 -90 hhcurveto
          -104 -98 -95 -24 -13 hvcurveto
          28 -45 rlineto
          35 42 36 24 30 hhcurveto
          36 12 -26 -36 16 hvcurveto
          169 -407 rlineto
          endchar
        </CharString>
        <CharString name="y">
          -83 callsubr
          endchar
        </CharString>
        <CharString name="yacute">
          -48 callgsubr
          112 -1 callgsubr
          499 435 -116 -93 callgsubr
          370 276 -91 callsubr
        </CharString>
        <CharString name="ycircumflex">
          -48 callgsubr
          83 424 hstemhm
          241 685 -108 -93 callgsubr
          115 249 -91 callgsubr
        </CharString>
        <CharString name="ydieresis">
          -83 callsubr
          hintmask 00000000
          645 427 -98 callsubr
        </CharString>
        <CharString name="yen">
          282 0 70 311 102 255 103 602 87 hstem
          234 1300 vstem
          383 hmoveto
          614 hlineto
          8 70 -240 25 33 286 rlineto
          429 hlineto
          12 102 rlineto
          -429 hlineto
          30 255 rlineto
          428 hlineto
          12 103 rlineto
          -369 hlineto
          476 588 138 23 9 79 rlineto
          -454 hlineto
          -9 -80 164 -15 -359 -471 -74 -122 -49 116 -215 477 198 15 9 80 rlineto
          -490 hlineto
          -9 -80 129 -15 292 -595 rlineto
          -382 hlineto
          -11 -103 rlineto
          428 hlineto
          -30 -255 rlineto
          -426 hlineto
          -12 -102 rlineto
          427 hlineto
          -33 -286 -239 -25 rlineto
          endchar
        </CharString>
        <CharString name="ygrave">
          -48 callgsubr
          112 -1 callgsubr
          222 421 175 -93 callgsubr
          427 276 -76 callgsubr
        </CharString>
        <CharString name="z">
          -30 callgsubr
          hstemhm
          145 53 2 callgsubr
          4 28 rmoveto
          55 -50 8 7 1 1 rlineto
          19 27 38 8 24 119 272 -35 147 hhcurveto
          49 34 9 11 17 hvcurveto
          57 38 19 159 7 120 rrcurveto
          -52 hlineto
          -123 -18 -61 -63 -104 hhcurveto
          -29 -289 6 2 -107 hvcurveto
          97 116 669 863 -46 43 1 4 rlineto
          hintmask 11010000
          -27 -33 -56 -9 -27 hhcurveto
          hintmask 10110000
          -118 -228 36 -152 hhcurveto
          -50 -37 -8 -12 -17 hvcurveto
          -56 -40 -22 -200 2 -85 rrcurveto
          53 hlineto
          7 98 70 83 79 4 12 8 311 -11 97 -3 -125 -147 rcurveline
          endchar
        </CharString>
        <CharString name="zacute">
          -30 callgsubr
          92 -1 callgsubr
          145 53 288 435 -90 callsubr
          -120 405 -91 callsubr
        </CharString>
        <CharString name="zcaron">
          -30 callgsubr
          92 395 hstemhm
          145 53 89 684 -90 callsubr
          -136 405 -82 callsubr
        </CharString>
        <CharString name="zdotaccent">
          -30 callgsubr
          -3 callsubr
          145 53 310 212 -90 callsubr
          -50 571 -103 callsubr
          endchar
        </CharString>
        <CharString name="zero">
          69 -16 89 1001 88 hstem
          129 165 691 166 vstem
          129 450 rmoveto
          -252 121 -214 295 360 246 337 376 244 -104 221 -307 -342 -269 -309 -403 vhcurveto
          165 12 rmoveto
          266 121 346 304 194 72 -158 -234 -290 -139 -319 -284 -194 -74 181 208 vhcurveto
          endchar
        </CharString>
      <CharString index="0">
        178 426 rmoveto
        -276 5 159 -170 286 hhcurveto
        343 195 175 472 61 hvcurveto
        120 804 129 18 9 81 rlineto
        -404 hlineto
        -9 -81 135 -20 -119 -802 rlineto
        -378 -45 -141 -180 -251 hhcurveto
        -205 -101 133 216 -4 hvcurveto
        -1 57 3 59 8 73 123 822 rcurveline
        154 21 9 80 rlineto
        -455 hlineto
        -10 -80 139 -19 -125 -838 -6 -59 -3 -56 1 -52 rlinecurve
        return
      </CharString>
      <CharString index="1">
        83 437 rmoveto
        -226 -6 108 -231 288 hhcurveto
        194 147 127 79 57 hvcurveto
        -38 68 rlineto
        -115 -115 -118 -47 -108 hhcurveto
        -207 -49 222 153 14 hvcurveto
        199 5 491 127 314 vvcurveto
        141 -92 109 -190 -328 -237 -347 -379 -10 vhcurveto
        171 120 rmoveto
        213 21 125 299 221 hhcurveto
        95 60 -57 -113 -212 -306 -123 -216 -7 hvcurveto
        return
      </CharString>
      <CharString index="2">
        606 -20 rmoveto
        398 309 398 511 -8 hvcurveto
        363 -6 -162 298 -330 hhcurveto
        -393 -318 -395 -514 10 hvcurveto
        -401 8 187 -260 305 hhcurveto
        22 96 rmoveto
        -255 2 -94 242 -6 362 rrcurveto
        427 -7 225 345 293 hhcurveto
        263 85 -263 -343 7 hvcurveto
        9 -446 -231 -327 -289 1 rrcurveto
        return
      </CharString>
      <CharString index="3">
        160 hintmask 00000000
        hintmask 10010101
        165 254 rmoveto
        -210 96 -64 150 160 126 96 93 82 vhcurveto
        -1 -23 -1 -20 -1 -7 rrcurveto
        -85 -18 36 -52 75 hhcurveto
        112 96 104 27 16 hvcurveto
        hintmask 01100101
        -26 45 rlineto
        -52 -51 -33 -19 -27 hhcurveto
        -20 -11 21 51 7 hvcurveto
        130 996 rlineto
        -155 hlineto
        -115 -876 rlineto
        hintmask 10010101
        -93 -74 -131 -96 -110 hhcurveto
        -94 -62 33 156 106 17 94 15 120 hvcurveto
        69 543 -40 21 -210 -43 -14 -71 97 -47 -54 -396 rlineto
        -16 -118 -20 -142 -92 vvcurveto
        hintmask 00001010
        return
      </CharString>
      <CharString index="4">
        28 -8 68 -12 66 1 192 2 115 173 33 264 141 1114 rcurveline
        262 hlineto
        12 115 rlineto
        -251 hlineto
        13 108 21 177 75 -14 callsubr
        1 rlinecurve
        73 1 47 -27 26 -17 rrcurveto
        return
      </CharString>
      <CharString index="5">
        rmoveto
        -32 35 133 -31 121 hhcurveto
        209 186 110 202 168 -143 101 -95 72 hvcurveto
        -86 63 -102 82 10 120 rrcurveto
        108 10 90 53 122 hhcurveto
        126 81 -54 -18 12 hvcurveto
        33 135 rlineto
        16 -33 -104 25 -107 hhcurveto
        -203 -181 -116 -198 -165 145 -115 72 -56 hvcurveto
        83 -64 118 -67 -120 vvcurveto
        -136 -117 -37 -117 -135 -91 44 31 -43 vhcurveto
        return
      </CharString>
      <CharString index="6">
        rmoveto
        -40 -148 rlineto
        -17 40 91 -18 88 hhcurveto
        197 287 115 316 46 hvcurveto
        193 1240 -116 -41 rlineto
        21 -56 -79 20 -76 -74 callsubr
        140 116 85 85 69 hvcurveto
        -44 -281 rlineto
        -190 -30 -79 -60 -182 hhcurveto
        -101 -99 31 25 -56 hvcurveto
        291 419 rmoveto
        -123 -70 123 206 258 145 384 308 60 63 -13 -36 46 hvcurveto
        -108 -727 rlineto
        -84 -58 -125 -111 -138 hhcurveto
        return
      </CharString>
      <CharString index="7">
        hintmask 00000000
        hintmask 11100100
        38 hmoveto
        8 callgsubr
        88 640 471 -13 10 125 -466 -6 80 603 497 -16 36 -207 rlineto
        86 hlineto
        7 310 rlineto
        -911 hlineto
        hintmask 11010100
        -10 -81 132 -19 -180 -1337 -147 -24 rlineto
        return
      </CharString>
      <CharString index="8">
        4 93 rmoveto
        -144 -24 -8 -69 rlineto
        464 hlineto
        5 69 -173 25 171 355 rlineto
        600 hlineto
        52 -356 -165 -24 -5 -69 rlineto
        488 hlineto
        6 69 -167 27 -235 1434 rlineto
        -167 hlineto
        -359 -983 rmoveto
        return
      </CharString>
      <CharString index="9">
        54 hmoveto
        466 hlineto
        7 70 -156 24 180 -1 callsubr
        -18 callsubr
        -180 10 callgsubr
        return
      </CharString>
      <CharString index="10">
        rmoveto
        64 55 55 68 3 hvcurveto
        57 3 -37 41 -61 hhcurveto
        -52 -65 -52 -68 -1 hvcurveto
        -59 -1 41 -42 51 hhcurveto
        -420 hmoveto
        63 56 55 68 3 hvcurveto
        57 3 -37 41 -62 hhcurveto
        -53 -59 -10 callsubr
        -3 41 -44 51 hhcurveto
        endchar
      </CharString>
      <CharString index="11">
        rmoveto
        168 141 165 148 17 hvcurveto
        2 10 1 11 -1 11 rrcurveto
        -82 hlineto
        -80 -16 -78 -147 -148 hhcurveto
        -133 -59 105 91 -12 hvcurveto
        -2 10 0 12 -1 8 rrcurveto
        -85 hlineto
        -1 -5 0 -9 -6 vvcurveto
        -160 103 -164 186 vhcurveto
        endchar
      </CharString>
      <CharString index="12">
        rmoveto
        63 56 -21 callgsubr
        57 3 -39 41 -61 -54 callgsubr
        -57 -35 callgsubr
        endchar
      </CharString>
      <CharString index="13">
        22 -51 -54 4 -53 hhcurveto
        -183 -185 -186 -235 -33 hvcurveto
        -14 -99 -147 -49 -12 -61 rlineto
        139 hlineto
        return
      </CharString>
      <CharString index="14">
        187 hintmask 00000000
        hintmask 10010010
        352 -79 rmoveto
        50 hlineto
        -228 -105 -137 -81 -98 hhcurveto
        -96 -51 30 9 -21 hvcurveto
        -37 -127 rlineto
        -13 40 78 -16 55 hhcurveto
        184 116 106 70 49 hvcurveto
        82 98 121 194 164 327 rrcurveto
        100 188 159 277 227 vvcurveto
        hintmask 10100010
        117 -39 63 -71 -44 -33 -27 -59 -39 38 -42 -7 -71 vhcurveto
        -24 -228 -93 -166 -104 -227 -14 -26 -108 -210 -48 -90 -26 281 rcurveline
        -101 768 rlineto
        hintmask 10010010
        83 -15 -19 54 -89 hhcurveto
        -98 -85 -96 -25 -14 hvcurveto
        hintmask 11000010
        24 -49 rlineto
        39 41 24 17 25 hhcurveto
        20 13 -12 -58 14 hvcurveto
        hintmask 00001100
        return
      </CharString>
      <CharString index="15">
        rmoveto
        -87 -2 34 -35 69 hhcurveto
        112 90 104 28 15 hvcurveto
        -26 43 rlineto
        -53 -51 -32 -17 -28 hhcurveto
        -18 -14 25 48 7 hvcurveto
        216 1469 -40 23 -229 -35 -16 -67 119 -33 -200 -1345 rlineto
        -4 -20 -2 -34 -14 vvcurveto
        return
      </CharString>
      <CharString index="16">
        rmoveto
        346 295 232 -297 61 47 -202 377 rlineto
        -142 hlineto
        -341 -375 rlineto
        endchar
      </CharString>
      <CharString index="17">
        408 -20 rmoveto
        145 119 90 88 68 hvcurveto
        -1 -19 0 -36 -1 vvcurveto
        -88 -4 40 -34 68 hhcurveto
        104 83 91 25 17 hvcurveto
        -27 44 rlineto
        -36 -40 -29 -19 -27 hhcurveto
        -17 -12 24 49 6 hvcurveto
        214 1469 -44 23 -239 -35 -17 -67 128 -33 -58 -379 rlineto
        15 -52 -62 12 -54 -74 callsubr
        hvcurveto
        25 114 rmoveto
        -123 -70 123 206 258 145 384 308 62 65 -14 -39 47 hvcurveto
        -109 -716 rlineto
        -85 -57 -126 -117 -142 hhcurveto
        return
      </CharString>
</ttFont>
